<svg width="1440" height="670" viewBox="0 0 1440 670" fill="none" xmlns="http://www.w3.org/2000/svg">
<g clip-path="url(#clip0_410_1075)">
<mask id="mask0_410_1075" style="mask-type:luminance" maskUnits="userSpaceOnUse" x="0" y="0" width="1440" height="670">
<path d="M1440 0H0V670H1440V0Z" fill="white"/>
</mask>
<g mask="url(#mask0_410_1075)">
<path d="M46.3866 -43.0136L62.8188 -27.5611L160.363 -157.345L143.931 -172.797L145.605 -175.026L192.415 -131.01L190.74 -128.781L174.145 -144.389L130.888 -86.8312L144.167 -74.3421C146.113 -75.0456 148.058 -75.749 150.201 -75.9607L227.27 -94.4391L211.17 -109.58L212.845 -111.809L250.029 -76.8449L248.354 -74.616L229.599 -92.2538L161.288 -75.9981C167.084 -74.6658 172.408 -71.5654 177.387 -66.8836C197.8 -47.6831 206.874 -2.07872 172.955 44.9326C160.898 60.217 151.335 63.8965 142.036 55.1554C127.594 41.5768 133.357 16.574 140.175 -8.70918L141.382 -12.9552C143.158 -19.841 144.963 -26.3845 146.4 -33.5878C150.004 -52.7011 150.85 -63.6336 143.66 -71.0237C138.901 -68.8384 134.581 -64.9784 130.397 -59.4063C120.072 -45.6659 112.335 -20.3017 110.801 17.5514L109.127 19.7801L44.7231 -40.7847L46.3979 -43.0136H46.3866ZM76.595 -14.6052L107.965 14.8929C110.023 -22.1446 117.923 -47.3593 128.389 -61.2865C132.438 -66.6719 136.893 -70.7186 141.483 -73.0595L129.201 -84.6085L76.5893 -14.6114L76.595 -14.6052ZM162.178 -24.4419C162.365 -8.10529 158.169 7.27869 151.848 27.0022C149.993 32.8607 144.207 49.6082 149.688 54.757C154.335 59.1275 161.682 54.6262 170.947 43.0586C202.554 -2.00401 195.116 -46.3943 175.695 -64.6546C168.556 -71.3661 158.333 -76.2285 146.322 -72.3125C164.654 -52.2217 162.184 -24.4357 162.184 -24.4357L162.178 -24.4419Z" fill="black" fill-opacity="0.3"/>
<path d="M-171.303 2.82019L-154.87 18.2728L-57.3264 -111.511L-73.7585 -126.964L-72.0838 -129.192L-25.2742 -85.1757L-26.9489 -82.947L-43.5446 -98.555L-86.8016 -40.9972L-73.5217 -28.5081C-71.5763 -29.2116 -69.6308 -29.9152 -67.4879 -30.1269L9.58067 -48.6051L-6.51872 -63.7464L-4.84395 -65.9753L32.3398 -31.0109L30.665 -28.7822L11.9096 -46.4199L-56.4017 -30.1643C-50.6047 -28.832 -45.2815 -25.7314 -40.3022 -21.0496C-19.8889 -1.84908 -10.8157 43.7551 -44.7345 90.7664C-56.7907 106.051 -66.3545 109.73 -75.6533 100.989C-90.0948 87.4108 -84.3317 62.4078 -77.5142 37.1246L-76.3074 32.8786C-74.5311 25.9928 -72.7266 19.4495 -71.2886 12.2462C-67.6853 -6.86713 -66.8394 -17.7998 -74.0292 -25.1898C-78.7885 -23.0046 -83.1081 -19.1445 -87.2922 -13.5723C-97.6173 0.168091 -105.354 25.5321 -106.888 63.3852L-108.563 65.6141L-172.966 5.0491L-171.291 2.82019H-171.303ZM-141.094 31.2288L-109.724 60.7267C-107.666 23.6892 -99.7658 -1.52534 -89.2998 -15.4526C-85.2509 -20.8379 -80.7961 -24.8848 -76.2059 -27.2257L-88.4877 -38.7745L-141.1 31.2225L-141.094 31.2288ZM-55.5106 21.3919C-55.3246 37.7285 -59.52 53.1127 -65.8414 72.8361C-67.6966 78.6946 -73.4823 95.442 -68.0011 100.591C-63.3546 104.961 -56.0069 100.46 -46.742 88.8924C-15.1352 43.8298 -22.5731 -0.56044 -41.9939 -18.8208C-49.1329 -25.5323 -59.3565 -30.3945 -71.3676 -26.4785C-53.0351 -6.3877 -55.505 21.3982 -55.505 21.3982L-55.5106 21.3919Z" fill="black" fill-opacity="0.3"/>
<path d="M103.589 108.685L100.104 105.41C110.751 89.229 114.456 75.4451 111.219 64.0518C107.976 52.6585 100.324 41.2901 88.2624 29.9466L68.1762 11.0575L23.938 69.9165L37.3814 82.5612C45.4565 90.1567 54.2929 91.5949 63.8792 86.8819C67.2344 85.1822 71.334 81.1106 76.1667 74.6731L77.5652 72.8178L80.5538 75.6257L36.3213 134.479L33.3326 131.671C42.0731 120.041 45.6708 110.478 44.12 102.994C42.5637 95.511 39.5186 89.64 34.9848 85.3753L21.7049 72.8862L-27.1348 137.865L-2.40198 161.125C4.68064 167.78 11.1655 172.724 17.064 175.943C22.9511 179.161 30.3157 179.479 39.1464 176.901C47.9772 174.324 57.9639 166.872 69.1236 154.544L72.6084 157.825L35.8983 202.521L-61.0366 111.368L-58.6625 108.212L-43.0594 122.886L52.2515 -3.92191L36.6483 -18.5963L39.1577 -21.9395L133.273 66.5608L103.595 108.685H103.589Z" fill="black" fill-opacity="0.3"/>
<path d="M46.037 208.255L62.4692 223.707L160.013 93.9235L143.581 78.4709L145.256 76.2422L192.065 120.259L190.391 122.488L173.795 106.88L130.538 164.437L143.818 176.926C145.763 176.223 147.709 175.519 149.852 175.308L226.92 156.829L210.821 141.688L212.496 139.459L249.679 174.424L248.005 176.653L229.249 159.015L160.938 175.27C166.735 176.603 172.058 179.703 177.037 184.385C197.451 203.585 206.524 249.19 172.605 296.201C160.549 311.486 150.985 315.165 141.686 306.424C127.245 292.845 133.008 267.842 139.825 242.559L141.032 238.313C142.808 231.427 144.613 224.884 146.051 217.681C149.654 198.567 150.5 187.635 143.31 180.245C138.551 182.43 134.231 186.29 130.047 191.862C119.722 205.603 111.985 230.967 110.452 268.82L108.777 271.049L44.3735 210.484L46.0483 208.255H46.037ZM76.2454 236.663L107.615 266.161C109.674 229.124 117.574 203.909 128.04 189.982C132.089 184.597 136.543 180.55 141.134 178.209L128.852 166.66L76.2397 236.657L76.2454 236.663ZM161.829 226.827C162.015 243.163 157.82 258.547 151.498 278.271C149.643 284.129 143.857 300.877 149.338 306.025C153.985 310.396 161.333 305.895 170.598 294.327C202.204 249.265 194.767 204.874 175.346 186.614C168.207 179.902 157.983 175.04 145.972 178.956C164.304 199.047 161.835 226.833 161.835 226.833L161.829 226.827Z" fill="black" fill-opacity="0.3"/>
<path d="M-176.519 248.535L-160.086 263.988L-62.5425 134.204L-78.9746 118.751L-77.2998 116.522L-30.4902 160.539L-32.165 162.768L-48.7607 147.16L-92.0177 204.718L-78.7378 217.207C-76.7923 216.503 -74.8468 215.8 -72.704 215.588L4.36461 197.11L-11.7348 181.968L-10.06 179.74L27.1237 214.704L25.449 216.933L6.69353 199.295L-61.6177 215.551C-55.8208 216.883 -50.4975 219.983 -45.5182 224.665C-25.1049 243.866 -16.0317 289.47 -49.9505 336.481C-62.0068 351.766 -71.5705 355.445 -80.8693 346.704C-95.3109 333.126 -89.5478 308.123 -82.7302 282.839L-81.5235 278.594C-79.7472 271.708 -77.9427 265.164 -76.5047 257.961C-72.9014 238.848 -72.0555 227.915 -79.2453 220.525C-84.0046 222.71 -88.3241 226.57 -92.5083 232.143C-102.833 245.883 -110.57 271.247 -112.104 309.1L-113.779 311.329L-178.182 250.764L-176.507 248.535H-176.519ZM-146.31 276.944L-114.94 306.442C-112.882 269.404 -104.982 244.19 -94.5158 230.262C-90.467 224.877 -86.0122 220.83 -81.422 218.489L-93.7038 206.94L-146.316 276.937L-146.31 276.944ZM-60.7211 267.107C-60.535 283.443 -64.7305 298.828 -71.0518 318.551C-72.9071 324.41 -78.6927 341.157 -73.2115 346.306C-68.565 350.676 -61.2173 346.175 -51.9524 334.607C-20.3456 289.545 -27.7835 245.155 -47.2043 226.894C-54.3433 220.183 -64.5669 215.32 -76.578 219.236C-58.2455 239.327 -60.7154 267.113 -60.7154 267.113L-60.7211 267.107Z" fill="black" fill-opacity="0.3"/>
<path d="M548.514 18.8645L545.029 15.5897C555.676 -0.59127 559.381 -14.3752 556.144 -25.7685C552.901 -37.1618 545.249 -48.5302 533.187 -59.8737L513.101 -78.7628L468.863 -19.9038L482.306 -7.25912C490.381 0.336411 499.218 1.77454 508.804 -2.93842C512.159 -4.63807 516.259 -8.70969 521.091 -15.1472L522.49 -17.0025L525.479 -14.1946L481.246 44.6583L478.257 41.8504C486.998 30.2205 490.596 20.6576 489.045 13.1741C487.489 5.69067 484.443 -0.180321 479.91 -4.44502L466.63 -16.9341L417.79 48.0451L442.523 71.3047C449.606 77.9602 456.09 82.9035 461.989 86.1223C467.876 89.341 475.241 89.6586 484.071 87.0811C492.902 84.5036 502.889 77.0513 514.048 64.7241L517.533 68.0052L480.823 112.7L383.888 21.5479L386.262 18.3913L401.865 33.0657L497.176 -93.7422L481.573 -108.417L484.083 -111.76L578.198 -23.2595L548.52 18.8645H548.514Z" fill="black" fill-opacity="0.3"/>
<path d="M490.962 118.435L507.394 133.887L604.938 4.1032L588.506 -11.3494L590.181 -13.5781L636.991 30.4385L635.316 32.6674L618.72 17.0592L575.463 74.6171L588.743 87.1061C590.689 86.4026 592.634 85.6991 594.777 85.4874L671.846 67.0091L655.746 51.8678L657.421 49.6391L694.605 84.6033L692.93 86.8322L674.174 69.1944L605.863 85.4501C611.66 86.7825 616.983 89.8829 621.963 94.5647C642.376 113.765 651.449 159.37 617.53 206.381C605.474 221.665 595.91 225.345 586.612 216.604C572.17 203.025 577.933 178.022 584.751 152.739L585.957 148.493C587.734 141.607 589.538 135.064 590.976 127.86C594.58 108.747 595.425 97.8146 588.236 90.4246C583.476 92.6098 579.157 96.4698 574.973 102.042C564.648 115.782 556.911 141.146 555.377 179L553.702 181.228L489.299 120.663L490.974 118.435H490.962ZM521.171 146.843L552.541 176.341C554.599 139.304 562.499 114.089 572.965 100.162C577.014 94.7764 581.469 90.7296 586.059 88.3887L573.777 76.8397L521.165 146.837L521.171 146.843ZM606.754 137.006C606.94 153.343 602.745 168.727 596.424 188.45C594.568 194.309 588.783 211.056 594.264 216.205C598.91 220.576 606.258 216.074 615.523 204.507C647.13 159.444 639.692 115.054 620.271 96.7936C613.132 90.0821 602.908 85.2197 590.897 89.1358C609.23 109.227 606.76 137.012 606.76 137.012L606.754 137.006Z" fill="black" fill-opacity="0.3"/>
<path d="M769.034 225.301L765.549 222.026C776.196 205.845 779.9 192.061 776.664 180.668C773.421 169.275 765.769 157.906 753.707 146.563L733.621 127.674L689.383 186.533L702.826 199.178C710.901 206.773 719.738 208.211 729.324 203.498C732.679 201.799 736.779 197.727 741.612 191.289L743.01 189.434L745.999 192.242L701.766 251.095L698.777 248.287C707.518 236.657 711.116 227.094 709.565 219.611C708.008 212.127 704.963 206.256 700.43 201.992L687.15 189.503L638.31 254.482L663.043 277.741C670.125 284.397 676.61 289.34 682.509 292.559C688.396 295.778 695.761 296.095 704.591 293.518C713.422 290.94 723.409 283.488 734.568 271.161L738.053 274.442L701.343 319.137L604.408 227.985L606.782 224.828L622.386 239.502L717.696 112.694L702.093 98.0201L704.603 94.6768L798.718 183.177L769.04 225.301H769.034Z" fill="black" fill-opacity="0.3"/>
<path d="M711.476 324.865L727.909 340.318L825.453 210.534L809.02 195.081L810.695 192.853L857.505 236.869L855.83 239.098L839.234 223.49L795.977 281.048L809.257 293.537C811.203 292.833 813.148 292.13 815.291 291.918L892.36 273.44L876.26 258.298L877.935 256.07L915.119 291.034L913.444 293.263L894.689 275.625L826.377 291.881C832.174 293.213 837.498 296.314 842.477 300.995C862.89 320.196 871.963 365.8 838.045 412.811C825.988 428.096 816.424 431.775 807.126 423.034C792.684 409.456 798.447 384.453 805.265 359.17L806.472 354.923C808.248 348.038 810.052 341.494 811.49 334.291C815.094 315.178 815.94 304.245 808.75 296.855C803.99 299.04 799.671 302.9 795.487 308.473C785.162 322.213 777.425 347.577 775.891 385.43L774.216 387.659L709.813 327.094L711.488 324.865H711.476ZM741.685 353.274L773.055 382.772C775.113 345.734 783.013 320.52 793.479 306.592C797.528 301.207 801.983 297.16 806.573 294.819L794.291 283.27L741.679 353.267L741.685 353.274ZM827.268 343.443C827.454 359.78 823.259 375.164 816.938 394.887C815.082 400.746 809.297 417.493 814.778 422.642C819.424 427.012 826.772 422.511 836.037 410.944C867.644 365.881 860.206 321.491 840.785 303.23C833.646 296.519 823.423 291.657 811.411 295.573C829.744 315.663 827.274 343.449 827.274 343.449L827.268 343.443Z" fill="black" fill-opacity="0.3"/>
<path d="M330.825 64.6996L327.34 61.4248C337.987 45.2438 341.692 31.4599 338.455 20.0666C335.212 8.67329 327.56 -2.69511 315.498 -14.0386L295.412 -32.9278L251.174 25.9313L264.617 38.576C272.692 46.1715 281.529 47.6096 291.115 42.8967C294.47 41.197 298.57 37.1253 303.403 30.6877L304.801 28.8325L307.79 31.6403L263.557 90.4932L260.568 87.6853C269.309 76.0555 272.907 66.4926 271.356 59.0091C269.8 51.5256 266.754 45.6548 262.221 41.3901L248.941 28.901L200.101 93.88L224.834 117.14C231.917 123.795 238.401 128.739 244.3 131.957C250.187 135.176 257.552 135.494 266.382 132.916C275.213 130.339 285.2 122.886 296.359 110.559L299.844 113.84L263.134 158.535L166.199 67.383L168.573 64.2264L184.176 78.9008L279.487 -47.9073L263.884 -62.5815L266.394 -65.9248L360.509 22.5756L330.831 64.6996H330.825Z" fill="black" fill-opacity="0.3"/>
<path d="M273.267 164.27L289.7 179.722L387.244 49.9383L370.812 34.4857L372.486 32.2568L419.296 76.2737L417.621 78.5024L401.025 62.8942L357.768 120.452L371.048 132.941C372.994 132.238 374.939 131.534 377.082 131.322L454.151 112.844L438.051 97.7029L439.726 95.474L476.91 130.438L475.235 132.667L456.48 115.03L388.168 131.285C393.965 132.617 399.289 135.718 404.268 140.4C424.681 159.6 433.754 205.204 399.836 252.216C387.779 267.5 378.216 271.18 368.917 262.439C354.475 248.86 360.238 223.857 367.056 198.574L368.263 194.328C370.039 187.442 371.843 180.899 373.281 173.696C376.885 154.582 377.731 143.65 370.541 136.26C365.781 138.445 361.462 142.305 357.278 147.877C346.953 161.617 339.216 186.981 337.682 224.835L336.007 227.063L271.604 166.498L273.279 164.27H273.267ZM303.481 192.678L334.851 222.176C336.91 185.139 344.81 159.924 355.276 145.997C359.325 140.611 363.78 136.565 368.37 134.224L356.088 122.675L303.476 192.672L303.481 192.678ZM389.065 182.841C389.251 199.178 385.056 214.562 378.734 234.285C376.879 240.144 371.093 256.891 376.575 262.04C381.221 266.411 388.569 261.909 397.834 250.342C429.441 205.279 422.003 160.889 402.582 142.629C395.443 135.917 385.219 131.055 373.208 134.971C391.541 155.062 389.071 182.848 389.071 182.848L389.065 182.841Z" fill="black" fill-opacity="0.3"/>
<path d="M551.339 271.136L547.854 267.861C558.501 251.68 562.206 237.896 558.969 226.503C555.727 215.11 548.074 203.741 536.012 192.398L515.926 173.509L471.688 232.368L485.131 245.012C493.206 252.608 502.043 254.046 511.629 249.333C514.984 247.634 519.084 243.562 523.917 237.124L525.315 235.269L528.304 238.077L484.071 296.93L481.083 294.122C489.823 282.492 493.421 272.929 491.87 265.446C490.314 257.962 487.269 252.091 482.735 247.826L469.455 235.338L420.615 300.317L445.348 323.576C452.431 330.232 458.916 335.175 464.814 338.394C470.701 341.612 478.066 341.93 486.896 339.353C495.727 336.775 505.714 329.323 516.873 316.996L520.359 320.277L483.648 364.972L386.713 273.819L389.087 270.663L404.691 285.337L500.002 158.529L484.398 143.855L486.908 140.512L581.023 229.012L551.345 271.136H551.339Z" fill="black" fill-opacity="0.3"/>
<path d="M493.788 370.699L510.22 386.152L607.764 256.368L591.331 240.915L593.006 238.687L639.816 282.703L638.141 284.932L621.545 269.324L578.288 326.882L591.568 339.371C593.514 338.667 595.459 337.964 597.602 337.752L674.671 319.274L658.571 304.133L660.246 301.904L697.43 336.868L695.755 339.097L677 321.459L608.688 337.715C614.485 339.047 619.809 342.148 624.788 346.829C645.201 366.03 654.274 411.634 620.356 458.645C608.299 473.93 598.736 477.609 589.437 468.868C574.995 455.29 580.758 430.287 587.576 405.004L588.783 400.758C590.559 393.872 592.363 387.328 593.801 380.125C597.405 361.012 598.251 350.079 591.061 342.689C586.301 344.874 581.982 348.734 577.798 354.307C567.473 368.047 559.736 393.411 558.202 431.264L556.527 433.493L492.124 372.928L493.799 370.699H493.788ZM523.996 399.108L555.366 428.606C557.424 391.568 565.324 366.354 575.79 352.426C579.839 347.041 584.294 342.994 588.884 340.653L576.602 329.104L523.99 399.101L523.996 399.108ZM609.579 389.277C609.766 405.614 605.57 420.998 599.249 440.721C597.393 446.58 591.608 463.327 597.089 468.476C601.735 472.847 609.083 468.345 618.348 456.778C649.955 411.715 642.517 367.325 623.096 349.064C615.957 342.353 605.734 337.491 593.722 341.407C612.055 361.497 609.585 389.283 609.585 389.283L609.579 389.277Z" fill="black" fill-opacity="0.3"/>
<path d="M768.679 476.564L765.194 473.289C775.84 457.108 779.545 443.324 776.308 431.931C773.066 420.537 765.414 409.169 753.352 397.826L733.266 378.936L689.028 437.796L702.471 450.44C710.546 458.036 719.382 459.474 728.969 454.761C732.324 453.061 736.424 448.99 741.256 442.552L742.655 440.697L745.643 443.505L701.411 502.357L698.422 499.55C707.163 487.92 710.76 478.357 709.21 470.873C707.653 463.39 704.608 457.519 700.074 453.254L686.794 440.765L637.955 505.744L662.688 529.004C669.77 535.66 676.255 540.603 682.154 543.822C688.041 547.04 695.405 547.358 704.236 544.78C713.067 542.203 723.053 534.751 734.213 522.423L737.698 525.704L700.988 570.4L604.053 479.247L606.427 476.091L622.03 490.765L717.341 363.957L701.738 349.283L704.247 345.939L798.363 434.44L768.684 476.564H768.679Z" fill="black" fill-opacity="0.3"/>
<path d="M711.127 576.134L727.559 591.586L825.103 461.803L808.671 446.35L810.346 444.121L857.155 488.138L855.48 490.367L838.885 474.758L795.628 532.316L808.908 544.805C810.853 544.102 812.799 543.398 814.942 543.187L892.01 524.708L875.911 509.567L877.586 507.338L914.769 542.303L913.095 544.531L894.339 526.894L826.028 543.149C831.825 544.482 837.148 547.582 842.127 552.264C862.541 571.464 871.614 617.069 837.695 664.08C825.639 679.365 816.075 683.044 806.776 674.303C792.335 660.724 798.098 635.721 804.915 610.438L806.122 606.192C807.898 599.306 809.703 592.763 811.141 585.56C814.744 566.446 815.59 555.514 808.4 548.124C803.641 550.309 799.321 554.169 795.137 559.741C784.812 573.482 777.075 598.846 775.542 636.699L773.867 638.928L709.463 578.363L711.138 576.134H711.127ZM741.335 604.542L772.705 634.04C774.763 597.003 782.664 571.788 793.13 557.861C797.179 552.476 801.633 548.429 806.224 546.088L793.942 534.539L741.33 604.536L741.335 604.542ZM826.919 594.706C827.105 611.042 822.909 626.426 816.588 646.15C814.733 652.008 808.947 668.756 814.428 673.904C819.075 678.275 826.423 673.774 835.688 662.206C867.294 617.143 859.856 572.753 840.436 554.493C833.297 547.781 823.073 542.919 811.062 546.835C829.394 566.926 826.924 594.712 826.924 594.712L826.919 594.706Z" fill="black" fill-opacity="0.3"/>
<path d="M325.874 310.589L322.389 307.314C333.036 291.133 336.74 277.35 333.504 265.956C330.261 254.563 322.609 243.195 310.547 231.851L290.461 212.962L246.223 271.821L259.666 284.466C267.741 292.061 276.578 293.499 286.164 288.786C289.519 287.087 293.619 283.015 298.451 276.578L299.85 274.722L302.838 277.53L258.606 336.383L255.617 333.575C264.358 321.945 267.955 312.382 266.405 304.899C264.848 297.415 261.803 291.544 257.269 287.28L243.99 274.791L195.15 339.77L219.883 363.029C226.965 369.685 233.45 374.628 239.349 377.847C245.236 381.066 252.6 381.383 261.431 378.806C270.262 376.228 280.249 368.776 291.408 356.449L294.893 359.73L258.183 404.425L161.248 313.273L163.622 310.116L179.225 324.79L274.536 197.983L258.933 183.308L261.442 179.965L355.558 268.465L325.88 310.589H325.874Z" fill="black" fill-opacity="0.3"/>
<path d="M268.322 410.159L284.754 425.612L382.298 295.828L365.866 280.375L367.541 278.146L414.35 322.163L412.676 324.392L396.08 308.784L352.823 366.342L366.103 378.831C368.048 378.127 369.994 377.424 372.137 377.212L449.205 358.734L433.106 343.592L434.781 341.364L471.964 376.328L470.29 378.557L451.534 360.919L383.223 377.175C389.02 378.507 394.343 381.607 399.322 386.289C419.736 405.49 428.809 451.094 394.89 498.105C382.834 513.39 373.27 517.069 363.971 508.328C349.53 494.75 355.293 469.747 362.11 444.464L363.317 440.217C365.093 433.332 366.898 426.788 368.336 419.585C371.939 400.472 372.785 389.539 365.595 382.149C360.836 384.334 356.516 388.194 352.332 393.767C342.007 407.507 334.27 432.871 332.737 470.724L331.062 472.953L266.658 412.388L268.333 410.159H268.322ZM298.53 438.568L329.9 468.066C331.958 431.028 339.859 405.814 350.325 391.886C354.374 386.501 358.828 382.454 363.419 380.113L351.137 368.564L298.525 438.561L298.53 438.568ZM384.114 428.731C384.3 445.067 380.104 460.452 373.783 480.175C371.928 486.034 366.142 502.781 371.623 507.93C376.27 512.3 383.618 507.799 392.883 496.231C424.489 451.169 417.051 406.778 397.631 388.518C390.492 381.807 380.268 376.944 368.257 380.86C386.589 400.951 384.12 428.737 384.12 428.737L384.114 428.731Z" fill="black" fill-opacity="0.3"/>
<path d="M546.129 516.845L542.644 513.57C553.291 497.389 556.996 483.605 553.759 472.212C550.516 460.819 542.864 449.45 530.802 438.107L510.716 419.218L466.478 478.077L479.921 490.721C487.996 498.317 496.833 499.755 506.419 495.042C509.774 493.343 513.874 489.271 518.706 482.833L520.105 480.978L523.094 483.786L478.861 542.639L475.872 539.831C484.613 528.201 488.211 518.638 486.66 511.155C485.104 503.671 482.058 497.8 477.525 493.536L464.245 481.047L415.405 546.026L440.138 569.285C447.221 575.941 453.705 580.884 459.604 584.103C465.491 587.322 472.856 587.639 481.686 585.062C490.517 582.484 500.504 575.032 511.663 562.705L515.148 565.986L478.438 610.681L381.503 519.528L383.877 516.372L399.48 531.046L494.791 404.238L479.188 389.564L481.698 386.221L575.813 474.721L546.135 516.845H546.129Z" fill="black" fill-opacity="0.3"/>
<path d="M488.571 616.415L505.004 631.868L602.548 502.084L586.115 486.631L587.79 484.402L634.6 528.419L632.925 530.648L616.329 515.04L573.072 572.598L586.352 585.087C588.298 584.383 590.243 583.68 592.386 583.468L669.455 564.99L653.355 549.848L655.03 547.62L692.214 582.584L690.539 584.813L671.784 567.175L603.472 583.431C609.269 584.763 614.593 587.863 619.572 592.545C639.985 611.746 649.058 657.35 615.139 704.361C603.083 719.646 593.52 723.325 584.221 714.584C569.779 701.006 575.542 676.003 582.36 650.72L583.567 646.473C585.343 639.588 587.147 633.044 588.585 625.841C592.189 606.728 593.035 595.795 585.845 588.405C581.085 590.59 576.766 594.45 572.582 600.023C562.257 613.763 554.52 639.127 552.986 676.98L551.311 679.209L486.908 618.644L488.583 616.415H488.571ZM518.785 644.824L550.155 674.322C552.214 637.284 560.114 612.07 570.58 598.142C574.629 592.757 579.083 588.71 583.674 586.369L571.392 574.82L518.78 644.817L518.785 644.824ZM604.369 634.987C604.555 651.323 600.36 666.707 594.038 686.431C592.183 692.289 586.397 709.037 591.878 714.186C596.525 718.556 603.873 714.055 613.138 702.487C644.744 657.425 637.307 613.034 617.886 594.774C610.747 588.063 600.523 583.2 588.512 587.116C606.844 607.207 604.375 634.993 604.375 634.993L604.369 634.987Z" fill="black" fill-opacity="0.3"/>
<path d="M274.3 -84.6398L290.732 -69.1872L388.276 -198.971L371.844 -214.424L373.518 -216.652L420.328 -172.636L418.653 -170.407L402.057 -186.015L358.8 -128.457L372.08 -115.968C374.026 -116.672 375.971 -117.375 378.114 -117.587L455.183 -136.065L439.083 -151.206L440.758 -153.435L477.942 -118.471L476.267 -116.242L457.512 -133.88L389.2 -117.624C394.997 -116.292 400.321 -113.191 405.3 -108.51C425.713 -89.309 434.786 -43.7049 400.868 3.30646C388.811 18.5909 379.248 22.2705 369.949 13.5294C355.507 -0.0491638 361.27 -25.0522 368.088 -50.3353L369.295 -54.5814C371.071 -61.4672 372.875 -68.0105 374.313 -75.2138C377.917 -94.3271 378.763 -105.26 371.573 -112.65C366.814 -110.465 362.494 -106.604 358.31 -101.032C347.985 -87.2919 340.248 -61.9279 338.714 -24.0748L337.039 -21.8459L272.636 -82.4109L274.311 -84.6398H274.3ZM304.508 -56.2312L335.878 -26.7332C337.936 -63.7707 345.836 -88.9853 356.302 -102.913C360.351 -108.298 364.806 -112.345 369.396 -114.686L357.114 -126.234L304.502 -56.2374L304.508 -56.2312ZM390.091 -66.068C390.277 -49.7314 386.082 -34.3473 379.761 -14.6238C377.905 -8.76532 372.12 7.98209 377.601 13.1308C382.247 17.5014 389.595 13.0001 398.86 1.43248C430.467 -43.6302 423.029 -88.0204 403.608 -106.281C396.469 -112.992 386.246 -117.854 374.234 -113.938C392.567 -93.8477 390.097 -66.0618 390.097 -66.0618L390.091 -66.068Z" fill="black" fill-opacity="0.3"/>
<path d="M1384.51 -49.0595L1400.94 -33.6071L1498.49 -163.391L1482.06 -178.843L1483.73 -181.072L1530.54 -137.056L1528.87 -134.827L1512.27 -150.435L1469.01 -92.8771L1482.29 -80.388C1484.24 -81.0915 1486.18 -81.7951 1488.33 -82.0068L1565.4 -100.485L1549.3 -115.626L1550.97 -117.855L1588.15 -82.8908L1586.48 -80.6619L1567.72 -98.2997L1499.41 -82.044C1505.21 -80.7117 1510.53 -77.6113 1515.51 -72.9295C1535.93 -53.729 1545 -8.12462 1511.08 38.8867C1499.02 54.1711 1489.46 57.8506 1480.16 49.1095C1465.72 35.5309 1471.48 10.5279 1478.3 -14.7552L1479.51 -19.0011C1481.28 -25.8869 1483.09 -32.4304 1484.53 -39.6337C1488.13 -58.747 1488.98 -69.6795 1481.79 -77.0696C1477.03 -74.8843 1472.71 -71.0243 1468.52 -65.4522C1458.2 -51.7118 1450.46 -26.3476 1448.93 11.5055L1447.25 13.7342L1382.85 -46.8308L1384.52 -49.0595H1384.51ZM1414.72 -20.6511L1446.09 8.84703C1448.15 -28.1905 1456.05 -53.4052 1466.51 -67.3324C1470.56 -72.7178 1475.02 -76.7645 1479.61 -79.1054L1467.33 -90.6544L1414.71 -20.6573L1414.72 -20.6511ZM1500.3 -30.4879C1500.49 -14.1513 1496.29 1.23279 1489.97 20.9563C1488.12 26.8148 1482.33 43.5623 1487.81 48.7111C1492.46 53.0816 1499.81 48.5803 1509.07 37.0127C1540.68 -8.04991 1533.24 -52.4402 1513.82 -70.7005C1506.68 -77.412 1496.46 -82.2744 1484.45 -78.3584C1502.78 -58.2676 1500.31 -30.4817 1500.31 -30.4817L1500.3 -30.4879Z" fill="black" fill-opacity="0.3"/>
<path d="M1423.22 348.106L1419.74 344.831C1430.39 328.65 1434.09 314.866 1430.85 303.473C1427.61 292.08 1419.96 280.711 1407.9 269.368L1387.81 250.478L1343.57 309.338L1357.02 321.982C1365.09 329.578 1373.93 331.016 1383.51 326.303C1386.87 324.603 1390.97 320.532 1395.8 314.094L1397.2 312.239L1400.19 315.047L1355.96 373.899L1352.97 371.092C1361.71 359.462 1365.31 349.899 1363.75 342.415C1362.2 334.932 1359.15 329.061 1354.62 324.796L1341.34 312.307L1292.5 377.286L1317.23 400.546C1324.32 407.202 1330.8 412.145 1336.7 415.364C1342.59 418.582 1349.95 418.9 1358.78 416.322C1367.61 413.745 1377.6 406.292 1388.76 393.965L1392.24 397.246L1355.53 441.942L1258.6 350.789L1260.97 347.633L1276.58 362.307L1371.89 235.499L1356.28 220.825L1358.79 217.481L1452.91 305.982L1423.23 348.106H1423.22Z" fill="black" fill-opacity="0.3"/>
<path d="M1365.67 447.67L1382.1 463.122L1479.64 333.339L1463.21 317.886L1464.89 315.657L1511.69 359.674L1510.02 361.903L1493.42 346.295L1450.17 403.852L1463.45 416.341C1465.39 415.638 1467.34 414.934 1469.48 414.723L1546.55 396.244L1530.45 381.103L1532.13 378.874L1569.31 413.839L1567.63 416.067L1548.88 398.43L1480.57 414.685C1486.36 416.018 1491.69 419.118 1496.67 423.8C1517.08 443.001 1526.15 488.605 1492.23 535.616C1480.18 550.9 1470.61 554.58 1461.32 545.839C1446.87 532.26 1452.64 507.257 1459.45 481.974L1460.66 477.728C1462.44 470.842 1464.24 464.299 1465.68 457.096C1469.28 437.982 1470.13 427.05 1462.94 419.66C1458.18 421.845 1453.86 425.705 1449.68 431.277C1439.35 445.018 1431.61 470.382 1430.08 508.235L1428.41 510.464L1364 449.899L1365.68 447.67H1365.67ZM1395.88 476.078L1427.25 505.576C1429.31 468.539 1437.21 443.324 1447.67 429.397C1451.72 424.012 1456.18 419.965 1460.77 417.624L1448.49 406.075L1395.87 476.072L1395.88 476.078ZM1481.46 466.248C1481.65 482.584 1477.45 497.968 1471.13 517.692C1469.28 523.55 1463.49 540.298 1468.97 545.447C1473.62 549.817 1480.97 545.316 1490.23 533.748C1521.84 488.686 1514.4 444.295 1494.98 426.035C1487.84 419.324 1477.62 414.461 1465.61 418.377C1483.94 438.468 1481.47 466.254 1481.47 466.254L1481.46 466.248Z" fill="black" fill-opacity="0.3"/>
<path d="M1205.53 393.941L1202.04 390.666C1212.69 374.485 1216.4 360.701 1213.16 349.308C1209.92 337.914 1202.26 326.546 1190.2 315.202L1170.12 296.313L1125.88 355.172L1139.32 367.817C1147.4 375.413 1156.23 376.851 1165.82 372.138C1169.17 370.438 1173.27 366.366 1178.11 359.929L1179.51 358.074L1182.49 360.882L1138.26 419.734L1135.27 416.927C1144.01 405.297 1147.61 395.734 1146.06 388.25C1144.5 380.767 1141.46 374.896 1136.92 370.631L1123.64 358.142L1074.81 423.121L1099.54 446.381C1106.62 453.036 1113.11 457.98 1119 461.198C1124.89 464.417 1132.26 464.735 1141.09 462.157C1149.92 459.58 1159.9 452.127 1171.06 439.8L1174.55 443.081L1137.84 487.777L1040.9 396.624L1043.28 393.468L1058.88 408.142L1154.19 281.334L1138.59 266.66L1141.1 263.316L1235.21 351.817L1205.53 393.941H1205.53Z" fill="black" fill-opacity="0.3"/>
<path d="M1147.98 493.505L1164.41 508.958L1261.95 379.174L1245.52 363.721L1247.2 361.492L1294.01 405.509L1292.33 407.738L1275.74 392.13L1232.48 449.687L1245.76 462.176C1247.7 461.473 1249.65 460.77 1251.79 460.558L1328.86 442.079L1312.76 426.938L1314.44 424.709L1351.62 459.674L1349.95 461.903L1331.19 444.265L1262.88 460.52C1268.68 461.853 1274 464.953 1278.98 469.635C1299.39 488.835 1308.46 534.44 1274.55 581.451C1262.49 596.736 1252.93 600.415 1243.63 591.674C1229.19 578.095 1234.95 553.092 1241.77 527.809L1242.97 523.563C1244.75 516.678 1246.55 510.134 1247.99 502.931C1251.59 483.817 1252.44 472.885 1245.25 465.495C1240.49 467.68 1236.17 471.54 1231.99 477.112C1221.66 490.853 1213.93 516.217 1212.39 554.07L1210.72 556.299L1146.31 495.734L1147.99 493.505H1147.98ZM1178.19 521.913L1209.56 551.411C1211.61 514.374 1219.51 489.159 1229.98 475.232C1234.03 469.847 1238.48 465.8 1243.07 463.459L1230.79 451.91L1178.18 521.907L1178.19 521.913ZM1263.77 512.083C1263.96 528.419 1259.76 543.803 1253.44 563.527C1251.58 569.385 1245.8 586.133 1251.28 591.282C1255.93 595.652 1263.27 591.151 1272.54 579.583C1304.14 534.521 1296.71 490.131 1277.29 471.87C1270.15 465.159 1259.92 460.296 1247.91 464.212C1266.24 484.303 1263.78 512.089 1263.78 512.089L1263.77 512.083Z" fill="black" fill-opacity="0.3"/>
<path d="M1426.05 600.37L1422.56 597.096C1433.21 580.915 1436.92 567.131 1433.68 555.737C1430.44 544.344 1422.78 532.976 1410.72 521.632L1390.64 502.743L1346.4 561.602L1359.84 574.247C1367.92 581.842 1376.75 583.28 1386.34 578.567C1389.69 576.868 1393.79 572.796 1398.63 566.359L1400.03 564.503L1403.01 567.311L1358.78 626.164L1355.79 623.356C1364.53 611.726 1368.13 602.163 1366.58 594.68C1365.02 587.197 1361.98 581.326 1357.44 577.061L1344.16 564.572L1295.33 629.551L1320.06 652.811C1327.14 659.466 1333.63 664.409 1339.52 667.628C1345.41 670.847 1352.78 671.164 1361.61 668.587C1370.44 666.009 1380.42 658.557 1391.58 646.23L1395.07 649.511L1358.36 694.206L1261.42 603.054L1263.8 599.897L1279.4 614.572L1374.71 487.764L1359.11 473.089L1361.62 469.746L1455.73 558.246L1426.05 600.37H1426.05Z" fill="black" fill-opacity="0.3"/>
<path d="M1368.49 699.94L1384.92 715.393L1482.47 585.609L1466.04 570.156L1467.71 567.928L1514.52 611.944L1512.85 614.173L1496.25 598.565L1452.99 656.123L1466.27 668.612C1468.22 667.908 1470.16 667.205 1472.31 666.993L1549.37 648.515L1533.28 633.374L1534.95 631.145L1572.13 666.109L1570.46 668.338L1551.7 650.7L1483.39 666.956C1489.19 668.288 1494.51 671.389 1499.49 676.071C1519.91 695.271 1528.98 740.875 1495.06 787.887C1483 803.171 1473.44 806.851 1464.14 798.109C1449.7 784.531 1455.46 759.528 1462.28 734.245L1463.49 729.999C1465.26 723.113 1467.07 716.57 1468.51 709.366C1472.11 690.253 1472.95 679.321 1465.76 671.93C1461.01 674.116 1456.69 677.976 1452.5 683.548C1442.18 697.288 1434.44 722.652 1432.91 760.505L1431.23 762.734L1366.83 702.169L1368.5 699.94H1368.49ZM1398.7 728.349L1430.07 757.847C1432.13 720.81 1440.03 695.595 1450.49 681.668C1454.54 676.282 1459 672.235 1463.59 669.895L1451.31 658.346L1398.69 728.343L1398.7 728.349ZM1484.28 718.512C1484.47 734.849 1480.27 750.233 1473.95 769.956C1472.1 775.815 1466.31 792.562 1471.79 797.711C1476.44 802.081 1483.79 797.58 1493.05 786.013C1524.66 740.95 1517.22 696.56 1497.8 678.299C1490.66 671.588 1480.44 666.726 1468.43 670.642C1486.76 690.732 1484.29 718.518 1484.29 718.518L1484.28 718.512Z" fill="black" fill-opacity="0.3"/>
<path d="M1200.58 639.824L1197.09 636.549C1207.74 620.368 1211.44 606.584 1208.21 595.191C1204.97 583.797 1197.31 572.429 1185.25 561.085L1165.16 542.196L1120.93 601.055L1134.37 613.7C1142.45 621.296 1151.28 622.734 1160.87 618.021C1164.22 616.321 1168.32 612.249 1173.16 605.812L1174.55 603.956L1177.54 606.764L1133.31 665.617L1130.32 662.809C1139.06 651.18 1142.66 641.617 1141.11 634.133C1139.55 626.65 1136.51 620.779 1131.97 616.514L1118.69 604.025L1069.85 669.004L1094.59 692.264C1101.67 698.919 1108.15 703.863 1114.05 707.081C1119.94 710.3 1127.3 710.618 1136.14 708.04C1144.97 705.463 1154.95 698.01 1166.11 685.683L1169.6 688.964L1132.89 733.659L1035.95 642.507L1038.33 639.35L1053.93 654.025L1149.24 527.217L1133.64 512.543L1136.15 509.199L1230.26 597.699L1200.58 639.824H1200.58Z" fill="black" fill-opacity="0.3"/>
<path d="M1143.03 739.394L1159.46 754.846L1257 625.062L1240.57 609.61L1242.24 607.381L1289.05 651.398L1287.38 653.626L1270.78 638.018L1227.53 695.576L1240.81 708.065C1242.75 707.362 1244.7 706.658 1246.84 706.447L1323.91 687.968L1307.81 672.827L1309.48 670.598L1346.67 705.562L1344.99 707.791L1326.24 690.153L1257.93 706.409C1263.72 707.741 1269.05 710.842 1274.03 715.524C1294.44 734.724 1303.51 780.329 1269.59 827.34C1257.54 842.624 1247.97 846.304 1238.68 837.563C1224.23 823.984 1230 798.981 1236.81 773.698L1238.02 769.452C1239.8 762.566 1241.6 756.023 1243.04 748.82C1246.64 729.706 1247.49 718.774 1240.3 711.384C1235.54 713.569 1231.22 717.429 1227.04 723.001C1216.71 736.741 1208.97 762.105 1207.44 799.958L1205.77 802.187L1141.36 741.622L1143.04 739.394H1143.03ZM1173.23 767.802L1204.6 797.3C1206.66 760.263 1214.56 735.048 1225.03 721.121C1229.08 715.735 1233.53 711.689 1238.12 709.348L1225.84 697.799L1173.23 767.796L1173.23 767.802ZM1258.82 757.965C1259 774.302 1254.81 789.686 1248.49 809.409C1246.63 815.268 1240.85 832.015 1246.33 837.164C1250.97 841.535 1258.32 837.033 1267.59 825.466C1299.19 780.403 1291.76 736.013 1272.33 717.753C1265.2 711.041 1254.97 706.179 1242.96 710.095C1261.29 730.186 1258.82 757.971 1258.82 757.971L1258.82 757.965Z" fill="black" fill-opacity="0.3"/>
<path d="M985.782 431.314L982.297 428.039C992.943 411.858 996.648 398.074 993.411 386.681C990.169 375.287 982.517 363.919 970.455 352.576L950.368 333.686L906.13 392.546L919.574 405.19C927.649 412.786 936.485 414.224 946.072 409.511C949.427 407.811 953.526 403.74 958.359 397.302L959.758 395.447L962.746 398.255L918.514 457.107L915.525 454.3C924.265 442.67 927.863 433.107 926.312 425.623C924.756 418.14 921.711 412.269 917.177 408.004L903.897 395.515L855.058 460.494L879.79 483.754C886.873 490.41 893.358 495.353 899.256 498.571C905.143 501.79 912.508 502.108 921.339 499.53C930.169 496.953 940.156 489.501 951.316 477.173L954.801 480.454L918.091 525.15L821.156 433.997L823.53 430.841L839.133 445.515L934.444 318.707L918.841 304.033L921.35 300.689L1015.47 389.19L985.787 431.314H985.782Z" fill="black" fill-opacity="0.3"/>
<path d="M928.23 530.884L944.662 546.336L1042.21 416.552L1025.77 401.1L1027.45 398.871L1074.26 442.888L1072.58 445.117L1055.99 429.508L1012.73 487.066L1026.01 499.555C1027.96 498.852 1029.9 498.148 1032.04 497.937L1109.11 479.458L1093.01 464.317L1094.69 462.088L1131.87 497.053L1130.2 499.281L1111.44 481.644L1043.13 497.899C1048.93 499.232 1054.25 502.332 1059.23 507.014C1079.64 526.214 1088.72 571.819 1054.8 618.83C1042.74 634.115 1033.18 637.794 1023.88 629.053C1009.44 615.474 1015.2 590.471 1022.02 565.188L1023.23 560.942C1025 554.056 1026.81 547.513 1028.24 540.31C1031.85 521.196 1032.69 510.264 1025.5 502.874C1020.74 505.059 1016.42 508.919 1012.24 514.491C1001.92 528.232 994.178 553.596 992.645 591.449L990.97 593.678L926.566 533.113L928.241 530.884H928.23ZM958.438 559.292L989.808 588.79C991.866 551.753 999.767 526.538 1010.23 512.611C1014.28 507.226 1018.74 503.179 1023.33 500.838L1011.04 489.289L958.433 559.286L958.438 559.292ZM1044.02 549.455C1044.21 565.792 1040.01 581.176 1033.69 600.9C1031.84 606.758 1026.05 623.506 1031.53 628.654C1036.18 633.025 1043.53 628.524 1052.79 616.956C1084.4 571.893 1076.96 527.503 1057.54 509.243C1050.4 502.531 1040.18 497.669 1028.16 501.585C1046.5 521.676 1044.03 549.462 1044.03 549.462L1044.02 549.455Z" fill="black" fill-opacity="0.3"/>
<path d="M532.505 758.065L529.02 754.79C539.667 738.609 543.371 724.825 540.135 713.432C536.892 702.038 529.24 690.67 517.178 679.327L497.092 660.437L452.854 719.297L466.297 731.941C474.372 739.537 483.209 740.975 492.795 736.262C496.15 734.562 500.25 730.491 505.082 724.053L506.481 722.198L509.47 725.006L465.237 783.858L462.248 781.051C470.989 769.421 474.587 759.858 473.036 752.374C471.479 744.891 468.434 739.02 463.901 734.755L450.621 722.266L401.781 787.245L426.514 810.505C433.596 817.161 440.081 822.104 445.98 825.323C451.867 828.541 459.231 828.859 468.062 826.281C476.893 823.704 486.88 816.251 498.039 803.924L501.524 807.205L464.814 851.901L367.879 760.748L370.253 757.592L385.856 772.266L481.167 645.458L465.564 630.784L468.073 627.44L562.189 715.941L532.511 758.065H532.505Z" fill="black" fill-opacity="0.3"/>
<path d="M95.5873 348.728L92.1024 345.453C102.749 329.272 106.454 315.488 103.217 304.095C99.9745 292.702 92.3223 281.333 80.2605 269.99L60.1742 251.1L15.936 309.96L29.3794 322.604C37.4545 330.2 46.2909 331.638 55.8773 326.925C59.2325 325.225 63.332 321.154 68.1647 314.716L69.5632 312.861L72.5519 315.669L28.3193 374.522L25.3306 371.714C34.0711 360.084 37.6688 350.521 36.1181 343.038C34.5617 335.554 31.5166 329.683 26.9828 325.418L13.7029 312.929L-35.1367 377.908L-10.4039 401.168C-3.3213 407.824 3.16359 412.767 9.06202 415.986C14.9492 419.204 22.3137 419.522 31.1444 416.944C39.9751 414.367 49.9619 406.915 61.1215 394.587L64.6065 397.868L27.8964 442.564L-69.0386 351.411L-66.6646 348.255L-51.0613 362.929L44.2496 236.121L28.6464 221.447L31.1557 218.104L125.271 306.604L95.5929 348.728H95.5873Z" fill="black" fill-opacity="0.3"/>
<path d="M38.0354 448.298L54.4675 463.75L152.011 333.967L135.579 318.514L137.254 316.285L184.064 360.302L182.389 362.531L165.793 346.923L122.536 404.481L135.816 416.97C137.762 416.266 139.707 415.562 141.85 415.351L218.919 396.873L202.819 381.731L204.494 379.502L241.678 414.467L240.003 416.696L221.247 399.058L152.936 415.313C158.733 416.646 164.056 419.746 169.036 424.428C189.449 443.629 198.522 489.233 164.603 536.244C152.547 551.529 142.983 555.208 133.685 546.467C119.243 532.889 125.006 507.885 131.824 482.602L133.03 478.356C134.807 471.471 136.611 464.927 138.049 457.724C141.653 438.611 142.498 427.678 135.309 420.288C130.549 422.473 126.23 426.333 122.046 431.905C111.721 445.646 103.984 471.01 102.45 508.863L100.775 511.092L36.3718 450.527L38.0467 448.298H38.0354ZM68.2436 476.706L99.6136 506.204C101.672 469.167 109.572 443.952 120.038 430.025C124.087 424.64 128.542 420.593 133.132 418.252L120.85 406.703L68.238 476.7L68.2436 476.706ZM153.827 466.87C154.013 483.206 149.818 498.59 143.497 518.314C141.641 524.172 135.856 540.92 141.337 546.069C145.983 550.439 153.331 545.938 162.596 534.37C194.203 489.308 186.765 444.917 167.344 426.657C160.205 419.945 149.981 415.083 137.97 418.999C156.303 439.09 153.833 466.876 153.833 466.876L153.827 466.87Z" fill="black" fill-opacity="0.3"/>
<path d="M315.842 554.984L312.357 551.709C323.004 535.528 326.709 521.744 323.472 510.351C320.229 498.957 312.577 487.589 300.515 476.246L280.429 457.356L236.191 516.215L249.634 528.86C257.709 536.456 266.546 537.894 276.132 533.181C279.487 531.481 283.587 527.409 288.42 520.972L289.818 519.117L292.807 521.924L248.574 580.777L245.585 577.97C254.326 566.34 257.924 556.777 256.373 549.293C254.817 541.81 251.772 535.939 247.238 531.674L233.958 519.185L185.118 584.164L209.851 607.424C216.934 614.079 223.418 619.023 229.317 622.242C235.204 625.46 242.569 625.778 251.399 623.2C260.23 620.623 270.217 613.17 281.376 600.843L284.861 604.124L248.151 648.82L151.216 557.667L153.59 554.511L169.194 569.185L264.504 442.377L248.901 427.703L251.411 424.359L345.526 512.86L315.848 554.984H315.842Z" fill="black" fill-opacity="0.3"/>
<path d="M258.285 654.554L274.717 670.006L372.261 540.222L355.829 524.77L357.503 522.541L404.313 566.558L402.638 568.787L386.043 553.178L342.785 610.736L356.065 623.225C358.011 622.522 359.956 621.818 362.099 621.607L439.168 603.128L423.068 587.987L424.743 585.758L461.927 620.723L460.252 622.951L441.497 605.314L373.186 621.569C378.982 622.902 384.306 626.002 389.285 630.684C409.698 649.884 418.771 695.489 384.853 742.5C372.796 757.785 363.233 761.464 353.934 752.723C339.492 739.144 345.255 714.141 352.073 688.858L353.28 684.612C355.056 677.726 356.86 671.183 358.298 663.98C361.902 644.866 362.748 633.934 355.558 626.544C350.799 628.729 346.479 632.589 342.295 638.161C331.97 651.902 324.233 677.266 322.699 715.119L321.024 717.348L256.621 656.783L258.296 654.554H258.285ZM288.498 682.962L319.868 712.46C321.927 675.423 329.827 650.208 340.293 636.281C344.342 630.896 348.797 626.849 353.387 624.508L341.105 612.959L288.493 682.956L288.498 682.962ZM374.082 673.125C374.268 689.462 370.073 704.846 363.751 724.57C361.896 730.428 356.11 747.176 361.592 752.324C366.238 756.695 373.586 752.194 382.851 740.626C414.458 695.563 407.02 651.173 387.599 632.913C380.46 626.201 370.236 621.339 358.225 625.255C376.558 645.346 374.088 673.132 374.088 673.132L374.082 673.125Z" fill="black" fill-opacity="0.3"/>
<path d="M304.857 795.507L301.372 792.232C312.019 776.051 315.724 762.267 312.487 750.874C309.245 739.481 301.592 728.113 289.53 716.769L269.444 697.88L225.206 756.739L238.649 769.383C246.725 776.979 255.561 778.417 265.147 773.704C268.503 772.004 272.602 767.933 277.435 761.495L278.833 759.64L281.822 762.448L237.589 821.301L234.601 818.493C243.341 806.863 246.939 797.3 245.388 789.817C243.832 782.333 240.787 776.462 236.253 772.198L222.973 759.708L174.133 824.688L198.866 847.947C205.949 854.603 212.434 859.546 218.332 862.765C224.219 865.984 231.584 866.301 240.415 863.724C249.245 861.146 259.232 853.694 270.392 841.367L273.877 844.648L237.166 889.343L140.231 798.19L142.605 795.034L158.209 809.708L253.52 682.9L237.916 668.226L240.426 664.883L334.541 753.383L304.863 795.507H304.857Z" fill="black" fill-opacity="0.3"/>
<path d="M-189.618 485.741L-173.186 501.194L-75.6419 371.41L-92.074 355.957L-90.3992 353.729L-43.5896 397.745L-45.2644 399.974L-61.8601 384.366L-105.117 441.924L-91.8372 454.413C-89.8917 453.709 -87.9462 453.006 -85.8034 452.794L-8.73476 434.316L-24.8342 419.174L-23.1594 416.946L14.0244 451.91L12.3496 454.139L-6.40584 436.501L-74.7171 452.757C-68.9202 454.089 -63.5969 457.189 -58.6176 461.871C-38.2043 481.072 -29.1311 526.676 -63.0499 573.687C-75.1061 588.972 -84.67 592.651 -93.9688 583.91C-108.41 570.332 -102.647 545.329 -95.8296 520.046L-94.6228 515.8C-92.8465 508.914 -91.0421 502.37 -89.6041 495.167C-86.0008 476.054 -85.1549 465.121 -92.3447 457.731C-97.104 459.916 -101.423 463.776 -105.608 469.349C-115.933 483.089 -123.669 508.453 -125.203 546.306L-126.878 548.535L-191.281 487.97L-189.607 485.741H-189.618ZM-159.41 514.15L-128.04 543.648C-125.981 506.61 -118.081 481.396 -107.615 467.468C-103.566 462.083 -99.1115 458.036 -94.5214 455.695L-106.803 444.146L-159.415 514.143L-159.41 514.15ZM-73.8261 504.319C-73.64 520.656 -77.8355 536.04 -84.1568 555.763C-86.0121 561.622 -91.7977 578.369 -86.3165 583.518C-81.67 587.889 -74.3223 583.387 -65.0574 571.82C-33.4506 526.757 -40.8885 482.367 -60.3093 464.106C-67.4483 457.395 -77.6719 452.533 -89.683 456.449C-71.3505 476.539 -73.8204 504.325 -73.8204 504.325L-73.8261 504.319Z" fill="black" fill-opacity="0.3"/>
<path d="M88.1889 592.433L84.704 589.158C95.3505 572.977 99.0553 559.193 95.8185 547.8C92.576 536.407 84.9239 525.038 72.862 513.695L52.7758 494.806L8.53753 553.665L21.981 566.309C30.0561 573.905 38.8925 575.343 48.4788 570.63C51.8341 568.93 55.9336 564.859 60.7663 558.421L62.1647 556.566L65.1534 559.374L20.9208 618.227L17.9322 615.419C26.6727 603.789 30.2704 594.226 28.7197 586.743C27.1633 579.259 24.1182 573.388 19.5844 569.123L6.3045 556.634L-42.5352 621.613L-17.8024 644.873C-10.7197 651.529 -4.23485 656.472 1.66358 659.691C7.55074 662.909 14.9153 663.227 23.746 660.649C32.5767 658.072 42.5635 650.62 53.7231 638.292L57.2081 641.574L20.4979 686.269L-76.437 595.116L-74.063 591.96L-58.4598 606.634L36.8511 479.826L21.2479 465.152L23.7573 461.809L117.873 550.309L88.1945 592.433H88.1889Z" fill="black" fill-opacity="0.3"/>
<path d="M30.6369 692.003L47.0691 707.456L144.613 577.672L128.181 562.219L129.856 559.99L176.665 604.007L174.991 606.236L158.395 590.628L115.138 648.185L128.418 660.675C130.363 659.971 132.309 659.267 134.452 659.056L211.52 640.577L195.421 625.436L197.096 623.207L234.279 658.172L232.604 660.401L213.849 642.763L145.538 659.018C151.335 660.351 156.658 663.451 161.637 668.133C182.051 687.334 191.124 732.938 157.205 779.949C145.149 795.234 135.585 798.913 126.286 790.172C111.845 776.593 117.608 751.59 124.425 726.307L125.632 722.061C127.408 715.176 129.213 708.632 130.651 701.429C134.254 682.316 135.1 671.383 127.91 663.993C123.151 666.178 118.831 670.038 114.647 675.61C104.322 689.351 96.5854 714.715 95.0516 752.568L93.3768 754.797L28.9734 694.232L30.6482 692.003H30.6369ZM60.8452 720.412L92.2151 749.91C94.2734 712.872 102.174 687.657 112.64 673.73C116.689 668.345 121.143 664.298 125.734 661.957L113.452 650.408L60.8396 720.405L60.8452 720.412ZM146.429 710.575C146.615 726.911 142.419 742.295 136.098 762.019C134.243 767.877 128.457 784.625 133.938 789.773C138.585 794.144 145.933 789.643 155.198 778.075C186.804 733.012 179.366 688.622 159.946 670.362C152.807 663.65 142.583 658.788 130.572 662.704C148.904 682.795 146.434 710.581 146.434 710.581L146.429 710.575Z" fill="black" fill-opacity="0.3"/>
<path d="M-176.225 747.873L-159.793 763.326L-62.2493 633.542L-78.6814 618.089L-77.0066 615.86L-30.197 659.877L-31.8719 662.106L-48.4675 646.498L-91.7245 704.056L-78.4446 716.544C-76.4991 715.841 -74.5536 715.138 -72.4108 714.926L4.65782 696.448L-11.4416 681.306L-9.7668 679.078L27.4169 714.042L25.7422 716.271L6.98674 698.633L-61.3245 714.889C-55.5276 716.221 -50.2043 719.321 -45.225 724.003C-24.8117 743.204 -15.7385 788.808 -49.6573 835.819C-61.7136 851.104 -71.2774 854.783 -80.5762 846.042C-95.0177 832.463 -89.2546 807.461 -82.437 782.178L-81.2302 777.931C-79.4539 771.046 -77.6495 764.502 -76.2116 757.299C-72.6082 738.186 -71.7624 727.253 -78.9521 719.863C-83.7115 722.048 -88.0309 725.908 -92.2151 731.48C-102.54 745.221 -110.277 770.585 -111.811 808.438L-113.486 810.667L-177.889 750.102L-176.214 747.873H-176.225ZM-146.017 776.275L-114.647 805.773C-112.589 768.736 -104.689 743.521 -94.2226 729.594C-90.1738 724.209 -85.719 720.162 -81.1288 717.821L-93.4106 706.272L-146.023 776.269L-146.017 776.275ZM-60.4335 766.445C-60.2474 782.781 -64.4429 798.165 -70.7642 817.889C-72.6195 823.747 -78.4051 840.495 -72.924 845.644C-68.2774 850.014 -60.9298 845.513 -51.6648 833.945C-20.0581 788.883 -27.4959 744.492 -46.9167 726.232C-54.0558 719.52 -64.2793 714.658 -76.2905 718.574C-57.958 738.665 -60.4278 766.451 -60.4278 766.451L-60.4335 766.445Z" fill="black" fill-opacity="0.3"/>
<path d="M768.358 727.409L764.873 724.134C775.519 707.953 779.224 694.169 775.987 682.776C772.745 671.382 765.093 660.014 753.031 648.67L732.945 629.781L688.706 688.64L702.15 701.285C710.225 708.881 719.061 710.319 728.648 705.606C732.003 703.906 736.102 699.834 740.935 693.397L742.333 691.542L745.322 694.349L701.09 753.202L698.101 750.394C706.841 738.764 710.439 729.202 708.888 721.718C707.332 714.235 704.287 708.364 699.753 704.099L686.473 691.61L637.634 756.589L662.366 779.849C669.449 786.504 675.934 791.447 681.832 794.666C687.719 797.885 695.084 798.202 703.915 795.625C712.745 793.048 722.732 785.595 733.892 773.268L737.377 776.549L700.667 821.245L603.732 730.092L606.106 726.936L621.709 741.61L717.02 614.802L701.417 600.128L703.926 596.784L798.041 685.285L768.363 727.409H768.358Z" fill="black" fill-opacity="0.3"/>
<path d="M992.797 685.751L989.312 682.477C999.958 666.296 1003.66 652.511 1000.43 641.118C997.184 629.725 989.532 618.357 977.47 607.013L957.384 588.124L913.145 646.983L926.589 659.628C934.664 667.223 943.5 668.661 953.087 663.948C956.442 662.249 960.542 658.177 965.374 651.74L966.773 649.884L969.761 652.692L925.529 711.545L922.54 708.737C931.281 697.107 934.878 687.544 933.328 680.061C931.771 672.577 928.726 666.706 924.192 662.442L910.912 649.953L862.073 714.932L886.806 738.191C893.888 744.847 900.373 749.79 906.271 753.009C912.159 756.228 919.523 756.545 928.354 753.968C937.185 751.39 947.171 743.938 958.331 731.611L961.816 734.892L925.106 779.587L828.171 688.435L830.545 685.278L846.148 699.952L941.459 573.144L925.856 558.47L928.365 555.127L1022.48 643.627L992.802 685.751H992.797Z" fill="black" fill-opacity="0.3"/>
<path d="M935.245 785.316L951.677 800.768L1049.22 670.984L1032.79 655.532L1034.46 653.303L1081.27 697.319L1079.6 699.548L1063 683.94L1019.75 741.498L1033.03 753.987C1034.97 753.283 1036.92 752.58 1039.06 752.368L1116.13 733.89L1100.03 718.749L1101.7 716.52L1138.89 751.484L1137.21 753.713L1118.46 736.075L1050.15 752.331C1055.94 753.663 1061.27 756.764 1066.24 761.446C1086.66 780.646 1095.73 826.25 1061.81 873.262C1049.76 888.546 1040.19 892.226 1030.89 883.484C1016.45 869.906 1022.22 844.903 1029.03 819.62L1030.24 815.374C1032.02 808.488 1033.82 801.945 1035.26 794.741C1038.86 775.628 1039.71 764.696 1032.52 757.305C1027.76 759.491 1023.44 763.351 1019.25 768.923C1008.93 782.663 1001.19 808.027 999.659 845.88L997.985 848.109L933.581 787.544L935.256 785.316H935.245ZM965.453 813.724L996.823 843.222C998.881 806.185 1006.78 780.97 1017.25 767.043C1021.3 761.657 1025.75 757.61 1030.34 755.27L1018.06 743.721L965.447 813.718L965.453 813.724ZM1051.04 803.893C1051.22 820.23 1047.03 835.614 1040.71 855.337C1038.85 861.196 1033.06 877.944 1038.55 883.092C1043.19 887.463 1050.54 882.962 1059.81 871.394C1091.41 826.331 1083.97 781.941 1064.55 763.681C1057.41 756.969 1047.19 752.107 1035.18 756.023C1053.51 776.114 1051.04 803.9 1051.04 803.9L1051.04 803.893Z" fill="black" fill-opacity="0.3"/>
<path d="M771.831 -19.2879L768.346 -22.5625C778.993 -38.7435 782.698 -52.5276 779.461 -63.9209C776.218 -75.3142 768.566 -86.6826 756.504 -98.0261L736.418 -116.915L692.18 -58.056L705.623 -45.4115C713.698 -37.8159 722.535 -36.3777 732.121 -41.0906C735.476 -42.7903 739.576 -46.862 744.409 -53.2996L745.807 -55.1548L748.796 -52.347L704.563 6.50591L701.575 3.69804C710.315 -7.93182 713.913 -17.4948 712.362 -24.9782C710.806 -32.4617 707.761 -38.3327 703.227 -42.5974L689.947 -55.0864L641.107 9.89272L665.84 33.1525C672.923 39.808 679.407 44.7511 685.306 47.9699C691.193 51.1887 698.558 51.5062 707.388 48.9287C716.219 46.3512 726.206 38.8989 737.365 26.5718L740.85 29.8528L704.14 74.5481L607.205 -16.6045L609.579 -19.7609L625.183 -5.08669L720.494 -131.895L704.89 -146.569L707.4 -149.912L801.515 -61.4118L771.837 -19.2879H771.831Z" fill="black" fill-opacity="0.3"/>
<path d="M714.274 80.2823L730.706 95.7347L828.25 -34.0491L811.818 -49.5016L813.492 -51.7305L860.302 -7.71381L858.627 -5.48491L842.032 -21.0931L798.775 36.4647L812.054 48.9538C814 48.2503 815.945 47.5467 818.088 47.335L895.157 28.8568L879.057 13.7155L880.732 11.4867L917.916 46.451L916.241 48.6799L897.486 31.0421L829.175 47.2978C834.971 48.6301 840.295 51.7305 845.274 56.4123C865.687 75.6128 874.76 121.217 840.842 168.229C828.785 183.513 819.222 187.192 809.923 178.451C795.481 164.873 801.244 139.87 808.062 114.587L809.269 110.341C811.045 103.455 812.85 96.9114 814.288 89.7081C817.891 70.5948 818.737 59.6623 811.547 52.2722C806.788 54.4575 802.468 58.3175 798.284 63.8896C787.959 77.63 780.222 102.994 778.688 140.847L777.013 143.076L712.61 82.511L714.285 80.2823H714.274ZM744.488 108.691L775.857 138.189C777.916 101.151 785.816 75.9366 796.282 62.0094C800.331 56.624 804.786 52.5773 809.376 50.2364L797.094 38.6874L744.482 108.684L744.488 108.691ZM830.071 98.8539C830.257 115.19 826.062 130.575 819.74 150.298C817.885 156.157 812.099 172.904 817.581 178.053C822.227 182.423 829.575 177.922 838.84 166.355C870.447 121.292 863.009 76.9016 843.588 58.6413C836.449 51.9298 826.225 47.0674 814.214 50.9834C832.547 71.0742 830.077 98.8601 830.077 98.8601L830.071 98.8539Z" fill="black" fill-opacity="0.3"/>
<path d="M988.584 186.732L985.099 183.457C995.746 167.276 999.451 153.492 996.214 142.099C992.972 130.706 985.319 119.337 973.258 107.994L953.171 89.1044L908.933 147.963L922.377 160.608C930.452 168.204 939.288 169.642 948.874 164.929C952.23 163.229 956.329 159.157 961.162 152.72L962.56 150.865L965.549 153.673L921.316 212.525L918.328 209.718C927.068 198.088 930.666 188.525 929.115 181.041C927.559 173.558 924.514 167.687 919.98 163.422L906.7 150.933L857.86 215.912L882.593 239.172C889.676 245.827 896.161 250.771 902.059 253.99C907.946 257.208 915.311 257.526 924.141 254.948C932.972 252.371 942.959 244.918 954.119 232.591L957.604 235.872L920.893 280.568L823.958 189.415L826.333 186.259L841.936 200.933L937.247 74.125L921.643 59.4508L924.153 56.1074L1018.27 144.608L988.59 186.732H988.584Z" fill="black" fill-opacity="0.3"/>
<path d="M931.027 286.294L947.459 301.747L1045 171.963L1028.57 156.51L1030.25 154.281L1077.06 198.298L1075.38 200.527L1058.78 184.919L1015.53 242.477L1028.81 254.966C1030.75 254.262 1032.7 253.559 1034.84 253.347L1111.91 234.869L1095.81 219.727L1097.49 217.498L1134.67 252.463L1132.99 254.692L1114.24 237.054L1045.93 253.31C1051.72 254.642 1057.05 257.742 1062.03 262.424C1082.44 281.625 1091.51 327.229 1057.59 374.24C1045.54 389.525 1035.97 393.204 1026.68 384.463C1012.23 370.884 1018 345.882 1024.82 320.598L1026.02 316.352C1027.8 309.467 1029.6 302.923 1031.04 295.72C1034.64 276.607 1035.49 265.674 1028.3 258.284C1023.54 260.469 1019.22 264.329 1015.04 269.901C1004.71 283.642 996.975 309.006 995.442 346.859L993.767 349.088L929.363 288.523L931.038 286.294H931.027ZM961.241 314.703L992.611 344.201C994.669 307.163 1002.57 281.948 1013.04 268.021C1017.08 262.636 1021.54 258.589 1026.13 256.248L1013.85 244.699L961.235 314.696L961.241 314.703ZM1046.82 304.872C1047.01 321.209 1042.81 336.593 1036.49 356.316C1034.64 362.175 1028.85 378.922 1034.33 384.071C1038.98 388.441 1046.33 383.94 1055.59 372.372C1087.2 327.31 1079.76 282.92 1060.34 264.659C1053.2 257.948 1042.98 253.085 1030.97 257.001C1049.3 277.092 1046.83 304.878 1046.83 304.878L1046.82 304.872Z" fill="black" fill-opacity="0.3"/>
<path d="M998.633 -57.9811L995.148 -61.2559C1005.79 -77.4368 1009.5 -91.2208 1006.26 -102.614C1003.02 -114.007 995.368 -125.376 983.306 -136.719L963.22 -155.609L918.982 -96.7494L932.425 -84.1047C940.5 -76.5091 949.337 -75.071 958.923 -79.784C962.278 -81.4836 966.378 -85.5552 971.21 -91.9928L972.609 -93.8481L975.598 -91.0403L931.365 -32.1875L928.376 -34.9953C937.117 -46.6252 940.715 -56.188 939.164 -63.6714C937.608 -71.1549 934.563 -77.0259 930.029 -81.2906L916.749 -93.7797L867.909 -28.8005L892.642 -5.54083C899.725 1.11459 906.209 6.05794 912.108 9.2767C917.995 12.4955 925.36 12.813 934.19 10.2355C943.021 7.658 953.008 0.205582 964.167 -12.1216L967.652 -8.84056L930.942 35.8548L834.007 -55.2977L836.381 -58.4542L851.984 -43.7799L947.295 -170.588L931.692 -185.262L934.202 -188.605L1028.32 -100.105L998.639 -57.9811H998.633Z" fill="black" fill-opacity="0.3"/>
<path d="M941.081 41.5887L957.513 57.0413L1055.06 -72.7425L1038.62 -88.1951L1040.3 -90.4238L1087.11 -46.4072L1085.43 -44.1784L1068.84 -59.7865L1025.58 -2.22864L1038.86 10.2604C1040.81 9.55692 1042.75 8.85333 1044.9 8.64165L1121.96 -9.83659L1105.86 -24.9779L1107.54 -27.2068L1144.72 7.75764L1143.05 9.98638L1124.29 -7.65132L1055.98 8.60426C1061.78 9.93659 1067.1 13.0371 1072.08 17.719C1092.49 36.9195 1101.57 82.5237 1067.65 129.535C1055.59 144.819 1046.03 148.499 1036.73 139.758C1022.29 126.179 1028.05 101.176 1034.87 75.8932L1036.08 71.6471C1037.85 64.7614 1039.66 58.218 1041.09 51.0148C1044.7 31.9014 1045.54 20.9688 1038.35 13.5787C1033.59 15.764 1029.28 19.6241 1025.09 25.1962C1014.77 38.9366 1007.03 64.3006 1005.5 102.154L1003.82 104.383L939.417 43.8177L941.092 41.5887H941.081ZM971.289 69.9911L1002.66 99.4891C1004.72 62.4515 1012.62 37.237 1023.08 23.3098C1027.13 17.9244 1031.59 13.8775 1036.18 11.5366L1023.9 -0.0121994L971.284 69.9849L971.289 69.9911ZM1056.87 60.1605C1057.06 76.4971 1052.86 91.8812 1046.54 111.605C1044.69 117.463 1038.9 134.211 1044.38 139.359C1049.03 143.73 1056.38 139.229 1065.64 127.661C1097.25 82.5984 1089.81 38.2081 1070.39 19.9477C1063.25 13.2363 1053.03 8.37402 1041.02 12.2901C1059.35 32.3809 1056.88 60.1667 1056.88 60.1667L1056.87 60.1605Z" fill="black" fill-opacity="0.3"/>
<path d="M1159.79 -1.58784L1176.22 13.8646L1273.76 -115.919L1257.33 -131.372L1259 -133.601L1305.81 -89.5839L1304.14 -87.355L1287.54 -102.963L1244.29 -45.4054L1257.57 -32.9163C1259.51 -33.6198 1261.46 -34.3234 1263.6 -34.5351L1340.67 -53.0133L1324.57 -68.1546L1326.24 -70.3834L1363.43 -35.4191L1361.75 -33.1902L1343 -50.8281L1274.69 -34.5723C1280.48 -33.24 1285.81 -30.1396 1290.79 -25.4578C1311.2 -6.25728 1320.27 39.3471 1286.35 86.3584C1274.3 101.643 1264.73 105.322 1255.43 96.5812C1240.99 83.0026 1246.76 57.9996 1253.57 32.7164L1254.78 28.4705C1256.56 21.5848 1258.36 15.0413 1259.8 7.83801C1263.4 -11.2753 1264.25 -22.2078 1257.06 -29.5979C1252.3 -27.4126 1247.98 -23.5527 1243.8 -17.9805C1233.47 -4.2401 1225.73 21.124 1224.2 58.9772L1222.53 61.2059L1158.12 0.6409L1159.8 -1.58784H1159.79ZM1189.99 26.8206L1221.36 56.3187C1223.42 19.2812 1231.32 -5.93354 1241.79 -19.8607C1245.84 -25.2461 1250.29 -29.2928 1254.88 -31.6338L1242.6 -43.1827L1189.99 26.8144L1189.99 26.8206ZM1275.58 16.99C1275.76 33.3266 1271.57 48.7107 1265.25 68.4342C1263.39 74.2927 1257.61 91.0402 1263.09 96.189C1267.73 100.56 1275.08 96.0582 1284.35 84.4906C1315.95 39.428 1308.52 -4.96225 1289.09 -23.2226C1281.96 -29.9341 1271.73 -34.7965 1259.72 -30.8804C1278.05 -10.7897 1275.58 16.9962 1275.58 16.9962L1275.58 16.99Z" fill="black" fill-opacity="0.3"/>
<path d="M1436.54 103.399L1433.06 100.124C1443.7 83.9431 1447.41 70.1591 1444.17 58.7658C1440.93 47.3725 1433.28 36.0041 1421.22 24.6606L1401.13 5.77137L1356.89 64.6305L1370.34 77.2752C1378.41 84.8707 1387.25 86.3089 1396.83 81.5959C1400.19 79.8962 1404.29 75.8246 1409.12 69.3871L1410.52 67.5318L1413.51 70.3397L1369.28 129.193L1366.29 126.385C1375.03 114.755 1378.62 105.192 1377.07 97.7085C1375.52 90.225 1372.47 84.354 1367.94 80.0893L1354.66 67.6002L1305.82 132.579L1330.55 155.839C1337.63 162.494 1344.12 167.438 1350.02 170.657C1355.91 173.875 1363.27 174.193 1372.1 171.615C1380.93 169.038 1390.92 161.586 1402.08 149.258L1405.56 152.539L1368.85 197.235L1271.92 106.082L1274.29 102.926L1289.89 117.6L1385.21 -9.20789L1369.6 -23.8822L1372.11 -27.2256L1466.23 61.2748L1436.55 103.399H1436.54Z" fill="black" fill-opacity="0.3"/>
<path d="M1378.99 202.963L1395.42 218.415L1492.96 88.6315L1476.53 73.1789L1478.2 70.9502L1525.01 114.967L1523.34 117.196L1506.74 101.588L1463.49 159.145L1476.77 171.634C1478.71 170.931 1480.66 170.227 1482.8 170.016L1559.87 151.537L1543.77 136.396L1545.44 134.167L1582.63 169.132L1580.95 171.361L1562.2 153.723L1493.89 169.978C1499.68 171.311 1505.01 174.411 1509.99 179.093C1530.4 198.294 1539.47 243.898 1505.55 290.909C1493.5 306.194 1483.93 309.873 1474.63 301.132C1460.19 287.553 1465.96 262.55 1472.77 237.267L1473.98 233.021C1475.76 226.135 1477.56 219.592 1479 212.389C1482.6 193.275 1483.45 182.343 1476.26 174.953C1471.5 177.138 1467.18 180.998 1463 186.57C1452.67 200.311 1444.93 225.675 1443.4 263.528L1441.73 265.757L1377.32 205.192L1379 202.963H1378.99ZM1409.2 231.371L1440.57 260.869C1442.63 223.832 1450.53 198.617 1460.99 184.69C1465.04 179.305 1469.5 175.258 1474.09 172.917L1461.81 161.368L1409.19 231.365L1409.2 231.371ZM1494.78 221.541C1494.97 237.877 1490.77 253.261 1484.45 272.985C1482.6 278.843 1476.81 295.591 1482.29 300.74C1486.94 305.11 1494.29 300.609 1503.55 289.041C1535.16 243.979 1527.72 199.589 1508.3 181.328C1501.16 174.617 1490.94 169.754 1478.93 173.67C1497.26 193.761 1494.79 221.547 1494.79 221.547L1494.78 221.541Z" fill="black" fill-opacity="0.3"/>
<path d="M1204.97 146.569L1201.49 143.294C1212.13 127.113 1215.84 113.329 1212.6 101.936C1209.36 90.5424 1201.71 79.174 1189.64 67.8305L1169.56 48.9413L1125.32 107.8L1138.76 120.445C1146.84 128.041 1155.67 129.479 1165.26 124.766C1168.62 123.066 1172.72 118.994 1177.55 112.557L1178.95 110.702L1181.94 113.509L1137.7 172.362L1134.71 169.554C1143.45 157.925 1147.05 148.362 1145.5 140.878C1143.95 133.395 1140.9 127.524 1136.37 123.259L1123.09 110.77L1074.25 175.749L1098.98 199.009C1106.06 205.664 1112.55 210.608 1118.45 213.827C1124.33 217.045 1131.7 217.363 1140.53 214.785C1149.36 212.208 1159.35 204.755 1170.51 192.428L1173.99 195.709L1137.28 240.405L1040.35 149.252L1042.72 146.096L1058.32 160.77L1153.63 33.9619L1138.03 19.2877L1140.54 15.9443L1234.66 104.445L1204.98 146.569H1204.97Z" fill="black" fill-opacity="0.3"/>
<path d="M1147.42 246.132L1163.85 261.584L1261.4 131.801L1244.96 116.348L1246.64 114.119L1293.45 158.136L1291.77 160.365L1275.18 144.757L1231.92 202.314L1245.2 214.803C1247.15 214.1 1249.09 213.396 1251.23 213.185L1328.3 194.707L1312.2 179.565L1313.88 177.336L1351.06 212.301L1349.39 214.53L1330.63 196.892L1262.32 213.147C1268.12 214.48 1273.44 217.58 1278.42 222.262C1298.83 241.463 1307.91 287.067 1273.99 334.078C1261.93 349.363 1252.37 353.042 1243.07 344.301C1228.63 330.722 1234.39 305.719 1241.21 280.436L1242.41 276.19C1244.19 269.304 1245.99 262.761 1247.43 255.558C1251.04 236.445 1251.88 225.512 1244.69 218.122C1239.93 220.307 1235.61 224.167 1231.43 229.739C1221.1 243.48 1213.37 268.844 1211.83 306.697L1210.16 308.926L1145.76 248.361L1147.43 246.132H1147.42ZM1177.63 274.54L1209 304.038C1211.06 267.001 1218.96 241.786 1229.42 227.859C1233.47 222.474 1237.93 218.427 1242.52 216.086L1230.23 204.537L1177.62 274.534L1177.63 274.54ZM1263.21 264.71C1263.4 281.046 1259.2 296.43 1252.88 316.154C1251.02 322.012 1245.24 338.76 1250.72 343.909C1255.37 348.279 1262.71 343.778 1271.98 332.21C1303.59 287.148 1296.15 242.757 1276.73 224.497C1269.59 217.786 1259.37 212.923 1247.35 216.839C1265.69 236.93 1263.22 264.716 1263.22 264.716L1263.21 264.71Z" fill="black" fill-opacity="0.3"/>
</g>
</g>
<defs>
<clipPath id="clip0_410_1075">
<rect width="1440" height="670" rx="56" fill="white"/>
</clipPath>
</defs>
</svg>
