<svg width="25" height="24" viewBox="0 0 25 24" fill="none" xmlns="http://www.w3.org/2000/svg">
<path d="M21.2765 16.835C20.7284 13.5635 19.162 10.5484 16.8005 8.219C16.2835 7.716 16.0255 7.465 15.4545 7.233C14.8835 7 14.3925 7 13.4115 7H11.2555C10.2745 7 9.78348 7 9.21248 7.233C8.64248 7.465 8.38248 7.716 7.86648 8.219C5.50493 10.5484 3.93858 13.5635 3.39048 16.835C2.90348 19.773 5.61348 22 8.64148 22H16.0255C19.0545 22 21.7655 19.773 21.2755 16.835" stroke="url(#paint0_linear_410_1778)" stroke-width="1.5" stroke-linecap="round" stroke-linejoin="round"/>
<path d="M13.9604 12.919C13.7444 12.12 12.6434 11.4 11.3224 11.939C10.0014 12.478 9.79243 14.211 11.7894 14.396C12.6934 14.479 13.2814 14.299 13.8204 14.808C14.3604 15.316 14.4604 16.731 13.0814 17.112C11.7044 17.493 10.3394 16.898 10.1914 16.052M12.1754 10.992V11.753M12.1754 17.229V17.993M7.59043 4.443C7.38343 4.143 7.08443 3.735 7.70243 3.643C8.33743 3.547 8.99643 3.981 9.64243 3.973C10.2254 3.964 10.5224 3.705 10.8424 3.335C11.1784 2.946 11.6984 2 12.3334 2C12.9684 2 13.4884 2.946 13.8244 3.335C14.1444 3.705 14.4414 3.965 15.0244 3.972C15.6704 3.982 16.3294 3.547 16.9644 3.642C17.5824 3.735 17.2834 4.142 17.0764 4.442L16.1444 5.801C15.7444 6.381 15.5454 6.671 15.1274 6.836C14.7094 7.001 14.1704 7 13.0914 7H11.5754C10.4954 7 9.95643 7 9.53943 6.836C9.12243 6.672 8.92243 6.38 8.52243 5.8L7.59043 4.443Z" stroke="url(#paint1_linear_410_1778)" stroke-width="1.5" stroke-linecap="round" stroke-linejoin="round"/>
<defs>
<linearGradient id="paint0_linear_410_1778" x1="3.3335" y1="13.1714" x2="21.3326" y2="13.0529" gradientUnits="userSpaceOnUse">
<stop offset="0.05" stop-color="#CF9F66"/>
<stop offset="0.466346" stop-color="#FFDC9C"/>
<stop offset="0.985577" stop-color="#946331"/>
</linearGradient>
<linearGradient id="paint1_linear_410_1778" x1="7.33325" y1="8.57998" x2="17.3337" y2="8.54565" gradientUnits="userSpaceOnUse">
<stop offset="0.05" stop-color="#CF9F66"/>
<stop offset="0.466346" stop-color="#FFDC9C"/>
<stop offset="0.985577" stop-color="#946331"/>
</linearGradient>
</defs>
</svg>
