<svg width="25" height="24" viewBox="0 0 25 24" fill="none" xmlns="http://www.w3.org/2000/svg">
<path d="M2.66675 10V8C2.66675 7.057 2.66675 6.586 2.95975 6.293C3.25275 6 3.72375 6 4.66675 6H7.66675C11.4377 6 13.3237 6 14.4947 7.172C15.6657 8.344 15.6667 10.229 15.6667 14V16C15.6667 16.943 15.6667 17.414 15.3737 17.707C15.0807 18 14.6097 18 13.6667 18H10.6667C6.89575 18 5.00975 18 3.83875 16.828C2.66775 15.656 2.66675 13.771 2.66675 10ZM18.5667 9.07L19.2667 8.395C20.7167 6.997 21.4407 6.298 22.0537 6.551C22.6667 6.804 22.6667 7.803 22.6667 9.8V14.2C22.6667 16.197 22.6667 17.196 22.0537 17.449C21.4407 17.702 20.7157 17.003 19.2667 15.605L18.5667 14.93C17.6787 14.074 17.6667 14.045 17.6667 12.823V11.177C17.6667 9.955 17.6787 9.927 18.5667 9.07Z" stroke="url(#paint0_linear_410_1768)" stroke-width="1.5" stroke-linecap="round" stroke-linejoin="round"/>
<defs>
<linearGradient id="paint0_linear_410_1768" x1="2.66675" y1="10.9371" x2="22.6654" y2="10.7542" gradientUnits="userSpaceOnUse">
<stop offset="0.05" stop-color="#CF9F66"/>
<stop offset="0.466346" stop-color="#FFDC9C"/>
<stop offset="0.985577" stop-color="#946331"/>
</linearGradient>
</defs>
</svg>
