<svg width="16" height="16" viewBox="0 0 16 16" fill="none" xmlns="http://www.w3.org/2000/svg">
<path d="M2.45808 4.85495C2.39444 4.79481 2.31957 4.74779 2.23775 4.71658C2.15593 4.68537 2.06876 4.67058 1.98123 4.67306C1.89369 4.67553 1.8075 4.69523 1.72758 4.73101C1.64766 4.7668 1.57556 4.81797 1.51542 4.88162C1.45527 4.94527 1.40825 5.02014 1.37704 5.10196C1.34583 5.18378 1.33104 5.27094 1.33352 5.35848C1.33599 5.44601 1.35569 5.5322 1.39147 5.61213C1.42726 5.69205 1.47844 5.76414 1.54208 5.82429L7.54208 11.491C7.66586 11.608 7.82974 11.6732 8.00008 11.6732C8.17043 11.6732 8.33431 11.608 8.45809 11.491L14.4588 5.82429C14.5238 5.76454 14.5763 5.69246 14.6133 5.61225C14.6502 5.53203 14.6709 5.44527 14.674 5.357C14.6771 5.26874 14.6627 5.18074 14.6315 5.0981C14.6004 5.01546 14.5531 4.93984 14.4925 4.87562C14.4318 4.81141 14.359 4.75988 14.2783 4.72404C14.1976 4.6882 14.1106 4.66875 14.0223 4.66682C13.934 4.6649 13.8462 4.68054 13.764 4.71284C13.6818 4.74513 13.6068 4.79344 13.5434 4.85495L8.00008 10.0896L2.45808 4.85495Z" fill="white"/>
</svg>
