<svg width="16" height="16" viewBox="0 0 16 16" fill="none" xmlns="http://www.w3.org/2000/svg">
<path d="M13.5417 11.145C13.6053 11.2052 13.6802 11.2522 13.762 11.2834C13.8438 11.3146 13.931 11.3294 14.0185 11.3269C14.1061 11.3245 14.1923 11.3048 14.2722 11.269C14.3521 11.2332 14.4242 11.182 14.4843 11.1184C14.5445 11.0547 14.5915 10.9799 14.6227 10.898C14.6539 10.8162 14.6687 10.7291 14.6662 10.6415C14.6638 10.554 14.6441 10.4678 14.6083 10.3879C14.5725 10.3079 14.5213 10.2359 14.4577 10.1757L8.45767 4.50904C8.33389 4.39202 8.17001 4.32681 7.99967 4.32681C7.82933 4.32681 7.66545 4.39202 7.54167 4.50904L1.541 10.1757C1.47596 10.2355 1.42344 10.3075 1.38649 10.3878C1.34954 10.468 1.3289 10.5547 1.32576 10.643C1.32263 10.7313 1.33706 10.8193 1.36823 10.9019C1.39939 10.9845 1.44666 11.0602 1.5073 11.1244C1.56793 11.1886 1.64073 11.2401 1.72144 11.276C1.80216 11.3118 1.8892 11.3312 1.9775 11.3332C2.06579 11.3351 2.15359 11.3195 2.2358 11.2872C2.318 11.2549 2.39296 11.2066 2.45634 11.145L7.99967 5.91037L13.5417 11.145Z" fill="url(#paint0_linear_603_1590)"/>
<defs>
<linearGradient id="paint0_linear_603_1590" x1="9.17757" y1="4.32681" x2="9.19777" y2="11.3334" gradientUnits="userSpaceOnUse">
<stop offset="0.05" stop-color="#CF9F66"/>
<stop offset="0.466346" stop-color="#FFDC9C"/>
<stop offset="0.985577" stop-color="#946331"/>
</linearGradient>
</defs>
</svg>
