<svg width="15" height="8" viewBox="0 0 15 8" fill="none" xmlns="http://www.w3.org/2000/svg">
<path d="M1.95833 0.854959C1.89468 0.794813 1.81981 0.747793 1.73799 0.716583C1.65617 0.685373 1.56901 0.670583 1.48147 0.673059C1.39394 0.675536 1.30775 0.695229 1.22782 0.731015C1.1479 0.7668 1.07581 0.817978 1.01566 0.881625C0.955517 0.945272 0.908497 1.02014 0.877286 1.10196C0.846076 1.18378 0.831287 1.27095 0.833763 1.35848C0.836239 1.44602 0.855932 1.53221 0.891718 1.61213C0.927504 1.69205 0.978681 1.76415 1.04233 1.82429L7.04233 7.49096C7.16611 7.60798 7.32999 7.67319 7.50033 7.67319C7.67067 7.67319 7.83455 7.60798 7.95833 7.49096L13.959 1.82429C14.024 1.76454 14.0766 1.69247 14.1135 1.61225C14.1505 1.53203 14.1711 1.44527 14.1742 1.35701C14.1774 1.26875 14.1629 1.18074 14.1318 1.0981C14.1006 1.01546 14.0533 0.939841 13.9927 0.875628C13.9321 0.811414 13.8593 0.759888 13.7786 0.724044C13.6978 0.6882 13.6108 0.668752 13.5225 0.666829C13.4342 0.664906 13.3464 0.680546 13.2642 0.712842C13.182 0.745138 13.107 0.793446 13.0437 0.854959L7.50033 6.08963L1.95833 0.854959Z" fill="white"/>
</svg>
