<svg width="1027" height="780" viewBox="0 0 1027 780" fill="none" xmlns="http://www.w3.org/2000/svg">
<path d="M646.174 194.632C782.992 287.45 891.964 393.394 957.552 489.631C990.346 537.751 1012.28 583.422 1021.44 623.796C1030.59 664.168 1026.97 699.193 1008.72 726.095C990.466 752.996 959.263 769.313 918.365 775.729C877.466 782.144 826.922 778.647 770.088 765.963C656.422 740.594 517.701 678.502 380.883 585.684C244.065 492.867 135.093 386.923 69.5051 290.685C36.7103 242.565 14.7776 196.893 5.62038 156.52C-3.53653 116.147 0.090271 81.1217 18.3402 54.2203C36.5902 27.3191 67.7945 11.0019 108.692 4.58677C149.591 -1.82844 200.135 1.66916 256.969 14.3537C370.635 39.7222 509.356 101.814 646.174 194.632Z" stroke="white"/>
</svg>
