<svg width="761" height="556" viewBox="0 0 761 556" fill="none" xmlns="http://www.w3.org/2000/svg">
<path d="M287.562 132.872C389.224 67.603 491.702 24.818 575.191 8.39339C616.937 0.180811 653.91 -1.43656 683.648 4.00345C713.385 9.44327 735.839 21.9285 748.646 41.8778C761.454 61.8269 763.46 87.4397 756.028 116.742C748.596 146.046 731.737 178.991 706.893 213.53C657.207 282.606 575.649 357.976 473.987 423.245C372.326 488.514 269.847 531.299 186.359 547.723C144.613 555.936 107.64 557.552 77.9024 552.112C48.1656 546.672 25.7113 534.188 12.9034 514.239C0.0955956 494.29 -1.90959 468.676 5.52198 439.373C12.9538 410.07 29.8132 377.126 54.6568 342.587C104.342 273.511 185.901 198.141 287.562 132.872Z" stroke="white"/>
</svg>
