<svg width="1440" height="1375" viewBox="0 0 1440 1375" fill="none" xmlns="http://www.w3.org/2000/svg">
<path d="M1328.17 336.632C1464.99 429.45 1573.96 535.394 1639.55 631.631C1672.35 679.751 1694.28 725.422 1703.44 765.796C1712.59 806.168 1708.97 841.193 1690.72 868.095C1672.47 894.996 1641.26 911.313 1600.37 917.729C1559.47 924.144 1508.92 920.647 1452.09 907.963C1338.42 882.594 1199.7 820.502 1062.88 727.684C926.065 634.867 817.093 528.923 751.505 432.685C718.71 384.565 696.778 338.893 687.62 298.52C678.463 258.147 682.09 223.122 700.34 196.22C718.59 169.319 749.794 153.002 790.692 146.587C831.591 140.172 882.135 143.669 938.969 156.354C1052.63 181.722 1191.36 243.814 1328.17 336.632Z" stroke="white"/>
<path d="M9.56237 846.871C111.224 781.603 213.702 738.817 297.191 722.393C338.937 714.18 375.91 712.563 405.648 718.003C435.385 723.443 457.839 735.928 470.646 755.877C483.454 775.826 485.46 801.439 478.028 830.742C470.596 860.045 453.737 892.99 428.893 927.53C379.207 996.606 297.649 1071.98 195.987 1137.24C94.3257 1202.51 -8.15255 1245.3 -91.6415 1261.72C-133.387 1269.94 -170.36 1271.55 -200.098 1266.11C-229.834 1260.67 -252.289 1248.19 -265.097 1228.24C-277.904 1208.29 -279.91 1182.68 -272.478 1153.37C-265.046 1124.07 -248.187 1091.13 -223.343 1056.59C-173.658 987.51 -92.0994 912.14 9.56237 846.871Z" stroke="white"/>
</svg>
