<svg width="375" height="911" viewBox="0 0 375 911" fill="none" xmlns="http://www.w3.org/2000/svg">
<path d="M430.319 134.026C484.667 170.895 527.942 212.972 553.98 251.178C567 270.282 575.695 288.397 579.323 304.392C582.95 320.385 581.502 334.21 574.312 344.809C567.122 355.407 554.811 361.864 538.609 364.405C522.406 366.947 502.361 365.563 479.797 360.527C434.672 350.456 379.579 325.8 325.231 288.93C270.883 252.06 227.608 209.984 201.57 171.778C188.55 152.673 179.855 134.559 176.227 118.564C172.6 102.57 174.048 88.745 181.238 78.1463C188.429 67.5477 200.739 61.0919 216.941 58.5505C233.144 56.009 253.189 57.3925 275.753 62.4284C320.878 72.4996 375.971 97.156 430.319 134.026Z" stroke="white"/>
<path d="M99.3107 639.788C151.474 606.299 204.046 584.352 246.863 575.929C268.273 571.717 287.218 570.892 302.442 573.676C317.665 576.461 329.119 582.845 335.644 593.009C342.17 603.173 343.206 616.244 339.402 631.244C335.597 646.246 326.961 663.128 314.22 680.842C288.739 716.268 246.9 754.934 194.738 788.424C142.575 821.913 90.0023 843.86 47.1852 852.284C25.7752 856.496 6.83023 857.321 -8.39371 854.536C-23.6162 851.751 -35.0697 845.368 -41.5954 835.204C-48.1211 825.04 -49.1577 811.968 -45.3534 796.968C-41.5488 781.966 -32.9129 765.084 -20.1714 747.37C5.3097 711.944 47.1479 673.278 99.3107 639.788Z" stroke="white"/>
</svg>
