<svg width="32" height="32" viewBox="0 0 32 32" fill="none" xmlns="http://www.w3.org/2000/svg">
<path d="M16.8 19.2002C17.4365 19.2002 18.0469 19.4531 18.497 19.9031C18.9471 20.3532 19.2 20.9637 19.2 21.6002V22.4002C19.2 25.5538 16.224 28.8002 11.2 28.8002C6.17595 28.8002 3.19995 25.5538 3.19995 22.4002V21.6002C3.19995 20.9637 3.45281 20.3532 3.90289 19.9031C4.35298 19.4531 4.96343 19.2002 5.59995 19.2002H16.8ZM16.8 20.8002H5.59995C5.38778 20.8002 5.1843 20.8845 5.03427 21.0345C4.88424 21.1845 4.79995 21.388 4.79995 21.6002V22.4002C4.79995 24.701 7.09115 27.2002 11.2 27.2002C15.3088 27.2002 17.6 24.701 17.6 22.4002V21.6002C17.6 21.388 17.5157 21.1845 17.3656 21.0345C17.2156 20.8845 17.0121 20.8002 16.8 20.8002ZM11.2 8.8002C12.3669 8.8002 13.4861 9.26377 14.3112 10.0889C15.1364 10.9141 15.6 12.0332 15.6 13.2002C15.6 14.3671 15.1364 15.4863 14.3112 16.3115C13.4861 17.1366 12.3669 17.6002 11.2 17.6002C10.033 17.6002 8.91384 17.1366 8.08868 16.3115C7.26352 15.4863 6.79995 14.3671 6.79995 13.2002C6.79995 12.0332 7.26352 10.9141 8.08868 10.0889C8.91384 9.26377 10.033 8.8002 11.2 8.8002ZM25.6 3.2002C26.407 3.20034 27.1842 3.50543 27.7758 4.05433C28.3674 4.60324 28.7298 5.35542 28.7903 6.1602L28.8 6.4002V9.6002C28.8002 10.4075 28.4953 11.1851 27.9464 11.7771C27.3974 12.369 26.645 12.7316 25.84 12.7922L25.6 12.8002H23.1984L21.2816 15.3602C20.4336 16.4898 18.7152 16.0322 18.4384 14.7586L18.4112 14.581L18.4 14.4002V12.6962L18.2752 12.6642C17.6998 12.4905 17.1849 12.1582 16.7896 11.7054C16.3943 11.2527 16.1345 10.6978 16.04 10.1042L16.008 9.8386L16 9.6002V6.4002C15.9997 5.59287 16.3046 4.81529 16.8535 4.22332C17.4025 3.63135 18.1549 3.26874 18.96 3.2082L19.2 3.2002H25.6ZM11.2 10.4002C10.8323 10.4002 10.4681 10.4726 10.1284 10.6133C9.78873 10.754 9.48006 10.9603 9.22005 11.2203C8.96005 11.4803 8.7538 11.789 8.61309 12.1287C8.47237 12.4684 8.39995 12.8325 8.39995 13.2002C8.39995 13.5679 8.47237 13.932 8.61309 14.2717C8.7538 14.6114 8.96005 14.9201 9.22005 15.1801C9.48006 15.4401 9.78873 15.6463 10.1284 15.7871C10.4681 15.9278 10.8323 16.0002 11.2 16.0002C11.9426 16.0002 12.6547 15.7052 13.1799 15.1801C13.705 14.655 14 13.9428 14 13.2002C14 12.4576 13.705 11.7454 13.1799 11.2203C12.6547 10.6952 11.9426 10.4002 11.2 10.4002ZM25.6 4.8002H19.2C18.8081 4.80025 18.4298 4.94413 18.137 5.20454C17.8441 5.46495 17.657 5.82379 17.6112 6.213L17.6 6.4002V9.6002C17.6 9.99209 17.7439 10.3703 18.0043 10.6632C18.2647 10.956 18.6236 11.1431 19.0128 11.189L19.2 11.2002H20V14.4002L22.4 11.2002H25.6C25.9918 11.2001 26.3701 11.0563 26.6629 10.7959C26.9558 10.5354 27.1429 10.1766 27.1888 9.7874L27.2 9.6002V6.4002C27.1999 6.0083 27.056 5.63006 26.7956 5.3372C26.5352 5.04434 26.1764 4.85725 25.7872 4.8114L25.6 4.8002Z" fill="url(#paint0_linear_410_1808)"/>
<defs>
<linearGradient id="paint0_linear_410_1808" x1="3.19995" y1="13.7328" x2="28.7996" y2="13.5922" gradientUnits="userSpaceOnUse">
<stop offset="0.05" stop-color="#CF9F66"/>
<stop offset="0.466346" stop-color="#FFDC9C"/>
<stop offset="0.985577" stop-color="#946331"/>
</linearGradient>
</defs>
</svg>
