<svg width="1440" height="299" viewBox="0 0 1440 299" fill="none" xmlns="http://www.w3.org/2000/svg">
<g clip-path="url(#clip0_410_3872)">
<mask id="mask0_410_3872" style="mask-type:luminance" maskUnits="userSpaceOnUse" x="0" y="-318" width="1440" height="670">
<path d="M1440 -318H0V352H1440V-318Z" fill="white"/>
</mask>
<g mask="url(#mask0_410_3872)">
<path d="M-176.519 -69.4648L-160.086 -54.0124L-62.5425 -183.796L-78.9746 -199.249L-77.2998 -201.478L-30.4902 -157.461L-32.165 -155.232L-48.7607 -170.84L-92.0177 -113.282L-78.7378 -100.793C-76.7923 -101.497 -74.8468 -102.2 -72.704 -102.412L4.36461 -120.89L-11.7348 -136.032L-10.06 -138.26L27.1237 -103.296L25.449 -101.067L6.69353 -118.705L-61.6177 -102.449C-55.8208 -101.117 -50.4975 -98.0166 -45.5182 -93.3347C-25.1049 -74.1342 -16.0317 -28.5299 -49.9505 18.4814C-62.0068 33.7659 -71.5705 37.4453 -80.8693 28.7042C-95.3109 15.1257 -89.5478 -9.87737 -82.7302 -35.1605L-81.5235 -39.4064C-79.7472 -46.2922 -77.9427 -52.8356 -76.5047 -60.0389C-72.9014 -79.1523 -72.0555 -90.0848 -79.2453 -97.4748C-84.0046 -95.2896 -88.3241 -91.4296 -92.5083 -85.8575C-102.833 -72.1171 -110.57 -46.7529 -112.104 -8.8998L-113.779 -6.67105L-178.182 -67.2361L-176.507 -69.4648H-176.519ZM-146.31 -41.0564L-114.94 -11.5582C-112.882 -48.5958 -104.982 -73.8105 -94.5158 -87.7377C-90.467 -93.123 -86.0122 -97.1698 -81.422 -99.5107L-93.7038 -111.06L-146.316 -41.0626L-146.31 -41.0564ZM-60.7211 -50.8932C-60.535 -34.5566 -64.7305 -19.1725 -71.0518 0.55098C-72.9071 6.4095 -78.6927 23.1571 -73.2115 28.3058C-68.565 32.6764 -61.2173 28.1751 -51.9524 16.6075C-20.3456 -28.4552 -27.7835 -72.8454 -47.2043 -91.1058C-54.3433 -97.8173 -64.5669 -102.68 -76.578 -98.7636C-58.2455 -78.6729 -60.7154 -50.887 -60.7154 -50.887L-60.7211 -50.8932Z" fill="black" fill-opacity="0.3"/>
<path d="M769.034 -92.6989L765.549 -95.9736C776.196 -112.155 779.9 -125.939 776.664 -137.332C773.421 -148.725 765.769 -160.094 753.707 -171.437L733.621 -190.326L689.383 -131.467L702.826 -118.822C710.901 -111.227 719.738 -109.789 729.324 -114.502C732.679 -116.201 736.779 -120.273 741.612 -126.711L743.01 -128.566L745.999 -125.758L701.766 -66.9052L698.777 -69.7131C707.518 -81.343 711.116 -90.9057 709.565 -98.3892C708.008 -105.873 704.963 -111.744 700.43 -116.008L687.15 -128.497L638.31 -63.5183L663.043 -40.2586C670.125 -33.6032 676.61 -28.6598 682.509 -25.4411C688.396 -22.2223 695.761 -21.9048 704.591 -24.4823C713.422 -27.0598 723.409 -34.5122 734.568 -46.8394L738.053 -43.5583L701.343 1.13701L604.408 -90.0155L606.782 -93.172L622.386 -78.4977L717.696 -205.306L702.093 -219.98L704.603 -223.323L798.718 -134.823L769.04 -92.6989H769.034Z" fill="black" fill-opacity="0.3"/>
<path d="M711.476 6.86511L727.909 22.3177L825.453 -107.466L809.02 -122.919L810.695 -125.147L857.505 -81.1308L855.83 -78.9021L839.234 -94.5101L795.977 -36.9523L809.257 -24.4632C811.203 -25.1667 813.148 -25.8703 815.291 -26.082L892.36 -44.5602L876.26 -59.7015L877.935 -61.9304L915.119 -26.966L913.444 -24.7373L894.689 -42.375L826.377 -26.1194C832.174 -24.787 837.498 -21.6865 842.477 -17.0047C862.89 2.19584 871.963 47.8 838.045 94.8113C825.988 110.096 816.424 113.775 807.126 105.034C792.684 91.4557 798.447 66.4527 805.265 41.1696L806.472 36.9235C808.248 30.0377 810.052 23.4944 811.49 16.2911C815.094 -2.8222 815.94 -13.7549 808.75 -21.1449C803.99 -18.9597 799.671 -15.0995 795.487 -9.52741C785.162 4.21301 777.425 29.577 775.891 67.4301L774.216 69.659L709.813 9.09402L711.488 6.86511H711.476ZM741.685 35.2737L773.055 64.7717C775.113 27.7341 783.013 2.51958 793.479 -11.4076C797.528 -16.793 801.983 -20.8399 806.573 -23.1808L794.291 -34.7296L741.679 35.2675L741.685 35.2737ZM827.268 25.4431C827.454 41.7797 823.259 57.1637 816.938 76.8871C815.082 82.7456 809.297 99.4932 814.778 104.642C819.424 109.012 826.772 104.511 836.037 92.9436C867.644 47.881 860.206 3.49071 840.785 -14.7697C833.646 -21.4811 823.423 -26.3434 811.411 -22.4273C829.744 -2.33655 827.274 25.4493 827.274 25.4493L827.268 25.4431Z" fill="black" fill-opacity="0.3"/>
<path d="M551.339 -46.8639L547.854 -50.1387C558.501 -66.3196 562.206 -80.1038 558.969 -91.4971C555.727 -102.89 548.074 -114.259 536.012 -125.602L515.926 -144.491L471.688 -85.6322L485.131 -72.9876C493.206 -65.3921 502.043 -63.9538 511.629 -68.6668C514.984 -70.3664 519.084 -74.4382 523.917 -80.8757L525.315 -82.731L528.304 -79.9232L484.071 -21.0703L481.083 -23.8781C489.823 -35.508 493.421 -45.0709 491.87 -52.5544C490.314 -60.0378 487.269 -65.9089 482.735 -70.1735L469.455 -82.6625L420.615 -17.6835L445.348 5.57635C452.431 12.2318 458.916 17.175 464.814 20.3937C470.701 23.6125 478.066 23.93 486.896 21.3525C495.727 18.775 505.714 11.3228 516.873 -1.00439L520.359 2.27663L483.648 46.972L386.713 -44.1807L389.087 -47.3371L404.691 -32.6629L500.002 -159.471L484.398 -174.145L486.908 -177.488L581.023 -88.988L551.345 -46.8639H551.339Z" fill="black" fill-opacity="0.3"/>
<path d="M493.788 52.6993L510.22 68.1518L607.764 -61.6322L591.331 -77.0846L593.006 -79.3135L639.816 -35.2968L638.141 -33.0679L621.545 -48.6761L578.288 8.88172L591.568 21.3708C593.514 20.6673 595.459 19.9639 597.602 19.7522L674.671 1.27377L658.571 -13.8674L660.246 -16.0963L697.43 18.868L695.755 21.0969L677 3.45905L608.688 19.7148C614.485 21.0471 619.809 24.1475 624.788 28.8293C645.201 48.0298 654.274 93.6342 620.356 140.645C608.299 155.93 598.736 159.609 589.437 150.868C574.995 137.29 580.758 112.287 587.576 87.0036L588.783 82.7576C590.559 75.8719 592.363 69.3284 593.801 62.1251C597.405 43.0118 598.251 32.0793 591.061 24.6892C586.301 26.8745 581.982 30.7345 577.798 36.3066C567.473 50.047 559.736 75.4111 558.202 113.264L556.527 115.493L492.124 54.9282L493.799 52.6993H493.788ZM523.996 81.1077L555.366 110.606C557.424 73.5683 565.324 48.3536 575.79 34.4264C579.839 29.041 584.294 24.9943 588.884 22.6534L576.602 11.1044L523.99 81.1015L523.996 81.1077ZM609.579 71.2772C609.766 87.6138 605.57 102.998 599.249 122.721C597.393 128.58 591.608 145.327 597.089 150.476C601.735 154.847 609.083 150.345 618.348 138.778C649.955 93.7151 642.517 49.3249 623.096 31.0645C615.957 24.353 605.734 19.4906 593.722 23.4067C612.055 43.4974 609.585 71.2833 609.585 71.2833L609.579 71.2772Z" fill="black" fill-opacity="0.3"/>
<path d="M768.679 158.564L765.194 155.289C775.84 139.108 779.545 125.324 776.308 113.931C773.066 102.537 765.414 91.1691 753.352 79.8257L733.266 60.9364L689.028 119.796L702.471 132.44C710.546 140.036 719.382 141.474 728.969 136.761C732.324 135.061 736.424 130.99 741.256 124.552L742.655 122.697L745.643 125.505L701.411 184.357L698.422 181.55C707.163 169.92 710.76 160.357 709.21 152.873C707.653 145.39 704.608 139.519 700.074 135.254L686.794 122.765L637.955 187.744L662.688 211.004C669.77 217.66 676.255 222.603 682.154 225.822C688.041 229.04 695.405 229.358 704.236 226.78C713.067 224.203 723.053 216.751 734.213 204.423L737.698 207.704L700.988 252.4L604.053 161.247L606.427 158.091L622.03 172.765L717.341 45.957L701.738 31.2827L704.247 27.9395L798.363 116.44L768.684 158.564H768.679Z" fill="black" fill-opacity="0.3"/>
<path d="M711.127 258.134L727.559 273.586L825.103 143.803L808.671 128.35L810.346 126.121L857.155 170.138L855.48 172.367L838.885 156.758L795.628 214.316L808.908 226.805C810.853 226.102 812.799 225.398 814.942 225.187L892.01 206.708L875.911 191.567L877.586 189.338L914.769 224.303L913.095 226.531L894.339 208.894L826.028 225.149C831.825 226.482 837.148 229.582 842.127 234.264C862.541 253.464 871.614 299.069 837.695 346.08C825.639 361.365 816.075 365.044 806.776 356.303C792.335 342.724 798.098 317.721 804.915 292.438L806.122 288.192C807.898 281.306 809.703 274.763 811.141 267.56C814.744 248.446 815.59 237.514 808.4 230.124C803.641 232.309 799.321 236.169 795.137 241.741C784.812 255.482 777.075 280.846 775.542 318.699L773.867 320.928L709.463 260.363L711.138 258.134H711.127ZM741.335 286.542L772.705 316.04C774.763 279.003 782.664 253.788 793.13 239.861C797.179 234.476 801.633 230.429 806.224 228.088L793.942 216.539L741.33 286.536L741.335 286.542ZM826.919 276.706C827.105 293.042 822.909 308.426 816.588 328.15C814.733 334.008 808.947 350.756 814.428 355.904C819.075 360.275 826.423 355.774 835.688 344.206C867.294 299.143 859.856 254.753 840.436 236.493C833.297 229.781 823.073 224.919 811.062 228.835C829.394 248.926 826.924 276.712 826.924 276.712L826.919 276.706Z" fill="black" fill-opacity="0.3"/>
<path d="M325.874 -7.41077L322.389 -10.6856C333.036 -26.8665 336.74 -40.6505 333.504 -52.0438C330.261 -63.4371 322.609 -74.8055 310.547 -86.1489L290.461 -105.038L246.223 -46.1791L259.666 -33.5344C267.741 -25.9388 276.578 -24.5007 286.164 -29.2137C289.519 -30.9133 293.619 -34.9849 298.451 -41.4225L299.85 -43.2777L302.838 -40.47L258.606 18.3829L255.617 15.575C264.358 3.94513 267.955 -5.61765 266.405 -13.1011C264.848 -20.5846 261.803 -26.4556 257.269 -30.7203L243.99 -43.2093L195.15 21.7698L219.883 45.0295C226.965 51.6849 233.45 56.6283 239.349 59.847C245.236 63.0658 252.6 63.3833 261.431 60.8058C270.262 58.2283 280.249 50.7759 291.408 38.4487L294.893 41.7298L258.183 86.4251L161.248 -4.72739L163.622 -7.88393L179.225 6.79042L274.536 -120.017L258.933 -134.692L261.442 -138.035L355.558 -49.5347L325.88 -7.41077H325.874Z" fill="black" fill-opacity="0.3"/>
<path d="M268.322 92.1591L284.754 107.612L382.298 -22.1722L365.866 -37.6248L367.541 -39.8535L414.35 4.16314L412.676 6.39189L396.08 -9.21618L352.823 48.3417L366.103 60.8307C368.048 60.1272 369.994 59.4236 372.137 59.212L449.205 40.7337L433.106 25.5924L434.781 23.3635L471.964 58.3279L470.29 60.5567L451.534 42.919L383.223 59.1746C389.02 60.5069 394.343 63.6075 399.322 68.2893C419.736 87.4898 428.809 133.094 394.89 180.105C382.834 195.39 373.27 199.069 363.971 190.328C349.53 176.75 355.293 151.747 362.11 126.464L363.317 122.217C365.093 115.332 366.898 108.788 368.336 101.585C371.939 82.4717 372.785 71.5391 365.595 64.149C360.836 66.3343 356.516 70.1944 352.332 75.7665C342.007 89.507 334.27 114.871 332.737 152.724L331.062 154.953L266.658 94.388L268.333 92.1591H268.322ZM298.53 120.568L329.9 150.066C331.958 113.028 339.859 87.8135 350.325 73.8863C354.374 68.501 358.828 64.4541 363.419 62.1132L351.137 50.5643L298.525 120.561L298.53 120.568ZM384.114 110.731C384.3 127.067 380.104 142.452 373.783 162.175C371.928 168.034 366.142 184.781 371.623 189.93C376.27 194.3 383.618 189.799 392.883 178.231C424.489 133.169 417.051 88.7784 397.631 70.518C390.492 63.8066 380.268 58.9443 368.257 62.8604C386.589 82.9512 384.12 110.737 384.12 110.737L384.114 110.731Z" fill="black" fill-opacity="0.3"/>
<path d="M546.129 198.845L542.644 195.57C553.291 179.389 556.996 165.605 553.759 154.212C550.516 142.819 542.864 131.45 530.802 120.107L510.716 101.218L466.478 160.077L479.921 172.721C487.996 180.317 496.833 181.755 506.419 177.042C509.774 175.343 513.874 171.271 518.706 164.833L520.105 162.978L523.094 165.786L478.861 224.639L475.872 221.831C484.613 210.201 488.211 200.638 486.66 193.155C485.104 185.671 482.058 179.8 477.525 175.536L464.245 163.047L415.405 228.026L440.138 251.285C447.221 257.941 453.705 262.884 459.604 266.103C465.491 269.322 472.856 269.639 481.686 267.062C490.517 264.484 500.504 257.032 511.663 244.705L515.148 247.986L478.438 292.681L381.503 201.528L383.877 198.372L399.48 213.046L494.791 86.2382L479.188 71.5641L481.698 68.2207L575.813 156.721L546.135 198.845H546.129Z" fill="black" fill-opacity="0.3"/>
<path d="M488.571 298.415L505.004 313.868L602.548 184.084L586.115 168.631L587.79 166.402L634.6 210.419L632.925 212.648L616.329 197.04L573.072 254.598L586.352 267.087C588.298 266.383 590.243 265.68 592.386 265.468L669.455 246.99L653.355 231.848L655.03 229.62L692.214 264.584L690.539 266.813L671.784 249.175L603.472 265.431C609.269 266.763 614.593 269.863 619.572 274.545C639.985 293.746 649.058 339.35 615.139 386.361C603.083 401.646 593.52 405.325 584.221 396.584C569.779 383.006 575.542 358.003 582.36 332.72L583.567 328.473C585.343 321.588 587.147 315.044 588.585 307.841C592.189 288.728 593.035 277.795 585.845 270.405C581.085 272.59 576.766 276.45 572.582 282.023C562.257 295.763 554.52 321.127 552.986 358.98L551.311 361.209L486.908 300.644L488.583 298.415H488.571ZM518.785 326.824L550.155 356.322C552.214 319.284 560.114 294.07 570.58 280.142C574.629 274.757 579.083 270.71 583.674 268.369L571.392 256.82L518.78 326.817L518.785 326.824ZM604.369 316.987C604.555 333.323 600.36 348.707 594.038 368.431C592.183 374.289 586.397 391.037 591.878 396.186C596.525 400.556 603.873 396.055 613.138 384.487C644.744 339.425 637.307 295.034 617.886 276.774C610.747 270.063 600.523 265.2 588.512 269.116C606.844 289.207 604.375 316.993 604.375 316.993L604.369 316.987Z" fill="black" fill-opacity="0.3"/>
<path d="M1423.22 30.1058L1419.74 26.831C1430.39 10.6501 1434.09 -3.13389 1430.85 -14.5272C1427.61 -25.9205 1419.96 -37.2889 1407.9 -48.6323L1387.81 -67.5216L1343.57 -8.66248L1357.02 3.98224C1365.09 11.5778 1373.93 13.0159 1383.51 8.30293C1386.87 6.60328 1390.97 2.53167 1395.8 -3.90585L1397.2 -5.76129L1400.19 -2.95343L1355.96 55.8995L1352.97 53.0916C1361.71 41.4617 1365.31 31.899 1363.75 24.4155C1362.2 16.932 1359.15 11.061 1354.62 6.79633L1341.34 -5.69274L1292.5 59.2864L1317.23 82.5461C1324.32 89.2015 1330.8 94.1449 1336.7 97.3636C1342.59 100.582 1349.95 100.9 1358.78 98.3224C1367.61 95.7449 1377.6 88.2925 1388.76 75.9653L1392.24 79.2464L1355.53 123.942L1258.6 32.7892L1260.97 29.6327L1276.58 44.307L1371.89 -82.5009L1356.28 -97.1752L1358.79 -100.519L1452.91 -12.0181L1423.23 30.1058H1423.22Z" fill="black" fill-opacity="0.3"/>
<path d="M1365.67 129.67L1382.1 145.122L1479.64 15.3386L1463.21 -0.114026L1464.89 -2.34277L1511.69 41.6739L1510.02 43.9026L1493.42 28.2946L1450.17 85.8524L1463.45 98.3415C1465.39 97.638 1467.34 96.9344 1469.48 96.7227L1546.55 78.2445L1530.45 63.1032L1532.13 60.8743L1569.31 95.8387L1567.63 98.0674L1548.88 80.4297L1480.57 96.6853C1486.36 98.0176 1491.69 101.118 1496.67 105.8C1517.08 125.001 1526.15 170.605 1492.23 217.616C1480.18 232.9 1470.61 236.58 1461.32 227.839C1446.87 214.26 1452.64 189.257 1459.45 163.974L1460.66 159.728C1462.44 152.842 1464.24 146.299 1465.68 139.096C1469.28 119.982 1470.13 109.05 1462.94 101.66C1458.18 103.845 1453.86 107.705 1449.68 113.277C1439.35 127.018 1431.61 152.382 1430.08 190.235L1428.41 192.464L1364 131.899L1365.68 129.67H1365.67ZM1395.88 158.078L1427.25 187.576C1429.31 150.539 1437.21 125.324 1447.67 111.397C1451.72 106.012 1456.18 101.965 1460.77 99.6239L1448.49 88.0751L1395.87 158.072L1395.88 158.078ZM1481.46 148.248C1481.65 164.584 1477.45 179.968 1471.13 199.692C1469.28 205.55 1463.49 222.298 1468.97 227.447C1473.62 231.817 1480.97 227.316 1490.23 215.748C1521.84 170.686 1514.4 126.295 1494.98 108.035C1487.84 101.324 1477.62 96.4613 1465.61 100.377C1483.94 120.468 1481.47 148.254 1481.47 148.254L1481.46 148.248Z" fill="black" fill-opacity="0.3"/>
<path d="M1205.53 75.9408L1202.04 72.666C1212.69 56.485 1216.4 42.7009 1213.16 31.3076C1209.92 19.9143 1202.26 8.54594 1190.2 -2.79753L1170.12 -21.6866L1125.88 37.1725L1139.32 49.817C1147.4 57.4126 1156.23 58.8509 1165.82 54.1379C1169.17 52.4382 1173.27 48.3665 1178.11 41.929L1179.51 40.0737L1182.49 42.8815L1138.26 101.734L1135.27 98.9266C1144.01 87.2967 1147.61 77.7338 1146.06 70.2503C1144.5 62.7668 1141.46 56.8958 1136.92 52.6311L1123.64 40.1422L1074.81 105.121L1099.54 128.381C1106.62 135.036 1113.11 139.98 1119 143.198C1124.89 146.417 1132.26 146.735 1141.09 144.157C1149.92 141.58 1159.9 134.127 1171.06 121.8L1174.55 125.081L1137.84 169.777L1040.9 78.624L1043.28 75.4676L1058.88 90.1418L1154.19 -36.666L1138.59 -51.3404L1141.1 -54.6836L1235.21 33.8167L1205.53 75.9408H1205.53Z" fill="black" fill-opacity="0.3"/>
<path d="M1147.98 175.505L1164.41 190.958L1261.95 61.1735L1245.52 45.7211L1247.2 43.4922L1294.01 87.5089L1292.33 89.7377L1275.74 74.1295L1232.48 131.687L1245.76 144.176C1247.7 143.473 1249.65 142.77 1251.79 142.558L1328.86 124.079L1312.76 108.938L1314.44 106.709L1351.62 141.674L1349.95 143.903L1331.19 126.265L1262.88 142.52C1268.68 143.853 1274 146.953 1278.98 151.635C1299.39 170.835 1308.46 216.44 1274.55 263.451C1262.49 278.736 1252.93 282.415 1243.63 273.674C1229.19 260.095 1234.95 235.092 1241.77 209.809L1242.97 205.563C1244.75 198.678 1246.55 192.134 1247.99 184.931C1251.59 165.817 1252.44 154.885 1245.25 147.495C1240.49 149.68 1236.17 153.54 1231.99 159.112C1221.66 172.853 1213.93 198.217 1212.39 236.07L1210.72 238.299L1146.31 177.734L1147.99 175.505H1147.98ZM1178.19 203.913L1209.56 233.411C1211.61 196.374 1219.51 171.159 1229.98 157.232C1234.03 151.847 1238.48 147.8 1243.07 145.459L1230.79 133.91L1178.18 203.907L1178.19 203.913ZM1263.77 194.083C1263.96 210.419 1259.76 225.803 1253.44 245.527C1251.58 251.385 1245.8 268.133 1251.28 273.282C1255.93 277.652 1263.27 273.151 1272.54 261.583C1304.14 216.521 1296.71 172.131 1277.29 153.87C1270.15 147.159 1259.92 142.296 1247.91 146.212C1266.24 166.303 1263.78 194.089 1263.78 194.089L1263.77 194.083Z" fill="black" fill-opacity="0.3"/>
<path d="M1426.05 282.37L1422.56 279.096C1433.21 262.915 1436.92 249.131 1433.68 237.737C1430.44 226.344 1422.78 214.976 1410.72 203.632L1390.64 184.743L1346.4 243.602L1359.84 256.247C1367.92 263.842 1376.75 265.28 1386.34 260.567C1389.69 258.868 1393.79 254.796 1398.63 248.359L1400.03 246.503L1403.01 249.311L1358.78 308.164L1355.79 305.356C1364.53 293.726 1368.13 284.163 1366.58 276.68C1365.02 269.197 1361.98 263.326 1357.44 259.061L1344.16 246.572L1295.33 311.551L1320.06 334.811C1327.14 341.466 1333.63 346.409 1339.52 349.628C1345.41 352.847 1352.78 353.164 1361.61 350.587C1370.44 348.009 1380.42 340.557 1391.58 328.23L1395.07 331.511L1358.36 376.206L1261.42 285.054L1263.8 281.897L1279.4 296.572L1374.71 169.764L1359.11 155.089L1361.62 151.746L1455.73 240.246L1426.05 282.37H1426.05Z" fill="black" fill-opacity="0.3"/>
<path d="M1368.49 381.94L1384.92 397.393L1482.47 267.609L1466.04 252.156L1467.71 249.928L1514.52 293.944L1512.85 296.173L1496.25 280.565L1452.99 338.123L1466.27 350.612C1468.22 349.908 1470.16 349.205 1472.31 348.993L1549.37 330.515L1533.28 315.374L1534.95 313.145L1572.13 348.109L1570.46 350.338L1551.7 332.7L1483.39 348.956C1489.19 350.288 1494.51 353.389 1499.49 358.071C1519.91 377.271 1528.98 422.875 1495.06 469.887C1483 485.171 1473.44 488.851 1464.14 480.109C1449.7 466.531 1455.46 441.528 1462.28 416.245L1463.49 411.999C1465.26 405.113 1467.07 398.57 1468.51 391.366C1472.11 372.253 1472.95 361.321 1465.76 353.93C1461.01 356.116 1456.69 359.976 1452.5 365.548C1442.18 379.288 1434.44 404.652 1432.91 442.505L1431.23 444.734L1366.83 384.169L1368.5 381.94H1368.49ZM1398.7 410.349L1430.07 439.847C1432.13 402.81 1440.03 377.595 1450.49 363.668C1454.54 358.282 1459 354.235 1463.59 351.895L1451.31 340.346L1398.69 410.343L1398.7 410.349ZM1484.28 400.512C1484.47 416.849 1480.27 432.233 1473.95 451.956C1472.1 457.815 1466.31 474.562 1471.79 479.711C1476.44 484.081 1483.79 479.58 1493.05 468.013C1524.66 422.95 1517.22 378.56 1497.8 360.299C1490.66 353.588 1480.44 348.726 1468.43 352.642C1486.76 372.732 1484.29 400.518 1484.29 400.518L1484.28 400.512Z" fill="black" fill-opacity="0.3"/>
<path d="M1200.58 321.824L1197.09 318.549C1207.74 302.368 1211.44 288.584 1208.21 277.191C1204.97 265.797 1197.31 254.429 1185.25 243.085L1165.16 224.196L1120.93 283.055L1134.37 295.7C1142.45 303.296 1151.28 304.734 1160.87 300.021C1164.22 298.321 1168.32 294.249 1173.16 287.812L1174.55 285.956L1177.54 288.764L1133.31 347.617L1130.32 344.809C1139.06 333.18 1142.66 323.617 1141.11 316.133C1139.55 308.65 1136.51 302.779 1131.97 298.514L1118.69 286.025L1069.85 351.004L1094.59 374.264C1101.67 380.919 1108.15 385.863 1114.05 389.081C1119.94 392.3 1127.3 392.618 1136.14 390.04C1144.97 387.463 1154.95 380.01 1166.11 367.683L1169.6 370.964L1132.89 415.659L1035.95 324.507L1038.33 321.35L1053.93 336.025L1149.24 209.217L1133.64 194.543L1136.15 191.199L1230.26 279.699L1200.58 321.824H1200.58Z" fill="black" fill-opacity="0.3"/>
<path d="M1143.03 421.394L1159.46 436.846L1257 307.062L1240.57 291.61L1242.24 289.381L1289.05 333.398L1287.38 335.626L1270.78 320.018L1227.53 377.576L1240.81 390.065C1242.75 389.362 1244.7 388.658 1246.84 388.447L1323.91 369.968L1307.81 354.827L1309.48 352.598L1346.67 387.562L1344.99 389.791L1326.24 372.153L1257.93 388.409C1263.72 389.741 1269.05 392.842 1274.03 397.524C1294.44 416.724 1303.51 462.329 1269.59 509.34C1257.54 524.624 1247.97 528.304 1238.68 519.563C1224.23 505.984 1230 480.981 1236.81 455.698L1238.02 451.452C1239.8 444.566 1241.6 438.023 1243.04 430.82C1246.64 411.706 1247.49 400.774 1240.3 393.384C1235.54 395.569 1231.22 399.429 1227.04 405.001C1216.71 418.741 1208.97 444.105 1207.44 481.958L1205.77 484.187L1141.36 423.622L1143.04 421.394H1143.03ZM1173.23 449.802L1204.6 479.3C1206.66 442.263 1214.56 417.048 1225.03 403.121C1229.08 397.735 1233.53 393.689 1238.12 391.348L1225.84 379.799L1173.23 449.796L1173.23 449.802ZM1258.82 439.965C1259 456.302 1254.81 471.686 1248.49 491.409C1246.63 497.268 1240.85 514.015 1246.33 519.164C1250.97 523.535 1258.32 519.033 1267.59 507.466C1299.19 462.403 1291.76 418.013 1272.33 399.753C1265.2 393.041 1254.97 388.179 1242.96 392.095C1261.29 412.186 1258.82 439.971 1258.82 439.971L1258.82 439.965Z" fill="black" fill-opacity="0.3"/>
<path d="M985.782 113.314L982.297 110.039C992.943 93.8579 996.648 80.074 993.411 68.6807C990.169 57.2874 982.517 45.919 970.455 34.5755L950.368 15.6864L906.13 74.5455L919.574 87.1901C927.649 94.7856 936.485 96.2239 946.072 91.5109C949.427 89.8113 953.526 85.7395 958.359 79.302L959.758 77.4467L962.746 80.2546L918.514 139.107L915.525 136.3C924.265 124.67 927.863 115.107 926.312 107.623C924.756 100.14 921.711 94.2689 917.177 90.0042L903.897 77.5151L855.058 142.494L879.79 165.754C886.873 172.41 893.358 177.353 899.256 180.571C905.143 183.79 912.508 184.108 921.339 181.53C930.169 178.953 940.156 171.501 951.316 159.173L954.801 162.454L918.091 207.15L821.156 115.997L823.53 112.841L839.133 127.515L934.444 0.706999L918.841 -13.9673L921.35 -17.3105L1015.47 71.1897L985.787 113.314H985.782Z" fill="black" fill-opacity="0.3"/>
<path d="M928.23 212.884L944.662 228.336L1042.21 98.5524L1025.77 83.1L1027.45 80.8711L1074.26 124.888L1072.58 127.117L1055.99 111.508L1012.73 169.066L1026.01 181.555C1027.96 180.852 1029.9 180.148 1032.04 179.937L1109.11 161.458L1093.01 146.317L1094.69 144.088L1131.87 179.053L1130.2 181.281L1111.44 163.644L1043.13 179.899C1048.93 181.232 1054.25 184.332 1059.23 189.014C1079.64 208.214 1088.72 253.819 1054.8 300.83C1042.74 316.115 1033.18 319.794 1023.88 311.053C1009.44 297.474 1015.2 272.471 1022.02 247.188L1023.23 242.942C1025 236.056 1026.81 229.513 1028.24 222.31C1031.85 203.196 1032.69 192.264 1025.5 184.874C1020.74 187.059 1016.42 190.919 1012.24 196.491C1001.92 210.232 994.178 235.596 992.645 273.449L990.97 275.678L926.566 215.113L928.241 212.884H928.23ZM958.438 241.292L989.808 270.79C991.866 233.753 999.767 208.538 1010.23 194.611C1014.28 189.226 1018.74 185.179 1023.33 182.838L1011.04 171.289L958.433 241.286L958.438 241.292ZM1044.02 231.455C1044.21 247.792 1040.01 263.176 1033.69 282.9C1031.84 288.758 1026.05 305.506 1031.53 310.654C1036.18 315.025 1043.53 310.524 1052.79 298.956C1084.4 253.893 1076.96 209.503 1057.54 191.243C1050.4 184.531 1040.18 179.669 1028.16 183.585C1046.5 203.676 1044.03 231.462 1044.03 231.462L1044.02 231.455Z" fill="black" fill-opacity="0.3"/>
<path d="M95.5873 30.7279L92.1024 27.4531C102.749 11.2722 106.454 -2.51182 103.217 -13.9051C99.9745 -25.2984 92.3223 -36.6668 80.2605 -48.0103L60.1742 -66.8995L15.936 -8.04041L29.3794 4.60431C37.4545 12.1998 46.2909 13.638 55.8773 8.925C59.2325 7.22535 63.332 3.15374 68.1647 -3.28378L69.5632 -5.13922L72.5519 -2.33136L28.3193 56.5215L25.3306 53.7137C34.0711 42.0838 37.6688 32.521 36.1181 25.0376C34.5617 17.5541 31.5166 11.6831 26.9828 7.4184L13.7029 -5.07067L-35.1367 59.9085L-10.4039 83.1682C-3.3213 89.8236 3.16359 94.7669 9.06202 97.9857C14.9492 101.204 22.3137 101.522 31.1444 98.9445C39.9751 96.367 49.9619 88.9146 61.1215 76.5874L64.6065 79.8684L27.8964 124.564L-69.0386 33.4113L-66.6646 30.2547L-51.0613 44.9291L44.2496 -81.8788L28.6464 -96.5531L31.1557 -99.8965L125.271 -11.3961L95.5929 30.7279H95.5873Z" fill="black" fill-opacity="0.3"/>
<path d="M38.0354 130.298L54.4675 145.75L152.011 15.9666L135.579 0.514056L137.254 -1.71484L184.064 42.302L182.389 44.5307L165.793 28.9226L122.536 86.4805L135.816 98.9696C137.762 98.2661 139.707 97.5625 141.85 97.3508L218.919 78.8726L202.819 63.7313L204.494 61.5024L241.678 96.4668L240.003 98.6955L221.247 81.0578L152.936 97.3134C158.733 98.6457 164.056 101.746 169.036 106.428C189.449 125.629 198.522 171.233 164.603 218.244C152.547 233.529 142.983 237.208 133.685 228.467C119.243 214.889 125.006 189.885 131.824 164.602L133.03 160.356C134.807 153.471 136.611 146.927 138.049 139.724C141.653 120.611 142.498 109.678 135.309 102.288C130.549 104.473 126.23 108.333 122.046 113.905C111.721 127.646 103.984 153.01 102.45 190.863L100.775 193.092L36.3718 132.527L38.0467 130.298H38.0354ZM68.2436 158.706L99.6136 188.204C101.672 151.167 109.572 125.952 120.038 112.025C124.087 106.64 128.542 102.593 133.132 100.252L120.85 88.7032L68.238 158.7L68.2436 158.706ZM153.827 148.87C154.013 165.206 149.818 180.59 143.497 200.314C141.641 206.172 135.856 222.92 141.337 228.069C145.983 232.439 153.331 227.938 162.596 216.37C194.203 171.308 186.765 126.917 167.344 108.657C160.205 101.945 149.981 97.0832 137.97 100.999C156.303 121.09 153.833 148.876 153.833 148.876L153.827 148.87Z" fill="black" fill-opacity="0.3"/>
<path d="M315.842 236.984L312.357 233.709C323.004 217.528 326.709 203.744 323.472 192.351C320.229 180.957 312.577 169.589 300.515 158.246L280.429 139.356L236.191 198.215L249.634 210.86C257.709 218.456 266.546 219.894 276.132 215.181C279.487 213.481 283.587 209.409 288.42 202.972L289.818 201.117L292.807 203.924L248.574 262.777L245.585 259.97C254.326 248.34 257.924 238.777 256.373 231.293C254.817 223.81 251.772 217.939 247.238 213.674L233.958 201.185L185.118 266.164L209.851 289.424C216.934 296.079 223.418 301.023 229.317 304.242C235.204 307.46 242.569 307.778 251.399 305.2C260.23 302.623 270.217 295.17 281.376 282.843L284.861 286.124L248.151 330.82L151.216 239.667L153.59 236.511L169.194 251.185L264.504 124.377L248.901 109.703L251.411 106.359L345.526 194.86L315.848 236.984H315.842Z" fill="black" fill-opacity="0.3"/>
<path d="M258.285 336.554L274.717 352.006L372.261 222.222L355.829 206.77L357.503 204.541L404.313 248.558L402.638 250.787L386.043 235.178L342.785 292.736L356.065 305.225C358.011 304.522 359.956 303.818 362.099 303.607L439.168 285.128L423.068 269.987L424.743 267.758L461.927 302.723L460.252 304.951L441.497 287.314L373.186 303.569C378.982 304.902 384.306 308.002 389.285 312.684C409.698 331.884 418.771 377.489 384.853 424.5C372.796 439.785 363.233 443.464 353.934 434.723C339.492 421.144 345.255 396.141 352.073 370.858L353.28 366.612C355.056 359.726 356.86 353.183 358.298 345.98C361.902 326.866 362.748 315.934 355.558 308.544C350.799 310.729 346.479 314.589 342.295 320.161C331.97 333.902 324.233 359.266 322.699 397.119L321.024 399.348L256.621 338.783L258.296 336.554H258.285ZM288.498 364.962L319.868 394.46C321.927 357.423 329.827 332.208 340.293 318.281C344.342 312.896 348.797 308.849 353.387 306.508L341.105 294.959L288.493 364.956L288.498 364.962ZM374.082 355.125C374.268 371.462 370.073 386.846 363.751 406.57C361.896 412.428 356.11 429.176 361.592 434.324C366.238 438.695 373.586 434.194 382.851 422.626C414.458 377.563 407.02 333.173 387.599 314.913C380.46 308.201 370.236 303.339 358.225 307.255C376.558 327.346 374.088 355.132 374.088 355.132L374.082 355.125Z" fill="black" fill-opacity="0.3"/>
<path d="M-189.618 167.741L-173.186 183.194L-75.6419 53.4098L-92.074 37.9574L-90.3992 35.7285L-43.5896 79.7452L-45.2644 81.9741L-61.8601 66.3659L-105.117 123.924L-91.8372 136.413C-89.8917 135.709 -87.9462 135.006 -85.8034 134.794L-8.73476 116.316L-24.8342 101.174L-23.1594 98.9457L14.0244 133.91L12.3496 136.139L-6.40584 118.501L-74.7171 134.757C-68.9202 136.089 -63.5969 139.189 -58.6176 143.871C-38.2043 163.072 -29.1311 208.676 -63.0499 255.687C-75.1061 270.972 -84.67 274.651 -93.9688 265.91C-108.41 252.332 -102.647 227.329 -95.8296 202.046L-94.6228 197.8C-92.8465 190.914 -91.0421 184.37 -89.6041 177.167C-86.0008 158.054 -85.1549 147.121 -92.3447 139.731C-97.104 141.916 -101.423 145.776 -105.608 151.349C-115.933 165.089 -123.669 190.453 -125.203 228.306L-126.878 230.535L-191.281 169.97L-189.607 167.741H-189.618ZM-159.41 196.15L-128.04 225.648C-125.981 188.61 -118.081 163.396 -107.615 149.468C-103.566 144.083 -99.1115 140.036 -94.5214 137.695L-106.803 126.146L-159.415 196.143L-159.41 196.15ZM-73.8261 186.319C-73.64 202.656 -77.8355 218.04 -84.1568 237.763C-86.0121 243.622 -91.7977 260.369 -86.3165 265.518C-81.67 269.889 -74.3223 265.387 -65.0574 253.82C-33.4506 208.757 -40.8885 164.367 -60.3093 146.106C-67.4483 139.395 -77.6719 134.533 -89.683 138.449C-71.3505 158.539 -73.8204 186.325 -73.8204 186.325L-73.8261 186.319Z" fill="black" fill-opacity="0.3"/>
<path d="M88.1889 274.433L84.704 271.158C95.3505 254.977 99.0553 241.193 95.8185 229.8C92.576 218.407 84.9239 207.038 72.862 195.695L52.7758 176.806L8.53753 235.665L21.981 248.309C30.0561 255.905 38.8925 257.343 48.4788 252.63C51.8341 250.93 55.9336 246.859 60.7663 240.421L62.1647 238.566L65.1534 241.374L20.9208 300.227L17.9322 297.419C26.6727 285.789 30.2704 276.226 28.7197 268.743C27.1633 261.259 24.1182 255.388 19.5844 251.123L6.3045 238.634L-42.5352 303.613L-17.8024 326.873C-10.7197 333.529 -4.23485 338.472 1.66358 341.691C7.55074 344.909 14.9153 345.227 23.746 342.649C32.5767 340.072 42.5635 332.62 53.7231 320.292L57.2081 323.574L20.4979 368.269L-76.437 277.116L-74.063 273.96L-58.4598 288.634L36.8511 161.826L21.2479 147.152L23.7573 143.809L117.873 232.309L88.1945 274.433H88.1889Z" fill="black" fill-opacity="0.3"/>
<path d="M30.6369 374.003L47.0691 389.456L144.613 259.672L128.181 244.219L129.856 241.99L176.665 286.007L174.991 288.236L158.395 272.628L115.138 330.185L128.418 342.675C130.363 341.971 132.309 341.267 134.452 341.056L211.52 322.577L195.421 307.436L197.096 305.207L234.279 340.172L232.604 342.401L213.849 324.763L145.538 341.018C151.335 342.351 156.658 345.451 161.637 350.133C182.051 369.334 191.124 414.938 157.205 461.949C145.149 477.234 135.585 480.913 126.286 472.172C111.845 458.593 117.608 433.59 124.425 408.307L125.632 404.061C127.408 397.176 129.213 390.632 130.651 383.429C134.254 364.316 135.1 353.383 127.91 345.993C123.151 348.178 118.831 352.038 114.647 357.61C104.322 371.351 96.5854 396.715 95.0516 434.568L93.3768 436.797L28.9734 376.232L30.6482 374.003H30.6369ZM60.8452 402.412L92.2151 431.91C94.2734 394.872 102.174 369.657 112.64 355.73C116.689 350.345 121.143 346.298 125.734 343.957L113.452 332.408L60.8396 402.405L60.8452 402.412ZM146.429 392.575C146.615 408.911 142.419 424.295 136.098 444.019C134.243 449.877 128.457 466.625 133.938 471.773C138.585 476.144 145.933 471.643 155.198 460.075C186.804 415.012 179.366 370.622 159.946 352.362C152.807 345.65 142.583 340.788 130.572 344.704C148.904 364.795 146.434 392.581 146.434 392.581L146.429 392.575Z" fill="black" fill-opacity="0.3"/>
<path d="M-176.225 429.873L-159.793 445.326L-62.2493 315.542L-78.6814 300.089L-77.0066 297.86L-30.197 341.877L-31.8719 344.106L-48.4675 328.498L-91.7245 386.056L-78.4446 398.544C-76.4991 397.841 -74.5536 397.138 -72.4108 396.926L4.65782 378.448L-11.4416 363.306L-9.7668 361.078L27.4169 396.042L25.7422 398.271L6.98674 380.633L-61.3245 396.889C-55.5276 398.221 -50.2043 401.321 -45.225 406.003C-24.8117 425.204 -15.7385 470.808 -49.6573 517.819C-61.7136 533.104 -71.2774 536.783 -80.5762 528.042C-95.0177 514.463 -89.2546 489.461 -82.437 464.178L-81.2302 459.931C-79.4539 453.046 -77.6495 446.502 -76.2116 439.299C-72.6082 420.186 -71.7624 409.253 -78.9521 401.863C-83.7115 404.048 -88.0309 407.908 -92.2151 413.48C-102.54 427.221 -110.277 452.585 -111.811 490.438L-113.486 492.667L-177.889 432.102L-176.214 429.873H-176.225ZM-146.017 458.275L-114.647 487.773C-112.589 450.736 -104.689 425.521 -94.2226 411.594C-90.1738 406.209 -85.719 402.162 -81.1288 399.821L-93.4106 388.272L-146.023 458.269L-146.017 458.275ZM-60.4335 448.445C-60.2474 464.781 -64.4429 480.165 -70.7642 499.889C-72.6195 505.747 -78.4051 522.495 -72.924 527.644C-68.2774 532.014 -60.9298 527.513 -51.6648 515.945C-20.0581 470.883 -27.4959 426.492 -46.9167 408.232C-54.0558 401.52 -64.2793 396.658 -76.2905 400.574C-57.958 420.665 -60.4278 448.451 -60.4278 448.451L-60.4335 448.445Z" fill="black" fill-opacity="0.3"/>
<path d="M768.358 409.409L764.873 406.134C775.519 389.953 779.224 376.169 775.987 364.776C772.745 353.382 765.093 342.014 753.031 330.67L732.945 311.781L688.706 370.64L702.15 383.285C710.225 390.881 719.061 392.319 728.648 387.606C732.003 385.906 736.102 381.834 740.935 375.397L742.333 373.542L745.322 376.349L701.09 435.202L698.101 432.394C706.841 420.764 710.439 411.202 708.888 403.718C707.332 396.235 704.287 390.364 699.753 386.099L686.473 373.61L637.634 438.589L662.366 461.849C669.449 468.504 675.934 473.447 681.832 476.666C687.719 479.885 695.084 480.202 703.915 477.625C712.745 475.048 722.732 467.595 733.892 455.268L737.377 458.549L700.667 503.245L603.732 412.092L606.106 408.936L621.709 423.61L717.02 296.802L701.417 282.128L703.926 278.784L798.041 367.285L768.363 409.409H768.358Z" fill="black" fill-opacity="0.3"/>
<path d="M992.797 367.751L989.312 364.477C999.958 348.296 1003.66 334.511 1000.43 323.118C997.184 311.725 989.532 300.357 977.47 289.013L957.384 270.124L913.145 328.983L926.589 341.628C934.664 349.223 943.5 350.661 953.087 345.948C956.442 344.249 960.542 340.177 965.374 333.74L966.773 331.884L969.761 334.692L925.529 393.545L922.54 390.737C931.281 379.107 934.878 369.544 933.328 362.061C931.771 354.577 928.726 348.706 924.192 344.442L910.912 331.953L862.073 396.932L886.806 420.191C893.888 426.847 900.373 431.79 906.271 435.009C912.159 438.228 919.523 438.545 928.354 435.968C937.185 433.39 947.171 425.938 958.331 413.611L961.816 416.892L925.106 461.587L828.171 370.435L830.545 367.278L846.148 381.952L941.459 255.144L925.856 240.47L928.365 237.127L1022.48 325.627L992.802 367.751H992.797Z" fill="black" fill-opacity="0.3"/>
<path d="M931.027 -31.706L947.459 -16.2534L1045 -146.037L1028.57 -161.49L1030.25 -163.719L1077.06 -119.702L1075.38 -117.473L1058.78 -133.081L1015.53 -75.5234L1028.81 -63.0345C1030.75 -63.738 1032.7 -64.4414 1034.84 -64.6531L1111.91 -83.1314L1095.81 -98.2726L1097.49 -100.502L1134.67 -65.5371L1132.99 -63.3084L1114.24 -80.9461L1045.93 -64.6905C1051.72 -63.3582 1057.05 -60.2576 1062.03 -55.5758C1082.44 -36.3753 1091.51 9.2289 1057.59 56.2402C1045.54 71.5247 1035.97 75.2041 1026.68 66.463C1012.23 52.8844 1018 27.8816 1024.82 2.59843L1026.02 -1.64763C1027.8 -8.5334 1029.6 -15.0767 1031.04 -22.28C1034.64 -41.3933 1035.49 -52.326 1028.3 -59.7161C1023.54 -57.5308 1019.22 -53.6708 1015.04 -48.0987C1004.71 -34.3583 996.975 -8.99413 995.442 28.859L993.767 31.0879L929.363 -29.4771L931.038 -31.706H931.027ZM961.241 -3.29741L992.611 26.2005C994.669 -10.837 1002.57 -36.0516 1013.04 -49.9788C1017.08 -55.3641 1021.54 -59.411 1026.13 -61.7519L1013.85 -73.3009L961.235 -3.30365L961.241 -3.29741ZM1046.82 -13.128C1047.01 3.20856 1042.81 18.5925 1036.49 38.316C1034.64 44.1745 1028.85 60.9221 1034.33 66.0708C1038.98 70.4414 1046.33 65.9401 1055.59 54.3725C1087.2 9.30984 1079.76 -35.0804 1060.34 -53.3408C1053.2 -60.0523 1042.98 -64.9147 1030.97 -60.9986C1049.3 -40.9078 1046.83 -13.1218 1046.83 -13.1218L1046.82 -13.128Z" fill="black" fill-opacity="0.3"/>
<path d="M1147.42 -71.8681L1163.85 -56.4155L1261.4 -186.199L1244.96 -201.652L1246.64 -203.881L1293.45 -159.864L1291.77 -157.635L1275.18 -173.243L1231.92 -115.686L1245.2 -103.197C1247.15 -103.9 1249.09 -104.604 1251.23 -104.815L1328.3 -123.293L1312.2 -138.435L1313.88 -140.664L1351.06 -105.699L1349.39 -103.47L1330.63 -121.108L1262.32 -104.853C1268.12 -103.52 1273.44 -100.42 1278.42 -95.7379C1298.83 -76.5374 1307.91 -30.9332 1273.99 16.0781C1261.93 31.3625 1252.37 35.042 1243.07 26.3009C1228.63 12.7223 1234.39 -12.2805 1241.21 -37.5637L1242.41 -41.8097C1244.19 -48.6955 1245.99 -55.2388 1247.43 -62.4421C1251.04 -81.5554 1251.88 -92.4881 1244.69 -99.8782C1239.93 -97.6929 1235.61 -93.8328 1231.43 -88.2607C1221.1 -74.5202 1213.37 -49.1562 1211.83 -11.3031L1210.16 -9.07422L1145.76 -69.6392L1147.43 -71.8681H1147.42ZM1177.63 -43.4595L1209 -13.9616C1211.06 -50.9991 1218.96 -76.2137 1229.42 -90.1409C1233.47 -95.5262 1237.93 -99.5731 1242.52 -101.914L1230.23 -113.463L1177.62 -43.4658L1177.63 -43.4595ZM1263.21 -53.2901C1263.4 -36.9536 1259.2 -21.5696 1252.88 -1.8461C1251.02 4.01241 1245.24 20.76 1250.72 25.9087C1255.37 30.2793 1262.71 25.778 1271.98 14.2104C1303.59 -30.8523 1296.15 -75.2425 1276.73 -93.5029C1269.59 -100.214 1259.37 -105.077 1247.35 -101.161C1265.69 -81.0699 1263.22 -53.2839 1263.22 -53.2839L1263.21 -53.2901Z" fill="black" fill-opacity="0.3"/>
</g>
</g>
<defs>
<clipPath id="clip0_410_3872">
<rect width="1440" height="299" rx="56" fill="white"/>
</clipPath>
</defs>
</svg>
