<svg width="40" height="40" viewBox="0 0 40 40" fill="none" xmlns="http://www.w3.org/2000/svg">
<rect width="40" height="40" rx="4" fill="url(#paint0_linear_910_1781)"/>
<path d="M24 11C25.3261 11 26.5979 11.5268 27.5355 12.4645C28.4732 13.4021 29 14.6739 29 16V24C29 25.3261 28.4732 26.5979 27.5355 27.5355C26.5979 28.4732 25.3261 29 24 29H16C14.6739 29 13.4021 28.4732 12.4645 27.5355C11.5268 26.5979 11 25.3261 11 24V16C11 14.6739 11.5268 13.4021 12.4645 12.4645C13.4021 11.5268 14.6739 11 16 11H24ZM20 16C18.9391 16 17.9217 16.4214 17.1716 17.1716C16.4214 17.9217 16 18.9391 16 20C16 21.0609 16.4214 22.0783 17.1716 22.8284C17.9217 23.5786 18.9391 24 20 24C21.0609 24 22.0783 23.5786 22.8284 22.8284C23.5786 22.0783 24 21.0609 24 20C24 18.9391 23.5786 17.9217 22.8284 17.1716C22.0783 16.4214 21.0609 16 20 16ZM20 18C20.5304 18 21.0391 18.2107 21.4142 18.5858C21.7893 18.9609 22 19.4696 22 20C22 20.5304 21.7893 21.0391 21.4142 21.4142C21.0391 21.7893 20.5304 22 20 22C19.4696 22 18.9609 21.7893 18.5858 21.4142C18.2107 21.0391 18 20.5304 18 20C18 19.4696 18.2107 18.9609 18.5858 18.5858C18.9609 18.2107 19.4696 18 20 18ZM24.5 14.5C24.2348 14.5 23.9804 14.6054 23.7929 14.7929C23.6054 14.9804 23.5 15.2348 23.5 15.5C23.5 15.7652 23.6054 16.0196 23.7929 16.2071C23.9804 16.3946 24.2348 16.5 24.5 16.5C24.7652 16.5 25.0196 16.3946 25.2071 16.2071C25.3946 16.0196 25.5 15.7652 25.5 15.5C25.5 15.2348 25.3946 14.9804 25.2071 14.7929C25.0196 14.6054 24.7652 14.5 24.5 14.5Z" fill="#191919"/>
<defs>
<linearGradient id="paint0_linear_910_1781" x1="9.3322e-09" y1="16.4571" x2="39.9994" y2="16.2376" gradientUnits="userSpaceOnUse">
<stop offset="0.05" stop-color="#CF9F66"/>
<stop offset="0.466346" stop-color="#FFDC9C"/>
<stop offset="0.985577" stop-color="#946331"/>
</linearGradient>
</defs>
</svg>
