<svg width="40" height="46" viewBox="0 0 40 46" fill="none" xmlns="http://www.w3.org/2000/svg">
<g clip-path="url(#clip0_410_2805)">
<mask id="mask0_410_2805" style="mask-type:luminance" maskUnits="userSpaceOnUse" x="0" y="-1" width="41" height="41">
<path d="M40.0111 -0.00548744H0.00610352V39.8845H40.0111V-0.00548744Z" fill="white"/>
</mask>
<g mask="url(#mask0_410_2805)">
<path d="M19.179 -8.33562L18.8083 -8.64633C19.9403 -10.1795 20.3337 -11.4862 19.9895 -12.566C19.6448 -13.6457 18.8315 -14.7227 17.5492 -15.7975L15.4138 -17.5874L10.7116 -12.0101L12.1409 -10.8119C12.9995 -10.0924 13.9381 -9.95581 14.958 -10.4026C15.3144 -10.564 15.7503 -10.9496 16.2647 -11.5595L16.4133 -11.7352L16.731 -11.4691L12.0287 -5.89184L11.7111 -6.15792C12.6403 -7.26027 13.0227 -8.16595 12.8575 -8.87495C12.6923 -9.58396 12.3685 -10.1404 11.8862 -10.5447L10.4746 -11.7281L5.28289 -5.57011L7.91217 -3.36597C8.66466 -2.73519 9.35416 -2.26693 9.98123 -1.96173C10.6072 -1.65708 11.3895 -1.62678 12.3287 -1.87083C13.2674 -2.11488 14.3293 -2.82113 15.5149 -3.98903L15.8856 -3.67833L11.9829 0.557528L1.67847 -8.08056L1.9304 -8.37969L3.58896 -6.98923L13.721 -19.0071L12.0624 -20.3975L12.3293 -20.7143L22.3337 -12.328L19.179 -8.33617V-8.33562Z" fill="url(#paint0_linear_410_2805)"/>
<path d="M13.0607 1.09963L14.8077 2.56392L25.1767 -9.73433L23.4298 -11.1986L23.6077 -11.4096L28.5834 -7.23821L28.4055 -7.02722L26.6408 -8.50638L22.0425 -3.05193L23.4541 -1.86861C23.6607 -1.93527 23.8679 -2.00192 24.0955 -2.02176L32.2878 -3.77306L30.5762 -5.20815L30.7541 -5.41914L34.7066 -2.10604L34.5287 -1.89505L32.5347 -3.56647L25.2729 -2.02616C25.8894 -1.90001 26.4546 -1.60583 26.9839 -1.16235C29.1541 0.656712 30.1182 4.97906 26.5132 9.43362C25.2314 10.8819 24.2149 11.2307 23.2265 10.4027C21.6911 9.11575 22.3038 6.74634 23.0287 4.35048L23.1574 3.94778C23.3463 3.29496 23.5381 2.6752 23.6911 1.99264C24.074 0.181287 24.164 -0.854403 23.3999 -1.55515C22.8939 -1.34856 22.4353 -0.98221 21.99 -0.45445C20.8922 0.847874 20.0701 3.25144 19.9071 6.83834L19.7292 7.04933L12.8828 1.31008L13.0607 1.09908V1.09963ZM16.2723 3.79187L19.6071 6.58768C19.8259 3.07791 20.6662 0.688664 21.7784 -0.631288C22.2088 -1.14142 22.6823 -1.52485 23.1707 -1.74686L21.8646 -2.84149L16.2718 3.79187H16.2723ZM25.3701 2.85975C25.39 4.40778 24.9441 5.86601 24.2718 7.73465C24.0745 8.28996 23.4596 9.87654 24.0419 10.3646C24.5358 10.7789 25.3171 10.352 26.3016 9.25568C29.6613 4.98512 28.8707 0.779012 26.8066 -0.95136C26.048 -1.58765 24.9607 -2.0482 23.6839 -1.67744C25.6325 0.22646 25.3701 2.8592 25.3701 2.8592V2.85975Z" fill="url(#paint1_linear_410_2805)"/>
<path d="M42.6204 11.2268L42.2497 10.9161C43.3818 9.38292 43.7751 8.07618 43.4309 6.99642C43.0862 5.91666 42.2729 4.83966 40.9906 3.76485L38.8552 1.97499L34.153 7.55228L35.5823 8.75048C36.4409 9.46996 37.3795 9.60658 38.3994 9.1598C38.7558 8.99839 39.1917 8.61276 39.7061 8.00291L39.8547 7.82718L40.1724 8.09326L35.4702 13.6706L35.1525 13.4045C36.0818 12.3021 36.4641 11.3964 36.2989 10.6874C36.1337 9.97843 35.8099 9.42203 35.3276 9.01767L33.916 7.83434L28.7243 13.9923L31.3536 16.1964C32.1061 16.8272 32.7956 17.2955 33.4226 17.6007C34.0486 17.9053 34.8309 17.9356 35.7701 17.6916C36.7088 17.4475 37.7707 16.7413 38.9563 15.5734L39.3271 15.8841L35.4243 20.1199L25.1199 11.4818L25.3718 11.1827L27.0304 12.5732L37.1619 0.556423L35.5033 -0.834046L35.7701 -1.15081L45.7746 7.23551L42.6199 11.2273L42.6204 11.2268Z" fill="url(#paint2_linear_410_2805)"/>
<path d="M36.5021 20.662L38.2491 22.1263L48.6181 9.82804L46.8712 8.36376L47.0491 8.15276L52.0248 12.3242L51.8469 12.5352L50.0822 11.056L45.4839 16.5104L46.8955 17.6938C47.1021 17.6271 47.3093 17.5605 47.5369 17.5406L55.7292 15.7893L54.0176 14.3542L54.1955 14.1432L58.148 17.4563L57.9701 17.6673L55.9762 15.9959L48.7143 17.5362C49.3308 17.6624 49.896 17.9565 50.4253 18.4C52.5955 20.2191 53.5596 24.5414 49.9546 28.996C48.6728 30.4443 47.6563 30.793 46.6679 29.965C45.1325 28.6781 45.7452 26.3087 46.4701 23.9129L46.5988 23.5102C46.7878 22.8573 46.9795 22.2376 47.1325 21.555C47.5154 19.7437 47.6054 18.708 46.8413 18.0072C46.3353 18.2138 45.8767 18.5802 45.4314 19.1079C44.3336 20.4102 43.5115 22.8138 43.3485 26.4007L43.1706 26.6117L36.3242 20.8725L36.5021 20.6615V20.662ZM39.7132 23.3537L43.048 26.1495C43.2668 22.6397 44.1071 20.2505 45.2192 18.9305C45.6496 18.4204 46.1231 18.037 46.6115 17.815L45.3054 16.7203L39.7126 23.3537H39.7132ZM48.811 22.4221C48.8308 23.9702 48.385 25.4284 47.7126 27.297C47.5154 27.8523 46.9005 29.4389 47.4828 29.927C47.9767 30.3413 48.7579 29.9143 49.7425 28.8181C53.1021 24.5475 52.3115 20.3414 50.2474 18.611C49.4889 17.9747 48.4016 17.5142 47.1248 17.8849C49.0734 19.7888 48.811 22.4216 48.811 22.4216V22.4221Z" fill="url(#paint3_linear_410_2805)"/>
<path d="M-10.0802 5.44344L-8.33319 6.90773L2.03587 -5.39052L0.288905 -6.85481L0.466805 -7.0658L5.4425 -2.8944L5.2646 -2.68341L3.49995 -4.16257L-1.09839 1.29188L0.313214 2.4752C0.519844 2.40855 0.727026 2.34189 0.95465 2.32205L9.14691 0.570749L7.43531 -0.86434L7.61321 -1.07533L11.5657 2.23777L11.3878 2.44876L9.39388 0.777336L2.132 2.31765C2.74857 2.4438 3.31377 2.73798 3.84305 3.18146C6.01321 5.00052 6.9773 9.32287 3.37233 13.7774C2.09056 15.2257 1.07399 15.5745 0.0855885 14.7465C-1.44977 13.4596 -0.837062 11.0902 -0.112201 8.6943L0.0165281 8.29159C0.205479 7.63877 0.397191 7.01901 0.55023 6.33645C0.933103 4.5251 1.02316 3.48941 0.25907 2.78867C-0.247007 2.99525 -0.70557 3.3616 -1.15087 3.88936C-2.24866 5.19168 -3.07076 7.59525 -3.23375 11.1822L-3.41165 11.3931L-10.2581 5.65389L-10.0802 5.44289V5.44344ZM-6.86911 8.13513L-3.5343 10.9309C-3.31552 7.42117 -2.47518 5.03192 -1.36303 3.71197C-0.932643 3.20184 -0.459162 2.81841 0.0292358 2.5964L-1.27684 1.50177L-6.86966 8.13513H-6.86911ZM2.22868 7.20357C2.24857 8.75159 1.80272 10.2098 1.13034 12.0785C0.933103 12.6338 0.318186 14.2204 0.900506 14.7085C1.39443 15.1227 2.17565 14.6958 3.16018 13.5995C6.51984 9.32893 5.72924 5.12282 3.66515 3.39245C2.90658 2.75616 1.81929 2.29561 0.542496 2.66637C2.49111 4.57027 2.22868 7.20301 2.22868 7.20301V7.20357Z" fill="url(#paint4_linear_410_2805)"/>
<path d="M19.4788 15.5701L19.1081 15.2593C20.2401 13.7262 20.6335 12.4195 20.2893 11.3397C19.9446 10.2599 19.1313 9.18294 17.849 8.10814L15.7136 6.31827L11.0114 11.8956L12.4407 13.0938C13.2993 13.8132 14.2379 13.9499 15.2578 13.5031C15.6142 13.3417 16.0501 12.956 16.5645 12.3462L16.7131 12.1705L17.0308 12.4365L12.3285 18.0138L12.0109 17.7478C12.9402 16.6454 13.3225 15.7397 13.1573 15.0307C12.9921 14.3217 12.6683 13.7653 12.186 13.361L10.7744 12.1776L5.58269 18.3356L8.21197 20.5397C8.96446 21.1705 9.65396 21.6388 10.281 21.9439C10.907 22.2486 11.6893 22.2789 12.6285 22.0348C13.5672 21.7908 14.6291 21.0845 15.8147 19.9166L16.1855 20.2273L12.2827 24.4632L1.97827 15.8251L2.23021 15.526L3.88877 16.9164L14.0203 4.89971L12.3617 3.50924L12.6285 3.19247L22.633 11.5788L19.4783 15.5706L19.4788 15.5701Z" fill="url(#paint5_linear_410_2805)"/>
<path d="M13.3605 25.0053L15.1075 26.4696L25.4765 14.1713L23.7296 12.707L23.9075 12.496L28.8832 16.6674L28.7053 16.8784L26.9406 15.3993L22.3423 20.8537L23.7539 22.037C23.9605 21.9704 24.1677 21.9037 24.3953 21.8839L32.5876 20.1326L30.876 18.6975L31.0539 18.4865L35.0064 21.7996L34.8285 22.0106L32.8346 20.3392L25.5727 21.8795C26.1892 22.0056 26.7544 22.2998 27.2837 22.7433C29.4539 24.5624 30.418 28.8847 26.813 33.3393C25.5312 34.7876 24.5147 35.1363 23.5263 34.3083C21.9909 33.0214 22.6036 30.652 23.3285 28.2561L23.4572 27.8534C23.6462 27.2006 23.8379 26.5809 23.9909 25.8983C24.3738 24.0869 24.4638 23.0513 23.6997 22.3505C23.1937 22.5571 22.7351 22.9234 22.2898 23.4512C21.192 24.7535 20.3699 27.1571 20.2069 30.744L20.029 30.955L13.1826 25.2157L13.3605 25.0047V25.0053ZM16.5721 27.6975L19.9069 30.4933C20.1257 26.9836 20.966 24.5943 22.0782 23.2744C22.5086 22.7642 22.9821 22.3808 23.4705 22.1588L22.1644 21.0642L16.5716 27.6975H16.5721ZM25.6699 26.7654C25.6898 28.3134 25.2439 29.7717 24.5716 31.6403C24.3743 32.1956 23.7594 33.7822 24.3417 34.2703C24.8357 34.6846 25.6169 34.2576 26.6014 33.1613C29.9611 28.8908 29.1705 24.6847 27.1064 22.9543C26.3478 22.318 25.2605 21.8575 23.9837 22.2282C25.9323 24.1321 25.6699 26.7649 25.6699 26.7649V26.7654Z" fill="url(#paint6_linear_410_2805)"/>
<path d="M42.5828 35.0372L42.2121 34.7264C43.3442 33.1933 43.7375 31.8866 43.3933 30.8068C43.0486 29.7271 42.2353 28.65 40.953 27.5752L38.8176 25.7854L34.1154 31.3627L35.5447 32.5609C36.4033 33.2803 37.3419 33.417 38.3618 32.9702C38.7182 32.8088 39.1541 32.4231 39.6685 31.8133L39.8171 31.6376L40.1348 31.9036L35.4325 37.4809L35.1149 37.2149C36.0442 36.1125 36.4265 35.2068 36.2613 34.4978C36.0961 33.7888 35.7723 33.2324 35.29 32.8281L33.8784 31.6447L28.6867 37.8027L31.316 40.0068C32.0685 40.6376 32.758 41.1058 33.385 41.411C34.011 41.7157 34.7933 41.746 35.7326 41.5019C36.6712 41.2579 37.7331 40.5516 38.9187 39.3837L39.2895 39.6945L35.3867 43.9303L25.0823 35.2922L25.3342 34.9931L26.9928 36.3835L37.1243 24.3668L35.4657 22.9763L35.7326 22.6596L45.737 31.0459L42.5823 35.0377L42.5828 35.0372Z" fill="url(#paint7_linear_410_2805)"/>
<path d="M36.4645 44.4729L38.2115 45.9372L48.5805 33.639L46.8336 32.1747L47.0115 31.9637L51.9872 36.1351L51.8093 36.3461L50.0446 34.8669L45.4463 40.3214L46.8579 41.5047C47.0645 41.438 47.2717 41.3714 47.4993 41.3515L55.6916 39.6002L53.98 38.1651L54.1579 37.9541L58.1104 41.2672L57.9325 41.4782L55.9386 39.8068L48.6767 41.3471C49.2933 41.4733 49.8584 41.7675 50.3877 42.2109C52.5579 44.03 53.522 48.3523 49.917 52.8069C48.6352 54.2552 47.6187 54.6039 46.6303 53.7759C45.0949 52.489 45.7076 50.1196 46.4325 47.7238L46.5612 47.3211C46.7502 46.6682 46.9419 46.0485 47.0949 45.3659C47.4778 43.5546 47.5678 42.5189 46.8037 41.8181C46.2977 42.0247 45.8391 42.3911 45.3938 42.9188C44.296 44.2212 43.4739 46.6247 43.3109 50.2116L43.133 50.4226L36.2866 44.6834L36.4645 44.4724V44.4729ZM39.6761 47.1646L43.0109 49.9604C43.2297 46.4506 44.07 44.0614 45.1822 42.7414C45.6126 42.2313 46.0861 41.8479 46.5745 41.6259L45.2684 40.5312L39.6756 47.1646H39.6761ZM48.7739 46.233C48.7938 47.7811 48.3479 49.2393 47.6756 51.1079C47.4783 51.6632 46.8634 53.2498 47.4457 53.7379C47.9397 54.1522 48.7209 53.7253 49.7054 52.629C53.0651 48.3584 52.2745 44.1523 50.2104 42.4219C49.4518 41.7856 48.3645 41.3251 47.0877 41.6958C49.0363 43.5997 48.7739 46.2325 48.7739 46.2325V46.233Z" fill="url(#paint8_linear_410_2805)"/>
<path d="M-10.6068 28.7442L-8.85981 30.2085L1.50925 17.9103L-0.237706 16.446L-0.0598059 16.235L4.91588 20.4064L4.73798 20.6174L2.97334 19.1382L-1.625 24.5927L-0.213397 25.776C-0.00676727 25.7093 0.200415 25.6427 0.428039 25.6228L8.62031 23.8715L6.9087 22.4365L7.08661 22.2255L11.0391 25.5386L10.8612 25.7495L8.86727 24.0781L1.60539 25.6184C2.22196 25.7446 2.78716 26.0388 3.31644 26.4822C5.4866 28.3013 6.45069 32.6237 2.84572 37.0782C1.56395 38.5265 0.547376 38.8753 -0.441023 38.0473C-1.97638 36.7604 -1.36367 34.3909 -0.638812 31.9951L-0.510083 31.5924C-0.321133 30.9396 -0.12942 30.3198 0.0236187 29.6372C0.406491 27.8259 0.496548 26.7902 -0.267541 26.0895C-0.773619 26.296 -1.23218 26.6624 -1.67749 27.1902C-2.77528 28.4925 -3.59738 30.896 -3.76036 34.4829L-3.93826 34.6939L-10.7847 28.9547L-10.6068 28.7437V28.7442ZM-7.39517 31.4365L-4.06036 34.2323C-3.84157 30.7225 -3.00124 28.3333 -1.88909 27.0133C-1.4587 26.5032 -0.98522 26.1198 -0.496822 25.8977L-1.8029 24.8031L-7.39572 31.4365H-7.39517ZM1.70263 30.5044C1.72251 32.0524 1.27666 33.5106 0.604282 35.3793C0.407044 35.9346 -0.207872 37.5211 0.374448 38.0092C0.86837 38.4235 1.64959 37.9966 2.63412 36.9003C5.99378 32.6297 5.20318 28.4236 3.13909 26.6932C2.38053 26.057 1.29323 25.5964 0.0164356 25.9672C1.96505 27.8711 1.70263 30.5038 1.70263 30.5038V30.5044Z" fill="url(#paint9_linear_410_2805)"/>
<path d="M18.9249 38.8543L18.5541 38.5436C19.6862 37.0105 20.0796 35.7037 19.7354 34.624C19.3906 33.5442 18.5774 32.4672 17.295 31.3924L15.1597 29.6025L10.4575 35.1798L11.8867 36.378C12.7453 37.0975 13.684 37.2341 14.7039 36.7874C15.0602 36.6259 15.4961 36.2403 16.0105 35.6305L16.1591 35.4547L16.4768 35.7208L11.7746 41.2981L11.4569 41.032C12.3862 39.9297 12.7685 39.024 12.6033 38.315C12.4381 37.606 12.1144 37.0496 11.632 36.6452L10.2204 35.4619L5.02874 41.6198L7.65802 43.824C8.4105 44.4548 9.10001 44.923 9.72708 45.2282C10.353 45.5329 11.1354 45.5632 12.0746 45.3191C13.0133 45.0751 14.0751 44.3688 15.2608 43.2009L15.6315 43.5116L11.7287 47.7475L1.42432 39.1094L1.67625 38.8102L3.33481 40.2007L13.4663 28.184L11.8077 26.7935L12.0746 26.4767L22.079 34.8631L18.9243 38.8549L18.9249 38.8543Z" fill="url(#paint10_linear_410_2805)"/>
<path d="M12.8066 48.2901L14.5535 49.7544L24.9226 37.4561L23.1756 35.9918L23.3535 35.7808L28.3292 39.9522L28.1513 40.1632L26.3867 38.6841L21.7883 44.1385L23.1999 45.3218C23.4066 45.2552 23.6137 45.1885 23.8414 45.1687L32.0336 43.4174L30.322 41.9823L30.4999 41.7713L34.4524 45.0844L34.2745 45.2954L32.2806 43.624L25.0187 45.1643C25.6353 45.2904 26.2005 45.5846 26.7298 46.0281C28.8999 47.8472 29.864 52.1695 26.259 56.6241C24.9773 58.0724 23.9607 58.4211 22.9723 57.5931C21.4369 56.3062 22.0497 53.9368 22.7745 51.5409L22.9032 51.1382C23.0922 50.4854 23.2839 49.8657 23.4369 49.1831C23.8198 47.3717 23.9099 46.336 23.1458 45.6353C22.6397 45.8419 22.1811 46.2082 21.7358 46.736C20.6381 48.0383 19.816 50.4419 19.653 54.0288L19.4751 54.2398L12.6287 48.5005L12.8066 48.2895V48.2901ZM16.0182 50.9818L19.353 53.7776C19.5718 50.2678 20.4121 47.8786 21.5242 46.5586C21.9546 46.0485 22.4281 45.6651 22.9165 45.443L21.6104 44.3484L16.0176 50.9818H16.0182ZM25.116 50.0497C25.1358 51.5977 24.69 53.0559 24.0176 54.9246C23.8204 55.4799 23.2055 57.0664 23.7878 57.5545C24.2817 57.9688 25.0629 57.5419 26.0474 56.4456C29.4071 52.175 28.6165 47.9689 26.5524 46.2385C25.7939 45.6022 24.7066 45.1417 23.4298 45.5125C25.3784 47.4164 25.116 50.0491 25.116 50.0491V50.0497Z" fill="url(#paint11_linear_410_2805)"/>
</g>
<path d="M0.474609 45.9824V42.3938H1.77682V42.6544H0.817152V44.0013H1.59892V44.2498H0.817152V45.7289H1.78566V45.9818H0.474609V45.9824Z" fill="url(#paint12_linear_410_2805)"/>
<path d="M2.56696 45.9824V42.3938H2.9095V44.29L3.86917 42.3938H4.19293L3.45094 43.9352L4.35259 45.9824H4.01944L3.22828 44.1881L2.90895 44.7726V45.9824H2.56641H2.56696Z" fill="url(#paint13_linear_410_2805)"/>
<path d="M7.06346 46.0264C6.82036 46.0264 6.63307 45.9769 6.50103 45.876C6.36953 45.7752 6.27782 45.6408 6.2281 45.4706C6.17782 45.3009 6.15186 45.1125 6.15186 44.9054V43.4785C6.15186 43.2576 6.17782 43.0626 6.22976 42.894C6.28169 42.7249 6.37451 42.5938 6.50766 42.4996C6.6408 42.4048 6.82589 42.3575 7.06346 42.3575C7.27948 42.3575 7.44909 42.3993 7.57174 42.4814C7.69495 42.5646 7.7828 42.6814 7.83639 42.8334C7.88998 42.9855 7.91595 43.1667 7.91595 43.3761V43.5937H7.59661V43.3854C7.59661 43.229 7.58335 43.094 7.55848 42.9816C7.53362 42.8698 7.48224 42.7827 7.40545 42.721C7.3281 42.6588 7.21428 42.6279 7.06346 42.6279C6.90323 42.6279 6.78279 42.661 6.70103 42.7271C6.61926 42.7938 6.56456 42.8874 6.53639 43.0086C6.50821 43.1298 6.4944 43.2703 6.4944 43.4295V44.9577C6.4944 45.1345 6.51097 45.2827 6.54522 45.4006C6.57893 45.5191 6.63749 45.6072 6.72036 45.6667C6.80324 45.7262 6.9176 45.7554 7.06291 45.7554C7.20821 45.7554 7.32755 45.7229 7.4049 45.6579C7.48224 45.5934 7.53307 45.502 7.55793 45.3857C7.58279 45.269 7.59605 45.1323 7.59605 44.9759V44.7412H7.91539V44.9538C7.91539 45.1637 7.89108 45.3494 7.84246 45.5119C7.79329 45.6739 7.70711 45.8006 7.58445 45.8909C7.46125 45.9807 7.28722 46.0259 7.06235 46.0259L7.06346 46.0264Z" fill="url(#paint14_linear_410_2805)"/>
<path d="M9.61816 46.0264C9.3817 46.0264 9.19551 45.9796 9.0607 45.8871C8.92534 45.794 8.83086 45.6639 8.77617 45.497C8.72147 45.3301 8.69385 45.1389 8.69385 44.923V43.4345C8.69385 43.2158 8.72313 43.0262 8.78059 42.8648C8.8386 42.704 8.93528 42.5789 9.06954 42.4902C9.20434 42.4021 9.38722 42.3575 9.61816 42.3575C9.8491 42.3575 10.0369 42.4021 10.1712 42.4902C10.3066 42.5789 10.4016 42.704 10.4579 42.8648C10.5148 43.0262 10.5425 43.2158 10.5425 43.4345V44.9274C10.5425 45.1428 10.5148 45.3334 10.4601 45.4987C10.4055 45.6645 10.3115 45.7934 10.1778 45.8871C10.0447 45.9796 9.85794 46.0264 9.61816 46.0264ZM9.61816 45.7559C9.77838 45.7559 9.89993 45.7245 9.9828 45.6612C10.0657 45.5978 10.1231 45.5091 10.1541 45.3951C10.185 45.2816 10.201 45.1494 10.201 44.9985V43.3728C10.201 43.2224 10.1856 43.0907 10.1541 42.9783C10.1231 42.8665 10.0657 42.78 9.9828 42.7194C9.89993 42.6588 9.77838 42.6285 9.61816 42.6285C9.45794 42.6285 9.34026 42.6582 9.25628 42.7194C9.17175 42.78 9.11374 42.8665 9.08225 42.9783C9.05131 43.0907 9.03639 43.2224 9.03639 43.3728V44.9985C9.03639 45.1494 9.05131 45.2816 9.08225 45.3951C9.11319 45.5086 9.1712 45.5978 9.25628 45.6612C9.34026 45.7245 9.46125 45.7559 9.61816 45.7559Z" fill="url(#paint15_linear_410_2805)"/>
<path d="M11.427 45.9824V42.3938H11.6712L12.8171 45.1803V42.3938H13.1104V45.9824H12.8706L11.7154 43.1645V45.9824H11.427Z" fill="url(#paint16_linear_410_2805)"/>
<path d="M14.8261 46.0264C14.6305 46.0264 14.4681 45.9862 14.3388 45.9047C14.2101 45.8232 14.1134 45.7097 14.0482 45.5637C13.983 45.4171 13.9427 45.2469 13.9277 45.0519L14.2255 44.9632C14.2404 45.1108 14.2675 45.2447 14.3056 45.3643C14.3443 45.4833 14.4045 45.5786 14.4874 45.6474C14.5703 45.7168 14.6846 45.7515 14.8299 45.7515C14.9896 45.7515 15.1139 45.7097 15.2029 45.6276C15.2918 45.545 15.336 45.4138 15.336 45.2331C15.336 45.0767 15.2968 44.9401 15.2183 44.8238C15.1399 44.707 15.0322 44.5853 14.8962 44.458L14.2609 43.8515C14.1482 43.7424 14.0653 43.6289 14.0117 43.5121C13.9581 43.3953 13.9322 43.2675 13.9322 43.1287C13.9322 42.8803 14.0056 42.6902 14.1537 42.5574C14.3018 42.4247 14.499 42.3575 14.7449 42.3575C14.8725 42.3575 14.9874 42.3734 15.0891 42.4065C15.1913 42.4395 15.2786 42.4913 15.3515 42.5635C15.4239 42.6362 15.4808 42.7299 15.5228 42.845C15.5636 42.9607 15.5918 43.1006 15.6067 43.2659L15.3178 43.3408C15.3062 43.1904 15.2819 43.0615 15.2449 42.9535C15.2073 42.8455 15.1498 42.7635 15.0708 42.7078C14.9924 42.6522 14.8841 42.6235 14.7443 42.6235C14.5962 42.6235 14.4747 42.6621 14.3797 42.7392C14.2852 42.8164 14.2377 42.9353 14.2377 43.0984C14.2377 43.1959 14.2565 43.2846 14.2929 43.3645C14.3299 43.4438 14.3957 43.5298 14.4902 43.6218L15.1261 44.22C15.2681 44.3528 15.3907 44.501 15.4946 44.663C15.5979 44.8255 15.6498 45.0089 15.6498 45.2128C15.6498 45.3929 15.615 45.5433 15.546 45.6645C15.4764 45.7857 15.3791 45.8771 15.2543 45.9372C15.1305 45.9978 14.9863 46.0281 14.8239 46.0281L14.8261 46.0264Z" fill="url(#paint17_linear_410_2805)"/>
<path d="M17.3089 46.0265C17.0658 46.0265 16.8774 45.9829 16.742 45.8959C16.6072 45.8089 16.5149 45.6877 16.4647 45.5323C16.4144 45.3769 16.3884 45.2007 16.3884 45.0023V42.3933H16.7172V45.0117C16.7172 45.15 16.7326 45.2767 16.7641 45.3907C16.7951 45.5042 16.8536 45.594 16.9398 45.6585C17.026 45.7235 17.1487 45.756 17.3083 45.756C17.468 45.756 17.5823 45.7229 17.6685 45.6568C17.7547 45.5901 17.8144 45.5009 17.8486 45.3885C17.8824 45.2761 17.8995 45.1505 17.8995 45.0122V42.3938H18.2238V45.0029C18.2238 45.2012 18.1973 45.3775 18.1437 45.5329C18.0906 45.6882 17.9973 45.8094 17.8641 45.8964C17.731 45.9835 17.5453 46.027 17.3083 46.027L17.3089 46.0265Z" fill="url(#paint18_linear_410_2805)"/>
<path d="M19.1399 45.9824V42.3938H19.4775V45.7295H20.499V45.9824H19.1399Z" fill="url(#paint19_linear_410_2805)"/>
<path d="M21.3349 45.9824V42.6549H20.6548V42.3944H22.3305V42.6549H21.673V45.9824H21.3354H21.3349Z" fill="url(#paint20_linear_410_2805)"/>
<path d="M23.063 45.9824V42.3938H23.4006V45.9824H23.063Z" fill="url(#paint21_linear_410_2805)"/>
<path d="M24.3647 45.9824V42.3938H24.6089L25.7548 45.1803V42.3938H26.0482V45.9824H25.8084L24.6531 43.1645V45.9824H24.3647Z" fill="url(#paint22_linear_410_2805)"/>
<path d="M27.8088 46.0308C27.5834 46.0308 27.4066 45.9835 27.2774 45.8893C27.1486 45.795 27.0575 45.6612 27.0044 45.4887C26.9508 45.3152 26.9243 45.1152 26.9243 44.8883V43.4884C26.9243 43.2582 26.9503 43.0587 27.0022 42.8902C27.0541 42.7216 27.1459 42.591 27.2774 42.4985C27.4094 42.4054 27.595 42.358 27.8354 42.358C28.0514 42.358 28.2221 42.3977 28.3486 42.4781C28.4746 42.558 28.5652 42.6748 28.6216 42.8285C28.6785 42.9816 28.7061 43.1695 28.7061 43.3909V43.5143H28.3862V43.3909C28.3862 43.2196 28.3707 43.078 28.3392 42.9656C28.3083 42.8533 28.2547 42.7695 28.1774 42.7128C28.1 42.6571 27.9862 42.629 27.8354 42.629C27.6724 42.629 27.5497 42.6643 27.4669 42.7354C27.3834 42.8064 27.3298 42.9039 27.3044 43.0279C27.2796 43.1513 27.2669 43.294 27.2669 43.4532V44.9279C27.2669 45.1026 27.2818 45.2513 27.3127 45.3758C27.3437 45.4992 27.4017 45.5945 27.4867 45.659C27.5707 45.724 27.6906 45.7565 27.8442 45.7565C27.9978 45.7565 28.1072 45.7234 28.1884 45.6573C28.2702 45.5907 28.3265 45.4954 28.3591 45.3714C28.3923 45.2475 28.4083 45.0965 28.4083 44.9191V44.4982H27.8751V44.2459H28.7193V45.9824H28.5022L28.4624 45.5747C28.4177 45.713 28.3442 45.8242 28.242 45.9069C28.1398 45.9895 27.9956 46.0303 27.8088 46.0303V46.0308Z" fill="url(#paint23_linear_410_2805)"/>
</g>
<defs>
<linearGradient id="paint0_linear_410_2805" x1="1.67847" y1="-10.0787" x2="22.3337" y2="-10.0787" gradientUnits="userSpaceOnUse">
<stop offset="0.05" stop-color="#CF9F66"/>
<stop offset="0.31" stop-color="#7C4A1A"/>
<stop offset="0.51" stop-color="#FFDC9C"/>
<stop offset="0.69" stop-color="#946331"/>
<stop offset="0.92" stop-color="#916230"/>
</linearGradient>
<linearGradient id="paint1_linear_410_2805" x1="12.8828" y1="-0.28312" x2="34.7066" y2="-0.28312" gradientUnits="userSpaceOnUse">
<stop offset="0.05" stop-color="#CF9F66"/>
<stop offset="0.31" stop-color="#7C4A1A"/>
<stop offset="0.51" stop-color="#FFDC9C"/>
<stop offset="0.69" stop-color="#946331"/>
<stop offset="0.92" stop-color="#916230"/>
</linearGradient>
<linearGradient id="paint2_linear_410_2805" x1="25.1199" y1="9.48373" x2="45.7751" y2="9.48373" gradientUnits="userSpaceOnUse">
<stop offset="0.05" stop-color="#CF9F66"/>
<stop offset="0.31" stop-color="#7C4A1A"/>
<stop offset="0.51" stop-color="#FFDC9C"/>
<stop offset="0.69" stop-color="#946331"/>
<stop offset="0.92" stop-color="#916230"/>
</linearGradient>
<linearGradient id="paint3_linear_410_2805" x1="36.3237" y1="19.2787" x2="58.148" y2="19.2787" gradientUnits="userSpaceOnUse">
<stop offset="0.05" stop-color="#CF9F66"/>
<stop offset="0.31" stop-color="#7C4A1A"/>
<stop offset="0.51" stop-color="#FFDC9C"/>
<stop offset="0.69" stop-color="#946331"/>
<stop offset="0.92" stop-color="#916230"/>
</linearGradient>
<linearGradient id="paint4_linear_410_2805" x1="-10.2586" y1="4.06014" x2="11.5657" y2="4.06014" gradientUnits="userSpaceOnUse">
<stop offset="0.05" stop-color="#CF9F66"/>
<stop offset="0.31" stop-color="#7C4A1A"/>
<stop offset="0.51" stop-color="#FFDC9C"/>
<stop offset="0.69" stop-color="#946331"/>
<stop offset="0.92" stop-color="#916230"/>
</linearGradient>
<linearGradient id="paint5_linear_410_2805" x1="1.97827" y1="13.827" x2="22.6335" y2="13.827" gradientUnits="userSpaceOnUse">
<stop offset="0.05" stop-color="#CF9F66"/>
<stop offset="0.31" stop-color="#7C4A1A"/>
<stop offset="0.51" stop-color="#FFDC9C"/>
<stop offset="0.69" stop-color="#946331"/>
<stop offset="0.92" stop-color="#916230"/>
</linearGradient>
<linearGradient id="paint6_linear_410_2805" x1="13.1826" y1="23.6225" x2="35.0069" y2="23.6225" gradientUnits="userSpaceOnUse">
<stop offset="0.05" stop-color="#CF9F66"/>
<stop offset="0.31" stop-color="#7C4A1A"/>
<stop offset="0.51" stop-color="#FFDC9C"/>
<stop offset="0.69" stop-color="#946331"/>
<stop offset="0.92" stop-color="#916230"/>
</linearGradient>
<linearGradient id="paint7_linear_410_2805" x1="25.0823" y1="33.2947" x2="45.7375" y2="33.2947" gradientUnits="userSpaceOnUse">
<stop offset="0.05" stop-color="#CF9F66"/>
<stop offset="0.31" stop-color="#7C4A1A"/>
<stop offset="0.51" stop-color="#FFDC9C"/>
<stop offset="0.69" stop-color="#946331"/>
<stop offset="0.92" stop-color="#916230"/>
</linearGradient>
<linearGradient id="paint8_linear_410_2805" x1="36.2866" y1="43.0896" x2="58.1104" y2="43.0896" gradientUnits="userSpaceOnUse">
<stop offset="0.05" stop-color="#CF9F66"/>
<stop offset="0.31" stop-color="#7C4A1A"/>
<stop offset="0.51" stop-color="#FFDC9C"/>
<stop offset="0.69" stop-color="#946331"/>
<stop offset="0.92" stop-color="#916230"/>
</linearGradient>
<linearGradient id="paint9_linear_410_2805" x1="-10.7847" y1="27.3609" x2="11.0391" y2="27.3609" gradientUnits="userSpaceOnUse">
<stop offset="0.05" stop-color="#CF9F66"/>
<stop offset="0.31" stop-color="#7C4A1A"/>
<stop offset="0.51" stop-color="#FFDC9C"/>
<stop offset="0.69" stop-color="#946331"/>
<stop offset="0.92" stop-color="#916230"/>
</linearGradient>
<linearGradient id="paint10_linear_410_2805" x1="1.42432" y1="37.1118" x2="22.0796" y2="37.1118" gradientUnits="userSpaceOnUse">
<stop offset="0.05" stop-color="#CF9F66"/>
<stop offset="0.31" stop-color="#7C4A1A"/>
<stop offset="0.51" stop-color="#FFDC9C"/>
<stop offset="0.69" stop-color="#946331"/>
<stop offset="0.92" stop-color="#916230"/>
</linearGradient>
<linearGradient id="paint11_linear_410_2805" x1="12.6287" y1="46.9068" x2="34.453" y2="46.9068" gradientUnits="userSpaceOnUse">
<stop offset="0.05" stop-color="#CF9F66"/>
<stop offset="0.31" stop-color="#7C4A1A"/>
<stop offset="0.51" stop-color="#FFDC9C"/>
<stop offset="0.69" stop-color="#946331"/>
<stop offset="0.92" stop-color="#916230"/>
</linearGradient>
<linearGradient id="paint12_linear_410_2805" x1="0.474609" y1="44.1881" x2="1.78566" y2="44.1881" gradientUnits="userSpaceOnUse">
<stop offset="0.05" stop-color="#CF9F66"/>
<stop offset="0.31" stop-color="#7C4A1A"/>
<stop offset="0.51" stop-color="#FFDC9C"/>
<stop offset="0.69" stop-color="#946331"/>
<stop offset="0.92" stop-color="#916230"/>
</linearGradient>
<linearGradient id="paint13_linear_410_2805" x1="2.56696" y1="44.1881" x2="4.3537" y2="44.1881" gradientUnits="userSpaceOnUse">
<stop offset="0.05" stop-color="#CF9F66"/>
<stop offset="0.31" stop-color="#7C4A1A"/>
<stop offset="0.51" stop-color="#FFDC9C"/>
<stop offset="0.69" stop-color="#946331"/>
<stop offset="0.92" stop-color="#916230"/>
</linearGradient>
<linearGradient id="paint14_linear_410_2805" x1="6.15241" y1="44.1919" x2="7.91595" y2="44.1919" gradientUnits="userSpaceOnUse">
<stop offset="0.05" stop-color="#CF9F66"/>
<stop offset="0.31" stop-color="#7C4A1A"/>
<stop offset="0.51" stop-color="#FFDC9C"/>
<stop offset="0.69" stop-color="#946331"/>
<stop offset="0.92" stop-color="#916230"/>
</linearGradient>
<linearGradient id="paint15_linear_410_2805" x1="8.69385" y1="44.1919" x2="10.5425" y2="44.1919" gradientUnits="userSpaceOnUse">
<stop offset="0.05" stop-color="#CF9F66"/>
<stop offset="0.31" stop-color="#7C4A1A"/>
<stop offset="0.51" stop-color="#FFDC9C"/>
<stop offset="0.69" stop-color="#946331"/>
<stop offset="0.92" stop-color="#916230"/>
</linearGradient>
<linearGradient id="paint16_linear_410_2805" x1="11.427" y1="44.1881" x2="13.1104" y2="44.1881" gradientUnits="userSpaceOnUse">
<stop offset="0.05" stop-color="#CF9F66"/>
<stop offset="0.31" stop-color="#7C4A1A"/>
<stop offset="0.51" stop-color="#FFDC9C"/>
<stop offset="0.69" stop-color="#946331"/>
<stop offset="0.92" stop-color="#916230"/>
</linearGradient>
<linearGradient id="paint17_linear_410_2805" x1="13.9277" y1="44.1919" x2="15.652" y2="44.1919" gradientUnits="userSpaceOnUse">
<stop offset="0.05" stop-color="#CF9F66"/>
<stop offset="0.31" stop-color="#7C4A1A"/>
<stop offset="0.51" stop-color="#FFDC9C"/>
<stop offset="0.69" stop-color="#946331"/>
<stop offset="0.92" stop-color="#916230"/>
</linearGradient>
<linearGradient id="paint18_linear_410_2805" x1="16.389" y1="44.2101" x2="18.2243" y2="44.2101" gradientUnits="userSpaceOnUse">
<stop offset="0.05" stop-color="#CF9F66"/>
<stop offset="0.31" stop-color="#7C4A1A"/>
<stop offset="0.51" stop-color="#FFDC9C"/>
<stop offset="0.69" stop-color="#946331"/>
<stop offset="0.92" stop-color="#916230"/>
</linearGradient>
<linearGradient id="paint19_linear_410_2805" x1="19.1399" y1="44.1881" x2="20.499" y2="44.1881" gradientUnits="userSpaceOnUse">
<stop offset="0.05" stop-color="#CF9F66"/>
<stop offset="0.31" stop-color="#7C4A1A"/>
<stop offset="0.51" stop-color="#FFDC9C"/>
<stop offset="0.69" stop-color="#946331"/>
<stop offset="0.92" stop-color="#916230"/>
</linearGradient>
<linearGradient id="paint20_linear_410_2805" x1="20.6548" y1="44.1881" x2="22.3299" y2="44.1881" gradientUnits="userSpaceOnUse">
<stop offset="0.05" stop-color="#CF9F66"/>
<stop offset="0.31" stop-color="#7C4A1A"/>
<stop offset="0.51" stop-color="#FFDC9C"/>
<stop offset="0.69" stop-color="#946331"/>
<stop offset="0.92" stop-color="#916230"/>
</linearGradient>
<linearGradient id="paint21_linear_410_2805" x1="23.063" y1="44.1881" x2="23.4006" y2="44.1881" gradientUnits="userSpaceOnUse">
<stop offset="0.05" stop-color="#CF9F66"/>
<stop offset="0.31" stop-color="#7C4A1A"/>
<stop offset="0.51" stop-color="#FFDC9C"/>
<stop offset="0.69" stop-color="#946331"/>
<stop offset="0.92" stop-color="#916230"/>
</linearGradient>
<linearGradient id="paint22_linear_410_2805" x1="24.3647" y1="44.1881" x2="26.0487" y2="44.1881" gradientUnits="userSpaceOnUse">
<stop offset="0.05" stop-color="#CF9F66"/>
<stop offset="0.31" stop-color="#7C4A1A"/>
<stop offset="0.51" stop-color="#FFDC9C"/>
<stop offset="0.69" stop-color="#946331"/>
<stop offset="0.92" stop-color="#916230"/>
</linearGradient>
<linearGradient id="paint23_linear_410_2805" x1="26.9243" y1="44.1941" x2="28.7193" y2="44.1941" gradientUnits="userSpaceOnUse">
<stop offset="0.05" stop-color="#CF9F66"/>
<stop offset="0.31" stop-color="#7C4A1A"/>
<stop offset="0.51" stop-color="#FFDC9C"/>
<stop offset="0.69" stop-color="#946331"/>
<stop offset="0.92" stop-color="#916230"/>
</linearGradient>
<clipPath id="clip0_410_2805">
<rect width="40" height="46" fill="white"/>
</clipPath>
</defs>
</svg>
