<svg width="40" height="40" viewBox="0 0 40 40" fill="none" xmlns="http://www.w3.org/2000/svg">
<rect width="40" height="40" rx="4" fill="url(#paint0_linear_267_1115)"/>
<path d="M23.5368 24.9481L20.0012 21.4126L16.4657 24.9481C16.2782 25.1357 16.0238 25.241 15.7586 25.241C15.4934 25.241 15.239 25.1357 15.0515 24.9481C14.8639 24.7606 14.7586 24.5062 14.7586 24.241C14.7586 23.9758 14.8639 23.7214 15.0515 23.5339L18.587 19.9984L15.0515 16.4628C14.8639 16.2753 14.7586 16.0209 14.7586 15.7557C14.7586 15.4905 14.8639 15.2362 15.0515 15.0486C15.239 14.8611 15.4934 14.7557 15.7586 14.7557C16.0238 14.7557 16.2782 14.8611 16.4657 15.0486L20.0012 18.5842L23.5368 15.0486C23.7243 14.8611 23.9786 14.7557 24.2439 14.7557C24.5091 14.7557 24.7634 14.8611 24.951 15.0486C25.1385 15.2362 25.2439 15.4905 25.2439 15.7557C25.2439 16.0209 25.1385 16.2753 24.951 16.4628L21.4154 19.9984L24.951 23.5339C25.1385 23.7214 25.2439 23.9758 25.2439 24.241C25.2439 24.5062 25.1385 24.7606 24.951 24.9481C24.7634 25.1357 24.5091 25.241 24.2439 25.241C23.9786 25.241 23.7243 25.1357 23.5368 24.9481Z" fill="#191919"/>
<defs>
<linearGradient id="paint0_linear_267_1115" x1="9.3322e-09" y1="16.4571" x2="39.9994" y2="16.2376" gradientUnits="userSpaceOnUse">
<stop offset="0.05" stop-color="#CF9F66"/>
<stop offset="0.466346" stop-color="#FFDC9C"/>
<stop offset="0.985577" stop-color="#946331"/>
</linearGradient>
</defs>
</svg>
