<svg width="4440" height="104" viewBox="0 0 4440 104" fill="none" xmlns="http://www.w3.org/2000/svg">
<g clip-path="url(#clip0_429_4056)">
<mask id="mask0_429_4056" style="mask-type:luminance" maskUnits="userSpaceOnUse" x="0" y="0" width="4440" height="267">
<path d="M1440 0H0V266.264H1440V0Z" fill="white"/>
</mask>
<g mask="url(#mask0_429_4056)">
<path d="M84.1507 105.756L82.5966 104.452C87.3414 98.0105 88.9928 92.5208 87.5484 87.9835C86.104 83.4487 82.6939 78.9214 77.3179 74.404L68.3671 66.8826L48.652 90.317L54.6441 95.3504C58.2439 98.3744 62.1804 98.9479 66.4537 97.0706C67.948 96.3925 69.7741 94.7721 71.932 92.2092L72.5531 91.4688L73.8853 92.5881L54.1726 116.023L52.8405 114.903C56.7371 110.271 58.3387 106.464 57.6476 103.485C56.9541 100.506 55.597 98.1675 53.5764 96.4698L47.6591 91.4987L25.8933 117.371L36.9147 126.63C40.0704 129.28 42.9617 131.25 45.5885 132.529C48.2129 133.81 51.4934 133.937 55.4299 132.91C59.364 131.883 63.8169 128.919 68.7887 124.01L70.3429 125.317L53.9805 143.114L10.7808 106.821L11.8385 105.564L18.7911 111.406L61.2674 60.9143L54.3148 55.0731L55.4349 53.7444L97.3773 88.9832L84.1507 105.754V105.756Z" fill="url(#paint0_linear_429_4056)"/>
<path d="M58.5007 145.401L65.825 151.553L109.297 99.8779L101.972 93.7252L102.718 92.8376L123.579 110.364L122.833 111.251L115.436 105.036L96.1574 127.954L102.075 132.925C102.943 132.644 103.811 132.365 104.764 132.282L139.11 124.925L131.936 118.897L132.681 118.01L149.251 131.931L148.505 132.818L140.145 125.795L109.703 132.267C112.288 132.798 114.658 134.032 116.878 135.897C125.976 143.541 130.017 161.7 114.905 180.42C109.531 186.506 105.268 187.971 101.127 184.491C94.6905 179.084 97.2575 169.129 100.296 159.062L100.835 157.372C101.626 154.63 102.429 152.024 103.073 149.157C104.679 141.546 105.056 137.196 101.85 134.252C99.7297 135.122 97.8063 136.658 95.9403 138.876C91.3377 144.346 87.8926 154.448 87.2066 169.518L86.4607 170.406L57.7573 146.291L58.5032 145.403L58.5007 145.401ZM71.9643 156.711L85.9443 168.459C86.8623 153.71 90.3848 143.67 95.0473 138.128C96.8509 135.984 98.8366 134.374 100.885 133.441L95.4115 128.842L71.9643 156.714V156.711ZM110.105 152.797C110.19 159.302 108.319 165.43 105.5 173.28C104.674 175.614 102.095 182.28 104.537 184.332C106.607 186.072 109.883 184.279 114.012 179.672C128.096 161.727 124.783 144.054 116.127 136.785C112.946 134.112 108.389 132.175 103.035 133.736C111.205 141.736 110.105 152.797 110.105 152.797Z" fill="url(#paint1_linear_429_4056)"/>
<path d="M-12.8659 124.005L-14.42 122.701C-9.67521 116.259 -8.02375 110.77 -9.46815 106.232C-10.9126 101.698 -14.3227 97.1702 -19.6987 92.6528L-28.6495 85.1314L-48.3646 108.566L-42.3725 113.599C-38.7727 116.623 -34.8362 117.197 -30.5629 115.319C-29.0686 114.641 -27.2425 113.021 -25.0846 110.458L-24.4635 109.718L-23.1313 110.837L-42.844 134.271L-44.1761 133.152C-40.2795 128.52 -38.6779 124.713 -39.369 121.734C-40.0625 118.755 -41.4196 116.416 -43.4402 114.719L-49.3575 109.747L-71.1233 135.62L-60.1019 144.879C-56.9462 147.529 -54.0549 149.499 -51.4281 150.778C-48.8037 152.059 -45.5232 152.186 -41.5867 151.159C-37.6526 150.132 -33.1997 147.168 -28.2279 142.259L-26.6737 143.565L-43.0361 161.363L-86.2358 125.07L-85.1781 123.813L-78.2255 129.654L-35.7492 79.1631L-42.7018 73.322L-41.5817 71.9932L0.360748 107.232L-12.8659 124.003V124.005Z" fill="url(#paint2_linear_429_4056)"/>
<path d="M-35.7344 -33.2917L-28.4101 -27.1389L15.0616 -78.8142L7.73729 -84.967L8.48319 -85.8545L29.3434 -68.3286L28.5975 -67.4411L21.2009 -73.6562L1.92228 -50.7378L7.83957 -45.7667C8.70771 -46.0485 9.57585 -46.3276 10.5288 -46.4099L44.8751 -53.7668L37.7005 -59.795L38.4464 -60.6825L55.0158 -46.7615L54.2699 -45.8739L45.9103 -52.8968L15.4682 -46.4249C18.0526 -45.8939 20.4226 -44.6598 22.6428 -42.795C31.7408 -35.1514 35.7821 -16.9923 20.6695 1.72782C15.2961 7.81329 11.0327 9.27921 6.89161 5.79894C0.455421 0.391579 3.02242 -9.56306 6.06089 -19.6299L6.59974 -21.3202C7.39054 -24.0625 8.19381 -26.6677 8.83743 -29.5347C10.444 -37.1458 10.8207 -41.4962 7.61506 -44.4404C5.49461 -43.5704 3.57124 -42.0347 1.70525 -39.8159C-2.89737 -34.3462 -6.34248 -24.2445 -7.02851 -9.17416L-7.7744 -8.28663L-36.4778 -32.4016L-35.7319 -33.2892L-35.7344 -33.2917ZM-22.2708 -21.9808L-8.2908 -10.2337C-7.37277 -24.9824 -3.85033 -35.0218 0.812157 -40.5638C2.61578 -42.7078 4.60152 -44.3183 6.64962 -45.2507L1.17637 -49.8503L-22.2708 -21.9783V-21.9808ZM15.8698 -25.8973C15.9547 -19.393 14.0837 -13.2652 11.2647 -5.41467C10.439 -3.08119 7.85953 3.58517 10.3018 5.63692C12.3723 7.37705 15.6478 5.58453 19.7764 0.977417C33.8612 -16.9674 30.5483 -34.6404 21.8919 -41.91C18.7112 -44.5826 14.1535 -46.5196 8.80001 -44.959C16.97 -36.9589 15.8698 -25.8973 15.8698 -25.8973Z" fill="url(#paint3_linear_429_4056)"/>
<path d="M86.775 8.86058L85.2208 7.55674C89.9657 1.11477 91.6171 -4.37488 90.1727 -8.91218C88.7283 -13.447 85.3181 -17.9743 79.9422 -22.4917L70.9914 -30.0131L51.2762 -6.57869L57.2684 -1.54529C60.8681 1.47875 64.8047 2.05212 69.078 0.174873C70.5723 -0.503227 72.3984 -2.12369 74.5562 -4.68652L75.1774 -5.42694L76.5095 -4.30758L56.7969 19.1268L55.4647 18.0075C59.3614 13.3754 60.9629 9.56858 60.2719 6.58941C59.5784 3.61025 58.2213 1.27182 56.2007 -0.425922L50.2833 -5.397L28.5176 20.4755L39.5389 29.7346C42.6946 32.3847 45.5859 34.3542 48.2128 35.6331C50.8372 36.9145 54.1176 37.0417 58.0542 36.0146C61.9882 34.9874 66.4412 32.0232 71.413 27.1145L72.9671 28.4208L56.6048 46.2185L13.405 9.92511L14.4628 8.66862L21.4153 14.5098L63.8916 -35.9814L56.9391 -41.8226L58.0592 -43.1514L100.002 -7.91248L86.775 8.85809V8.86058Z" fill="url(#paint4_linear_429_4056)"/>
<path d="M61.1253 48.5043L68.4495 54.6571L111.921 2.9817L104.597 -3.17106L105.343 -4.05859L126.203 13.4674L125.457 14.3549L118.061 8.13975L98.7819 31.0581L104.699 36.0292C105.567 35.7475 106.435 35.4683 107.388 35.386L141.735 28.0291L134.56 22.001L135.306 21.1134L151.875 35.0345L151.13 35.922L142.77 28.8992L112.328 35.371C114.912 35.902 117.282 37.1361 119.502 39.0009C128.6 46.6445 132.642 64.8037 117.529 83.5238C112.156 89.6093 107.892 91.0752 103.751 87.5949C97.3151 82.1875 99.882 72.2329 102.921 62.1661L103.459 60.4758C104.25 57.7335 105.053 55.1282 105.697 52.2613C107.304 44.6501 107.68 40.2998 104.475 37.3555C102.354 38.2256 100.431 39.7612 98.5649 41.98C93.9622 47.4497 90.5172 57.5515 89.8311 72.6218L89.0852 73.5093L60.3818 49.3943L61.1277 48.5068L61.1253 48.5043ZM74.5888 59.8151L88.5688 71.5623C89.4869 56.8136 93.0093 46.7741 97.6718 41.2321C99.4754 39.0881 101.461 37.4777 103.509 36.5453L98.036 31.9456L74.5888 59.8176V59.8151ZM112.729 55.9011C112.814 62.4054 110.943 68.5332 108.124 76.3837C107.299 78.7172 104.719 85.3836 107.161 87.4353C109.232 89.1755 112.507 87.383 116.636 82.7759C130.721 64.8311 127.408 47.1581 118.752 39.8884C115.571 37.2159 111.013 35.2788 105.66 36.8395C113.83 44.8396 112.729 55.9011 112.729 55.9011Z" fill="url(#paint5_linear_429_4056)"/>
<path d="M-12.4069 24.8979L-13.961 23.594C-9.21622 17.1521 -7.56477 11.6625 -9.00916 7.12517C-10.4536 2.59037 -13.8637 -1.93695 -19.2397 -6.45431L-28.1905 -13.9758L-47.9057 9.45861L-41.9135 14.492C-38.3138 17.516 -34.3772 18.0895 -30.1039 16.2122C-28.6096 15.5341 -26.7835 13.9137 -24.6256 11.3508L-24.0045 10.6104L-22.6723 11.7298L-42.385 35.1642L-43.7172 34.0448C-39.8205 29.4128 -38.219 25.6059 -38.91 22.6268C-39.6035 19.6476 -40.9606 17.3092 -42.9812 15.6114L-48.8985 10.6403L-70.6643 36.5129L-59.643 45.772C-56.4872 48.4221 -53.5959 50.3916 -50.9691 51.6705C-48.3447 52.9519 -45.0643 53.079 -41.1277 52.0519C-37.1937 51.0248 -32.7407 48.0606 -27.7689 43.1518L-26.2147 44.4582L-42.5771 62.2558L-85.7769 25.9624L-84.7191 24.706L-77.7666 30.5471L-35.2902 -19.9441L-42.2428 -25.7852L-41.1227 -27.114L0.819733 8.12488L-12.4069 24.8954V24.8979Z" fill="url(#paint6_linear_429_4056)"/>
<path d="M-38.0566 64.5418L-30.7324 70.6947L12.7393 19.0193L5.41503 12.8665L6.16092 11.979L27.0211 29.505L26.2752 30.3924L18.8786 24.1773L-0.39999 47.0957L5.51731 52.0668C6.38544 51.7851 7.25358 51.5059 8.20654 51.4236L42.5528 44.0667L35.3782 38.0386L36.1241 37.151L52.6935 51.0721L51.9476 51.9596L43.5881 44.9367L13.1459 51.4086C15.7304 51.9396 18.1003 53.1737 20.3205 55.0385C29.4185 62.6821 33.4598 80.8413 18.3473 99.5614C12.9738 105.647 8.71045 107.113 4.56934 103.632C-1.86684 98.2251 0.70015 88.2704 3.73862 78.2036L4.27747 76.5133C5.06827 73.771 5.87155 71.1658 6.51517 68.2988C8.12172 60.6876 8.4984 56.3373 5.29279 53.3931C3.17234 54.2631 1.24897 55.7988 -0.61702 58.0176C-5.21964 63.4873 -8.66475 73.589 -9.35077 88.6593L-10.0967 89.5469L-38.8 65.4319L-38.0541 64.5443L-38.0566 64.5418ZM-24.5931 75.8552L-10.6131 87.6023C-9.69503 72.8536 -6.1726 62.8142 -1.51011 57.2722C0.293518 55.1282 2.27925 53.5177 4.32736 52.5853L-1.14589 47.9857L-24.5931 75.8577V75.8552ZM13.5476 71.9387C13.6324 78.443 11.7614 84.5708 8.94245 92.4213C8.11672 94.7548 5.53727 101.421 7.97952 103.473C10.0501 105.213 13.3255 103.421 17.4542 98.8135C31.5389 80.8687 28.2261 63.1957 19.5696 55.926C16.389 53.2535 11.8312 51.3164 6.47774 52.877C14.6477 60.8772 13.5476 71.9387 13.5476 71.9387Z" fill="url(#paint7_linear_429_4056)"/>
<path d="M556.312 -37.2255L563.637 -31.0727L607.108 -82.748L599.784 -88.9009L600.53 -89.7883L621.39 -72.2624L620.644 -71.3749L613.248 -77.59L593.969 -54.6717L599.886 -49.7006C600.754 -49.9823 601.623 -50.2615 602.575 -50.3437L636.922 -57.7007L629.747 -63.7288L630.493 -64.6163L647.062 -50.6953L646.317 -49.8078L637.957 -56.8306L607.515 -50.3587C610.099 -49.8277 612.469 -48.5936 614.689 -46.7289C623.787 -39.0853 627.829 -20.9261 612.716 -2.20602C607.343 3.87945 603.079 5.34537 598.938 1.8651C592.502 -3.54226 595.069 -13.4969 598.108 -23.5637L598.646 -25.254C599.437 -27.9963 600.24 -30.6015 600.884 -33.4685C602.491 -41.0797 602.867 -45.43 599.662 -48.3743C597.541 -47.5042 595.618 -45.9685 593.752 -43.7497C589.149 -38.28 585.704 -28.1783 585.018 -13.108L584.272 -12.2205L555.569 -36.3355L556.315 -37.223L556.312 -37.2255ZM569.776 -25.9146L583.756 -14.1675C584.674 -28.9163 588.196 -38.9556 592.859 -44.4976C594.662 -46.6416 596.648 -48.2521 598.696 -49.1845L593.223 -53.7841L569.776 -25.9121V-25.9146ZM607.916 -29.8312C608.001 -23.3269 606.13 -17.199 603.311 -9.3485C602.486 -7.01503 599.906 -0.348671 602.348 1.70309C604.419 3.44321 607.694 1.65069 611.823 -2.95642C625.908 -20.9012 622.595 -38.5742 613.939 -45.8438C610.758 -48.5163 606.2 -50.4535 600.847 -48.8928C609.017 -40.8927 607.916 -29.8312 607.916 -29.8312Z" fill="url(#paint8_linear_429_4056)"/>
<path d="M459.295 -18.9767L466.619 -12.8239L510.091 -64.4993L502.767 -70.652L503.513 -71.5396L524.373 -54.0136L523.627 -53.1261L516.23 -59.3412L496.952 -36.4229L502.869 -31.4517C503.737 -31.7335 504.605 -32.0127 505.558 -32.095L539.905 -39.4519L532.73 -45.48L533.476 -46.3675L550.045 -32.4465L549.299 -31.559L540.94 -38.5818L510.498 -32.1099C513.082 -31.5789 515.452 -30.3449 517.672 -28.4801C526.77 -20.8365 530.812 -2.67728 515.699 16.0428C510.326 22.1283 506.062 23.5942 501.921 20.1139C495.485 14.7065 498.052 4.75189 501.09 -5.31493L501.629 -7.00521C502.42 -9.74754 503.223 -12.3527 503.867 -15.2197C505.473 -22.8309 505.85 -27.1812 502.645 -30.1255C500.524 -29.2554 498.601 -27.7197 496.735 -25.5009C492.132 -20.0312 488.687 -9.92947 488.001 5.14085L487.255 6.02831L458.552 -18.0867L459.298 -18.9742L459.295 -18.9767ZM472.759 -7.66584L486.739 4.08131C487.657 -10.6674 491.179 -20.7068 495.842 -26.2488C497.645 -28.3928 499.631 -30.0033 501.679 -30.9357L496.206 -35.5353L472.759 -7.66334V-7.66584ZM510.902 -11.5799C510.987 -5.07558 509.116 1.05225 506.297 8.90278C505.471 11.2362 502.892 17.9026 505.334 19.9544C507.404 21.6945 510.68 19.902 514.808 15.2949C528.893 -2.64986 525.58 -20.3229 516.924 -27.5925C513.743 -30.2651 509.186 -32.2021 503.832 -30.6415C512.002 -22.6414 510.902 -11.5799 510.902 -11.5799Z" fill="url(#paint9_linear_429_4056)"/>
<path d="M581.805 23.175L580.251 21.8711C584.996 15.4292 586.647 9.93951 585.203 5.40221C583.758 0.867405 580.348 -3.65992 574.972 -8.17727L566.021 -15.6987L546.306 7.73571L552.298 12.7691C555.898 15.7931 559.835 16.3666 564.108 14.4893C565.602 13.8112 567.428 12.1908 569.586 9.62793L570.207 8.88745L571.54 10.0068L551.827 33.4412L550.495 32.3219C554.391 27.6898 555.993 23.883 555.302 20.9039C554.608 17.9247 553.251 15.5862 551.231 13.8885L545.313 8.9174L523.548 34.79L534.569 44.049C537.725 46.6991 540.616 48.6687 543.243 49.9476C545.867 51.229 549.148 51.3561 553.084 50.329C557.018 49.3018 561.471 46.3376 566.443 41.4289L567.997 42.7352L551.635 60.5329L508.435 24.2395L509.493 22.983L516.445 28.8242L558.922 -21.667L551.969 -27.5082L553.089 -28.8369L595.032 6.40192L581.805 23.1725V23.175Z" fill="url(#paint10_linear_429_4056)"/>
<path d="M556.155 62.8193L563.479 68.972L606.951 17.2966L599.626 11.1439L600.372 10.2563L621.233 27.7823L620.487 28.6698L613.09 22.4548L593.811 45.3731L599.729 50.3442C600.597 50.0624 601.465 49.7833 602.418 49.701L636.764 42.3441L629.59 36.3159L630.336 35.4284L646.905 49.3494L646.159 50.237L637.799 43.2142L607.357 49.686C609.942 50.217 612.312 51.4511 614.532 53.3159C623.63 60.9595 627.671 79.1186 612.559 97.8387C607.185 103.924 602.922 105.39 598.781 101.91C592.345 96.5025 594.912 86.5479 597.95 76.481L598.489 74.7907C599.28 72.0484 600.083 69.4432 600.727 66.5763C602.333 58.9651 602.71 54.6147 599.504 51.6705C597.384 52.5405 595.46 54.0762 593.594 56.295C588.992 61.7647 585.547 71.8664 584.861 86.9368L584.115 87.8243L555.411 63.7093L556.157 62.8218L556.155 62.8193ZM569.618 74.1301L583.598 85.8772C584.516 71.1285 588.039 61.0891 592.701 55.5471C594.505 53.4031 596.491 51.7926 598.539 50.8602L593.066 46.2606L569.618 74.1326V74.1301ZM607.759 70.216C607.844 76.7203 605.973 82.8482 603.154 90.6987C602.328 93.0322 599.749 99.6985 602.191 101.75C604.262 103.49 607.537 101.698 611.666 97.0908C625.75 79.146 622.437 61.473 613.781 54.2034C610.6 51.5308 606.043 49.5938 600.689 51.1544C608.859 59.1545 607.759 70.216 607.759 70.216Z" fill="url(#paint11_linear_429_4056)"/>
<path d="M358.816 -3.26846L366.14 2.88437L409.612 -48.791L402.288 -54.9438L403.034 -55.8313L423.894 -38.3053L423.148 -37.4179L415.751 -43.633L396.473 -20.7146L402.39 -15.7435C403.258 -16.0252 404.126 -16.3044 405.079 -16.3867L439.426 -23.7436L432.251 -29.7717L432.997 -30.6593L449.566 -16.7382L448.82 -15.8507L440.461 -22.8736L410.019 -16.4017C412.603 -15.8707 414.973 -14.6366 417.193 -12.7718C426.291 -5.12822 430.333 13.031 415.22 31.7511C409.847 37.8365 405.583 39.3024 401.442 35.8221C395.006 30.4148 397.573 20.4601 400.611 10.3933L401.15 8.70304C401.941 5.96072 402.744 3.35552 403.388 0.488544C404.995 -7.12265 405.371 -11.473 402.166 -14.4172C400.045 -13.5472 398.122 -12.0115 396.256 -9.79268C391.653 -4.32299 388.208 5.77872 387.522 20.849L386.776 21.7366L358.073 -2.37843L358.819 -3.26596L358.816 -3.26846ZM372.28 8.04491L386.26 19.792C387.178 5.04328 390.7 -4.9961 395.363 -10.5381C397.166 -12.6821 399.152 -14.2926 401.2 -15.225L395.727 -19.8246L372.28 8.04741V8.04491ZM410.42 4.12838C410.505 10.6327 408.634 16.7605 405.815 24.611C404.99 26.9445 402.41 33.6109 404.852 35.6626C406.923 37.4027 410.198 35.6103 414.327 31.0032C428.412 13.0584 425.099 -4.61464 416.442 -11.8843C413.262 -14.5568 408.704 -16.4939 403.351 -14.9333C411.521 -6.93315 410.42 4.12838 410.42 4.12838Z" fill="url(#paint12_linear_429_4056)"/>
<path d="M482.623 39.2126L481.069 37.9088C485.814 31.4668 487.465 25.9772 486.021 21.4399C484.576 16.9051 481.166 12.3777 475.79 7.86039L466.839 0.338959L447.124 23.7734L453.116 28.8068C456.716 31.8308 460.653 32.4042 464.926 30.5269C466.42 29.8488 468.246 28.2284 470.404 25.6655L471.025 24.9251L472.357 26.0445L452.645 49.4789L451.313 48.3595C455.209 43.7275 456.811 39.9206 456.12 36.9415C455.426 33.9623 454.069 31.6239 452.049 29.9261L446.131 24.9551L424.365 50.8276L435.387 60.0867C438.543 62.7368 441.434 64.7063 444.061 65.9852C446.685 67.2666 449.966 67.3937 453.902 66.3666C457.836 65.3395 462.289 62.3753 467.261 57.4665L468.815 58.7729L452.453 76.5705L409.253 40.2772L410.311 39.0207L417.263 44.8618L459.74 -5.62938L452.787 -11.4705L453.907 -12.7993L495.85 22.4396L482.623 39.2101V39.2126Z" fill="url(#paint13_linear_429_4056)"/>
<path d="M456.973 78.8566L464.297 85.0094L507.769 33.334L500.445 27.1812L501.19 26.2937L522.051 43.8197L521.305 44.7072L513.908 38.492L494.63 61.4104L500.547 66.3815C501.415 66.0998 502.283 65.8206 503.236 65.7383L537.582 58.3814L530.408 52.3533L531.154 51.4657L547.723 65.3868L546.977 66.2743L538.618 59.2514L508.175 65.7233C510.76 66.2543 513.13 67.4884 515.35 69.3532C524.448 76.9968 528.489 95.156 513.377 113.876C508.003 119.962 503.74 121.427 499.599 117.947C493.163 112.54 495.73 102.585 498.768 92.5184L499.307 90.8281C500.098 88.0858 500.901 85.4805 501.545 82.6135C503.151 75.0023 503.528 70.6521 500.322 67.7078C498.202 68.5779 496.279 70.1135 494.413 72.3323C489.81 77.802 486.365 87.9038 485.679 102.974L484.933 103.862L456.229 79.7466L456.975 78.8591L456.973 78.8566ZM470.436 90.1699L484.416 101.917C485.335 87.1683 488.857 77.1289 493.519 71.5869C495.323 69.4429 497.309 67.8325 499.357 66.9001L493.884 62.3004L470.436 90.1724V90.1699ZM508.577 86.2534C508.662 92.7577 506.791 98.8855 503.972 106.736C503.146 109.07 500.567 115.736 503.009 117.788C505.08 119.528 508.355 117.735 512.484 113.128C526.568 95.1834 523.256 77.5104 514.599 70.2407C511.419 67.5682 506.861 65.6311 501.507 67.1917C509.677 75.1919 508.577 86.2534 508.577 86.2534Z" fill="url(#paint14_linear_429_4056)"/>
<path d="M1168.54 119.555L1166.99 118.252C1171.73 111.81 1173.38 106.32 1171.94 101.783C1170.49 97.2478 1167.08 92.7205 1161.71 88.2032L1152.76 80.6817L1133.04 104.116L1139.03 109.15C1142.63 112.174 1146.57 112.747 1150.84 110.87C1152.34 110.192 1154.16 108.571 1156.32 106.008L1156.94 105.268L1158.27 106.387L1138.56 129.822L1137.23 128.702C1141.13 124.07 1142.73 120.263 1142.04 117.284C1141.34 114.305 1139.99 111.967 1137.97 110.269L1132.05 105.298L1110.28 131.17L1121.3 140.429C1124.46 143.08 1127.35 145.049 1129.98 146.328C1132.6 147.609 1135.88 147.737 1139.82 146.709C1143.75 145.682 1148.21 142.718 1153.18 137.809L1154.73 139.116L1138.37 156.913L1095.17 120.62L1096.23 119.363L1103.18 125.205L1145.66 74.7134L1138.7 68.8723L1139.82 67.5435L1181.77 102.782L1168.54 119.553V119.555Z" fill="url(#paint15_linear_429_4056)"/>
<path d="M1071.53 137.804L1069.97 136.501C1074.72 130.059 1076.37 124.569 1074.92 120.032C1073.48 115.497 1070.07 110.97 1064.69 106.452L1055.74 98.9308L1036.03 122.365L1042.02 127.399C1045.62 130.423 1049.56 130.996 1053.83 129.119C1055.32 128.441 1057.15 126.82 1059.31 124.257L1059.93 123.517L1061.26 124.636L1041.55 148.071L1040.22 146.951C1044.11 142.319 1045.71 138.512 1045.02 135.533C1044.33 132.554 1042.97 130.216 1040.95 128.518L1035.03 123.547L1013.27 149.419L1024.29 158.679C1027.45 161.329 1030.34 163.298 1032.96 164.577C1035.59 165.858 1038.87 165.986 1042.8 164.958C1046.74 163.931 1051.19 160.967 1056.16 156.058L1057.72 157.365L1041.36 175.162L998.156 138.869L999.213 137.613L1006.17 143.454L1048.64 92.9624L1041.69 87.1213L1042.81 85.7925L1084.75 121.031L1071.53 137.802V137.804Z" fill="url(#paint16_linear_429_4056)"/>
<path d="M1369.45 -13.1058L1367.9 -14.4096C1372.64 -20.8516 1374.29 -26.3412 1372.85 -30.8785C1371.4 -35.4134 1367.99 -39.9407 1362.62 -44.458L1353.67 -51.9795L1333.95 -28.5451L1339.94 -23.5117C1343.54 -20.4876 1347.48 -19.9142 1351.75 -21.7914C1353.25 -22.4695 1355.07 -24.09 1357.23 -26.6528L1357.85 -27.3932L1359.19 -26.2739L1339.47 -2.83948L1338.14 -3.95884C1342.04 -8.59088 1343.64 -12.3977 1342.95 -15.3769C1342.25 -18.3561 1340.9 -20.6945 1338.88 -22.3923L1332.96 -27.3634L1311.19 -1.49077L1322.22 7.76828C1325.37 10.4184 1328.26 12.3879 1330.89 13.6668C1333.51 14.9482 1336.79 15.0754 1340.73 14.0483C1344.66 13.0211 1349.12 10.0569 1354.09 5.14812L1355.64 6.45445L1339.28 24.2522L1296.08 -12.0413L1297.14 -13.2978L1304.09 -7.45656L1346.57 -57.9477L1339.62 -63.7889L1340.74 -65.1177L1382.68 -29.8788L1369.45 -13.1083V-13.1058Z" fill="url(#paint17_linear_429_4056)"/>
<path d="M1343.8 26.5409L1351.13 32.6936L1394.6 -18.9817L1387.27 -25.1345L1388.02 -26.022L1408.88 -8.49608L1408.13 -7.60855L1400.74 -13.8236L1381.46 9.0947L1387.37 14.0658C1388.24 13.7841 1389.11 13.5049 1390.06 13.4226L1424.41 6.0657L1417.24 0.0375328L1417.98 -0.849936L1434.55 13.0711L1433.81 13.9586L1425.45 6.93577L1395 13.4076C1397.59 13.9387 1399.96 15.1727 1402.18 17.0375C1411.28 24.6811 1415.32 42.8402 1400.2 61.5603C1394.83 67.6458 1390.57 69.1117 1386.43 65.6315C1379.99 60.2241 1382.56 50.2695 1385.6 40.2026L1386.14 38.5124C1386.93 35.77 1387.73 33.1648 1388.37 30.2979C1389.98 22.6867 1390.36 18.3363 1387.15 15.3921C1385.03 16.2621 1383.11 17.7979 1381.24 20.0166C1376.64 25.4863 1373.19 35.588 1372.51 50.6584L1371.76 51.5459L1343.06 27.4309L1343.8 26.5434L1343.8 26.5409ZM1357.26 37.8517L1371.24 49.5988C1372.16 34.8501 1375.69 24.8107 1380.35 19.2687C1382.15 17.1247 1384.14 15.5142 1386.18 14.5818L1380.71 9.98223L1357.26 37.8542V37.8517ZM1395.41 33.9352C1395.49 40.4395 1393.62 46.5673 1390.8 54.4179C1389.97 56.7513 1387.39 63.4177 1389.84 65.4694C1391.91 67.2096 1395.18 65.417 1399.31 60.8099C1413.4 42.8652 1410.08 25.1921 1401.43 17.9225C1398.25 15.25 1393.69 13.3129 1388.34 14.8735C1396.51 22.8736 1395.41 33.9352 1395.41 33.9352Z" fill="url(#paint18_linear_429_4056)"/>
<path d="M1467.73 69.089L1466.17 67.7852C1470.92 61.3432 1472.57 55.8536 1471.12 51.3163C1469.68 46.7815 1466.27 42.2542 1460.89 37.7369L1451.94 30.2154L1432.23 53.6498L1438.22 58.6832C1441.82 61.7072 1445.76 62.2806 1450.03 60.4034C1451.52 59.7253 1453.35 58.1048 1455.51 55.542L1456.13 54.8016L1457.46 55.9209L1437.75 79.3553L1436.42 78.236C1440.31 73.6039 1441.91 69.7971 1441.22 66.8179C1440.53 63.8388 1439.17 61.5003 1437.15 59.8025L1431.23 54.8315L1409.47 80.7041L1420.49 89.9632C1423.65 92.6133 1426.54 94.5827 1429.16 95.8616C1431.79 97.1431 1435.07 97.2702 1439 96.2431C1442.94 95.216 1447.39 92.2518 1452.36 87.343L1453.92 88.6493L1437.56 106.447L1394.36 70.1536L1395.41 68.8971L1402.37 74.7383L1444.84 24.2471L1437.89 18.4059L1439.01 17.0771L1480.95 52.316L1467.73 69.0866V69.089Z" fill="url(#paint19_linear_429_4056)"/>
<path d="M1272.43 5.14568L1270.88 3.84184C1275.63 -2.60014 1277.28 -8.08972 1275.83 -12.627C1274.39 -17.1618 1270.98 -21.6892 1265.6 -26.2066L1256.65 -33.728L1236.94 -10.2936L1242.93 -5.26019C1246.53 -2.23616 1250.46 -1.66272 1254.74 -3.53997C1256.23 -4.21807 1258.06 -5.83854 1260.22 -8.40136L1260.84 -9.14178L1262.17 -8.02242L1242.46 15.412L1241.12 14.2926C1245.02 9.66059 1246.62 5.85373 1245.93 2.87457C1245.24 -0.104591 1243.88 -2.44308 1241.86 -4.14083L1235.94 -9.1119L1214.18 16.7607L1225.2 26.0198C1228.35 28.6699 1231.25 30.6394 1233.87 31.9183C1236.5 33.1997 1239.78 33.3268 1243.71 32.2997C1247.65 31.2726 1252.1 28.3084 1257.07 23.3996L1258.63 24.706L1242.26 42.5036L1199.06 6.21021L1200.12 4.95377L1207.07 10.7949L1249.55 -39.6963L1242.6 -45.5374L1243.72 -46.8662L1285.66 -11.6273L1272.43 5.14318V5.14568Z" fill="url(#paint20_linear_429_4056)"/>
<path d="M1246.78 44.7896L1254.11 50.9425L1297.58 -0.732902L1290.26 -6.88572L1291 -7.77319L1311.86 9.75276L1311.12 10.6402L1303.72 4.42515L1284.44 27.3435L1290.36 32.3146C1291.23 32.0329 1292.1 31.7537 1293.05 31.6714L1327.39 24.3145L1320.22 18.2864L1320.97 17.3988L1337.54 31.3198L1336.79 32.2074L1328.43 25.1845L1297.99 31.6564C1300.57 32.1874 1302.94 33.4215 1305.16 35.2863C1314.26 42.9299 1318.3 61.089 1303.19 79.8091C1297.82 85.8946 1293.55 87.3605 1289.41 83.8802C1282.97 78.4729 1285.54 68.5182 1288.58 58.4514L1289.12 56.7611C1289.91 54.0188 1290.71 51.4136 1291.36 48.5466C1292.96 40.9355 1293.34 36.5851 1290.13 33.6409C1288.01 34.5109 1286.09 36.0466 1284.22 38.2654C1279.62 43.7351 1276.18 53.8368 1275.49 68.9071L1274.74 69.7947L1246.04 45.6797L1246.79 44.7921L1246.78 44.7896ZM1260.25 56.1005L1274.23 67.8476C1275.15 53.0989 1278.67 43.0595 1283.33 37.5175C1285.14 35.3735 1287.12 33.763 1289.17 32.8306L1283.7 28.231L1260.25 56.103V56.1005ZM1298.39 52.1865C1298.47 58.6908 1296.6 64.8186 1293.78 72.6691C1292.96 75.0026 1290.38 81.669 1292.82 83.7207C1294.89 85.4608 1298.17 83.6683 1302.3 79.0612C1316.38 61.1164 1313.07 43.4435 1304.41 36.1738C1301.23 33.5013 1296.67 31.5642 1291.32 33.1248C1299.49 41.125 1298.39 52.1865 1298.39 52.1865Z" fill="url(#paint21_linear_429_4056)"/>
<path d="M1370.71 87.3406L1369.15 86.0367C1373.9 79.5947 1375.55 74.1051 1374.11 69.5678C1372.66 65.033 1369.25 60.5057 1363.88 55.9883L1354.93 48.4668L1335.21 71.9012L1341.2 76.9347C1344.8 79.9587 1348.74 80.5321 1353.01 78.6549C1354.51 77.9768 1356.33 76.3563 1358.49 73.7935L1359.11 73.053L1360.44 74.1724L1340.73 97.6068L1339.4 96.4874C1343.3 91.8554 1344.9 88.0486 1344.21 85.0694C1343.51 82.0902 1342.16 79.7518 1340.13 78.0541L1334.22 73.0829L1312.45 98.9555L1323.47 108.215C1326.63 110.865 1329.52 112.834 1332.15 114.113C1334.77 115.395 1338.05 115.522 1341.99 114.495C1345.92 113.467 1350.38 110.503 1355.35 105.594L1356.9 106.901L1340.54 124.698L1297.34 88.4051L1298.4 87.1486L1305.35 92.9897L1347.83 42.4985L1340.87 36.6574L1341.99 35.3286L1383.94 70.5675L1370.71 87.3381V87.3406Z" fill="url(#paint22_linear_429_4056)"/>
<path d="M1345.06 126.984L1352.38 133.137L1395.85 81.4619L1388.53 75.3092L1389.28 74.4216L1410.14 91.9476L1409.39 92.8351L1401.99 86.62L1382.72 109.538L1388.63 114.509C1389.5 114.228 1390.37 113.948 1391.32 113.866L1425.67 106.509L1418.49 100.481L1419.24 99.5937L1435.81 113.515L1435.06 114.402L1426.7 107.379L1396.26 113.851C1398.85 114.382 1401.22 115.616 1403.44 117.481C1412.53 125.125 1416.57 143.284 1401.46 162.004C1396.09 168.089 1391.83 169.555 1387.68 166.075C1381.25 160.668 1383.82 150.713 1386.85 140.646L1387.39 138.956C1388.18 136.214 1388.99 133.609 1389.63 130.742C1391.24 123.13 1391.61 118.78 1388.41 115.836C1386.29 116.706 1384.36 118.241 1382.5 120.46C1377.9 125.93 1374.45 136.032 1373.76 151.102L1373.02 151.99L1344.31 127.875L1345.06 126.987L1345.06 126.984ZM1358.52 138.295L1372.5 150.042C1373.42 135.294 1376.94 125.254 1381.6 119.712C1383.41 117.568 1385.39 115.958 1387.44 115.025L1381.97 110.426L1358.52 138.298V138.295ZM1396.66 134.379C1396.75 140.883 1394.88 147.011 1392.06 154.862C1391.23 157.195 1388.65 163.861 1391.09 165.913C1393.17 167.653 1396.44 165.861 1400.57 161.254C1414.65 143.309 1411.34 125.636 1402.68 118.366C1399.5 115.694 1394.95 113.757 1389.59 115.317C1397.76 123.317 1396.66 134.379 1396.66 134.379Z" fill="url(#paint23_linear_429_4056)"/>
<path d="M1270.23 103.049L1268.68 101.745C1273.42 95.3035 1275.07 89.8138 1273.63 85.2765C1272.18 80.7417 1268.77 76.2144 1263.4 71.6971L1254.45 64.1756L1234.73 87.61L1240.72 92.6434C1244.32 95.6675 1248.26 96.2408 1252.53 94.3636C1254.03 93.6855 1255.85 92.065 1258.01 89.5022L1258.63 88.7618L1259.96 89.8811L1240.25 113.316L1238.92 112.196C1242.82 107.564 1244.42 103.757 1243.73 100.778C1243.03 97.799 1241.68 95.4605 1239.65 93.7628L1233.74 88.7917L1211.97 114.664L1222.99 123.923C1226.15 126.573 1229.04 128.543 1231.67 129.822C1234.29 131.103 1237.57 131.23 1241.51 130.203C1245.44 129.176 1249.9 126.212 1254.87 121.303L1256.42 122.61L1240.06 140.407L1196.86 104.114L1197.92 102.857L1204.87 108.698L1247.35 58.2073L1240.39 52.3662L1241.51 51.0374L1283.46 86.2762L1270.23 103.047V103.049Z" fill="url(#paint24_linear_429_4056)"/>
<path d="M1244.58 142.693L1251.9 148.846L1295.38 97.1707L1288.05 91.0179L1288.8 90.1304L1309.66 107.656L1308.91 108.544L1301.51 102.329L1282.24 125.247L1288.15 130.218C1289.02 129.936 1289.89 129.657 1290.84 129.575L1325.19 122.218L1318.01 116.19L1318.76 115.302L1335.33 129.223L1334.58 130.111L1326.22 123.088L1295.78 129.56C1298.37 130.091 1300.74 131.325 1302.96 133.19C1312.05 140.833 1316.1 158.993 1300.98 177.713C1295.61 183.798 1291.35 185.264 1287.21 181.784C1280.77 176.376 1283.34 166.422 1286.37 156.355L1286.91 154.665C1287.7 151.922 1288.51 149.317 1289.15 146.45C1290.76 138.839 1291.13 134.489 1287.93 131.544C1285.81 132.414 1283.88 133.95 1282.02 136.169C1277.42 141.639 1273.97 151.74 1273.29 166.811L1272.54 167.698L1243.84 143.583L1244.58 142.696L1244.58 142.693ZM1258.04 154.007L1272.02 165.754C1272.94 151.005 1276.46 140.966 1281.13 135.424C1282.93 133.28 1284.92 131.669 1286.96 130.737L1281.49 126.137L1258.04 154.009V154.007ZM1296.18 150.09C1296.27 156.594 1294.4 162.722 1291.58 170.573C1290.75 172.906 1288.17 179.572 1290.62 181.624C1292.69 183.364 1295.96 181.572 1300.09 176.965C1314.17 159.02 1310.86 141.347 1302.21 134.077C1299.02 131.405 1294.47 129.468 1289.11 131.028C1297.28 139.029 1296.18 150.09 1296.18 150.09Z" fill="url(#paint25_linear_429_4056)"/>
<path d="M1150.45 -38.557L1157.77 -32.4042L1201.24 -84.0796L1193.92 -90.2323L1194.67 -91.1199L1215.53 -73.5939L1214.78 -72.7064L1207.38 -78.9215L1188.11 -56.0031L1194.02 -51.0321C1194.89 -51.3138 1195.76 -51.593 1196.71 -51.6753L1231.06 -59.0322L1223.88 -65.0603L1224.63 -65.9478L1241.2 -52.0268L1240.45 -51.1392L1232.09 -58.1621L1201.65 -51.6903C1204.24 -51.1592 1206.61 -49.9252 1208.83 -48.0604C1217.92 -40.4168 1221.96 -22.2576 1206.85 -3.53749C1201.48 2.54797 1197.22 4.01383 1193.07 0.533569C1186.64 -4.87379 1189.21 -14.8284 1192.24 -24.8953L1192.78 -26.5855C1193.57 -29.3278 1194.38 -31.9331 1195.02 -34.8C1196.63 -42.4112 1197 -46.7615 1193.8 -49.7058C1191.68 -48.8357 1189.75 -47.3 1187.89 -45.0812C1183.29 -39.6116 1179.84 -29.5098 1179.15 -14.4395L1178.41 -13.552L1149.71 -37.667L1150.45 -38.5545L1150.45 -38.557ZM1163.91 -27.2462L1177.89 -15.499C1178.81 -30.2477 1182.33 -40.2872 1187 -45.8292C1188.8 -47.9732 1190.78 -49.5836 1192.83 -50.516L1187.36 -55.1157L1163.91 -27.2437V-27.2462ZM1202.05 -31.1602C1202.14 -24.6559 1200.27 -18.5281 1197.45 -10.6775C1196.62 -8.34408 1194.04 -1.67771 1196.48 0.374046C1198.56 2.11417 1201.83 0.321701 1205.96 -4.2854C1220.04 -22.2302 1216.73 -39.9032 1208.07 -47.1729C1204.89 -49.8454 1200.34 -51.7825 1194.98 -50.2218C1203.15 -42.2217 1202.05 -31.1602 1202.05 -31.1602Z" fill="url(#paint26_linear_429_4056)"/>
<path d="M1053.43 -20.3057L1060.76 -14.153L1104.23 -65.8284L1096.9 -71.9811L1097.65 -72.8687L1118.51 -55.3427L1117.76 -54.4552L1110.37 -60.6703L1091.09 -37.7519L1097.01 -32.7808C1097.87 -33.0626 1098.74 -33.3418 1099.7 -33.4241L1134.04 -40.781L1126.87 -46.8091L1127.61 -47.6966L1144.18 -33.7756L1143.44 -32.888L1135.08 -39.9109L1104.63 -33.439C1107.22 -32.908 1109.59 -31.674 1111.81 -29.8092C1120.91 -22.1656 1124.95 -4.00637 1109.84 14.7137C1104.46 20.7992 1100.2 22.2651 1096.06 18.7849C1089.62 13.3775 1092.19 3.42285 1095.23 -6.64397L1095.77 -8.33425C1096.56 -11.0766 1097.36 -13.6818 1098 -16.5487C1099.61 -24.1599 1099.99 -28.5103 1096.78 -31.4545C1094.66 -30.5845 1092.74 -29.0488 1090.87 -26.83C1086.27 -21.3603 1082.82 -11.2586 1082.14 3.81175L1081.39 4.69928L1052.69 -19.4157L1053.43 -20.3032L1053.43 -20.3057ZM1066.9 -8.99493L1080.88 2.75221C1081.79 -11.9965 1085.32 -22.0359 1089.98 -27.5779C1091.78 -29.7219 1093.77 -31.3324 1095.82 -32.2648L1090.34 -36.8644L1066.9 -8.99244V-8.99493ZM1105.04 -12.9115C1105.12 -6.40717 1103.25 -0.279282 1100.43 7.57124C1099.61 9.90472 1097.03 16.571 1099.47 18.6228C1101.54 20.3629 1104.81 18.5704 1108.94 13.9633C1123.03 -3.98145 1119.72 -21.6545 1111.06 -28.9241C1107.88 -31.5967 1103.32 -33.5337 1097.97 -31.9731C1106.14 -23.973 1105.04 -12.9115 1105.04 -12.9115Z" fill="url(#paint27_linear_429_4056)"/>
<path d="M1175.94 21.8464L1174.39 20.5425C1179.13 14.1005 1180.78 8.61096 1179.34 4.07366C1177.9 -0.461147 1174.49 -4.98847 1169.11 -9.50583L1160.16 -17.0273L1140.44 6.40709L1146.44 11.4405C1150.04 14.4645 1153.97 15.038 1158.25 13.1607C1159.74 12.4826 1161.57 10.8621 1163.72 8.29932L1164.34 7.5589L1165.68 8.67826L1145.96 32.1127L1144.63 30.9933C1148.53 26.3613 1150.13 22.5544 1149.44 19.5753C1148.75 16.5961 1147.39 14.2576 1145.37 12.5599L1139.45 7.58878L1117.68 33.4614L1128.71 42.7205C1131.86 45.3706 1134.75 47.34 1137.38 48.619C1140 49.9004 1143.28 50.0275 1147.22 49.0004C1151.16 47.9733 1155.61 45.0091 1160.58 40.1003L1162.13 41.4067L1145.77 59.2043L1102.57 22.9109L1103.63 21.6545L1110.58 27.4956L1153.06 -22.9956L1146.11 -28.8367L1147.23 -30.1655L1189.17 5.07336L1175.94 21.8439V21.8464Z" fill="url(#paint28_linear_429_4056)"/>
<path d="M1150.29 61.4906L1157.62 67.6434L1201.09 15.968L1193.76 9.81526L1194.51 8.92773L1215.37 26.4537L1214.62 27.3412L1207.23 21.1261L1187.95 44.0444L1193.87 49.0155C1194.73 48.7338 1195.6 48.4546 1196.55 48.3723L1230.9 41.0154L1223.73 34.9873L1224.47 34.0998L1241.04 48.0208L1240.3 48.9083L1231.94 41.8855L1201.49 48.3574C1204.08 48.8884 1206.45 50.1224 1208.67 51.9872C1217.77 59.6308 1221.81 77.79 1206.7 96.5101C1201.32 102.596 1197.06 104.061 1192.92 100.581C1186.48 95.1738 1189.05 85.2192 1192.09 75.1524L1192.63 73.4621C1193.42 70.7197 1194.22 68.1146 1194.86 65.2476C1196.47 57.6364 1196.85 53.286 1193.64 50.3418C1191.52 51.2119 1189.6 52.7476 1187.73 54.9664C1183.13 60.436 1179.68 70.5378 1179 85.6081L1178.25 86.4956L1149.55 62.3806L1150.29 61.4931L1150.29 61.4906ZM1163.76 72.8014L1177.74 84.5485C1178.65 69.7998 1182.18 59.7604 1186.84 54.2184C1188.64 52.0745 1190.63 50.4639 1192.68 49.5316L1187.2 44.9319L1163.76 72.8039V72.8014ZM1201.9 68.8849C1201.98 75.3892 1200.11 81.517 1197.29 89.3676C1196.47 91.701 1193.89 98.3674 1196.33 100.419C1198.4 102.159 1201.67 100.367 1205.8 95.7597C1219.89 77.8149 1216.57 60.1419 1207.92 52.8722C1204.74 50.1997 1200.18 48.2626 1194.83 49.8233C1203 57.8234 1201.9 68.8849 1201.9 68.8849Z" fill="url(#paint29_linear_429_4056)"/>
<path d="M952.953 -4.59676L960.277 1.556L1003.75 -50.1194L996.425 -56.2721L997.17 -57.1597L1018.03 -39.6337L1017.28 -38.7462L1009.89 -44.9613L990.61 -22.0429L996.527 -17.0719C997.395 -17.3536 998.263 -17.6328 999.216 -17.7151L1033.56 -25.072L1026.39 -31.1001L1027.13 -31.9876L1043.7 -18.0666L1042.96 -17.179L1034.6 -24.2019L1004.16 -17.73C1006.74 -17.199 1009.11 -15.965 1011.33 -14.1002C1020.43 -6.45658 1024.47 11.7026 1009.36 30.4227C1003.98 36.5082 999.72 37.9741 995.579 34.4938C989.143 29.0865 991.71 19.1318 994.748 9.06501L995.287 7.37473C996.078 4.63241 996.881 2.02715 997.525 -0.839821C999.131 -8.45102 999.508 -12.8013 996.302 -15.7456C994.182 -14.8755 992.258 -13.3398 990.393 -11.121C985.79 -5.65135 982.345 4.45041 981.659 19.5207L980.913 20.4083L952.209 -3.7068L952.955 -4.59426L952.953 -4.59676ZM966.417 6.71405L980.397 18.4612C981.315 3.71248 984.837 -6.32696 989.499 -11.8689C991.303 -14.013 993.289 -15.6234 995.337 -16.5558L989.864 -21.1555L966.417 6.71655V6.71405ZM1004.56 2.79752C1004.64 9.30182 1002.77 15.4296 999.952 23.2802C999.126 25.6136 996.547 32.28 998.989 34.3318C1001.06 36.0719 1004.34 34.2794 1008.46 29.6723C1022.55 11.7275 1019.24 -5.9455 1010.58 -13.2152C1007.4 -15.8877 1002.84 -17.8248 997.487 -16.2641C1005.66 -8.26401 1004.56 2.79752 1004.56 2.79752Z" fill="url(#paint30_linear_429_4056)"/>
<path d="M1076.76 37.8842L1075.21 36.5804C1079.95 30.1384 1081.6 24.6487 1080.16 20.1114C1078.71 15.5766 1075.3 11.0493 1069.93 6.53196L1060.98 -0.989471L1041.26 22.4449L1047.25 27.4783C1050.85 30.5024 1054.79 31.0758 1059.06 29.1986C1060.56 28.5205 1062.38 26.9 1064.54 24.3372L1065.16 23.5967L1066.49 24.716L1046.78 48.1505L1045.45 47.0311C1049.35 42.3991 1050.95 38.5923 1050.26 35.6131C1049.56 32.6339 1048.21 30.2954 1046.19 28.5977L1040.27 23.6266L1018.5 49.4992L1029.52 58.7583C1032.68 61.4084 1035.57 63.3779 1038.2 64.6568C1040.82 65.9382 1044.1 66.0653 1048.04 65.0382C1051.97 64.0111 1056.43 61.0469 1061.4 56.1381L1062.95 57.4444L1046.59 75.2422L1003.39 38.9487L1004.45 37.6922L1011.4 43.5334L1053.88 -6.95775L1046.92 -12.7989L1048.04 -14.1277L1089.99 21.1111L1076.76 37.8817V37.8842Z" fill="url(#paint31_linear_429_4056)"/>
<path d="M1051.11 77.5277L1058.43 83.6805L1101.91 32.0051L1094.58 25.8524L1095.33 24.9648L1116.19 42.4908L1115.44 43.3783L1108.04 37.1632L1088.77 60.0816L1094.68 65.0527C1095.55 64.7709 1096.42 64.4918 1097.37 64.4095L1131.72 57.0526L1124.54 51.0244L1125.29 50.1369L1141.86 64.0579L1141.11 64.9455L1132.75 57.9226L1102.31 64.3945C1104.9 64.9255 1107.27 66.1596 1109.49 68.0244C1118.58 75.668 1122.63 93.8271 1107.51 112.547C1102.14 118.633 1097.88 120.099 1093.74 116.618C1087.3 111.211 1089.87 101.256 1092.9 91.1895L1093.44 89.4992C1094.23 86.7569 1095.04 84.1517 1095.68 81.2848C1097.29 73.6736 1097.66 69.3232 1094.46 66.379C1092.34 67.249 1090.42 68.7847 1088.55 71.0035C1083.95 76.4732 1080.5 86.5749 1079.82 101.645L1079.07 102.533L1050.37 78.4178L1051.11 77.5302L1051.11 77.5277ZM1064.57 88.8386L1078.55 100.586C1079.47 85.837 1082.99 75.7976 1087.66 70.2556C1089.46 68.1116 1091.45 66.5011 1093.49 65.5687L1088.02 60.9691L1064.57 88.8411V88.8386ZM1102.71 84.922C1102.8 91.4263 1100.93 97.5542 1098.11 105.405C1097.28 107.738 1094.7 114.405 1097.15 116.456C1099.22 118.196 1102.49 116.404 1106.62 111.797C1120.71 93.8521 1117.39 76.179 1108.74 68.9094C1105.56 66.2368 1101 64.2998 1095.64 65.8604C1103.81 73.8605 1102.71 84.922 1102.71 84.922Z" fill="url(#paint32_linear_429_4056)"/>
<path d="M873.509 -27.9741L871.954 -29.278C876.699 -35.7199 878.351 -41.2096 876.906 -45.7469C875.462 -50.2817 872.052 -54.809 866.676 -59.3264L857.725 -66.8478L838.01 -43.4134L844.002 -38.38C847.602 -35.356 851.538 -34.7826 855.812 -36.6598C857.306 -37.3379 859.132 -38.9584 861.29 -41.5212L861.911 -42.2617L863.243 -41.1423L843.53 -17.7079L842.198 -18.8272C846.095 -23.4593 847.697 -27.2661 847.006 -30.2453C846.312 -33.2245 844.955 -35.5629 842.934 -37.2606L837.017 -42.2317L815.251 -16.3592L826.273 -7.10007C829.428 -4.44998 832.32 -2.48051 834.946 -1.20159C837.571 0.0798187 840.851 0.20697 844.788 -0.820152C848.722 -1.84728 853.175 -4.81147 858.147 -9.72023L859.701 -8.41389L843.338 9.38377L800.139 -26.9096L801.196 -28.1661L808.149 -22.325L850.625 -72.8162L843.673 -78.6573L844.793 -79.9861L886.735 -44.7472L873.509 -27.9766V-27.9741Z" fill="url(#paint33_linear_429_4056)"/>
<path d="M847.859 11.6701L855.183 17.8228L898.655 -33.8525L891.331 -40.0053L892.076 -40.8928L912.937 -23.3669L912.191 -22.4793L904.794 -28.6945L885.516 -5.77608L891.433 -0.805012C892.301 -1.08672 893.169 -1.36596 894.122 -1.44823L928.468 -8.80514L921.294 -14.8333L922.04 -15.7208L938.609 -1.79972L937.863 -0.912193L929.504 -7.93508L899.061 -1.4632C901.646 -0.93219 904.016 0.301872 906.236 2.16665C915.334 9.81026 919.375 27.9695 904.263 46.6896C898.889 52.775 894.626 54.2409 890.485 50.7607C884.049 45.3533 886.616 35.3987 889.654 25.3319L890.193 23.6416C890.984 20.8993 891.787 18.294 892.431 15.427C894.037 7.81583 894.414 3.46555 891.208 0.521294C889.088 1.39136 887.164 2.92701 885.298 5.1458C880.696 10.6155 877.251 20.7173 876.565 35.7876L875.819 36.6751L847.115 12.56L847.861 11.6726L847.859 11.6701ZM861.322 22.9809L875.302 34.728C876.22 19.9793 879.743 9.93988 884.405 4.3979C886.209 2.25389 888.195 0.643452 890.243 -0.288937L884.77 -4.88861L861.322 22.9834V22.9809ZM899.463 19.0669C899.548 25.5712 897.677 31.699 894.858 39.5495C894.032 41.883 891.453 48.5493 893.895 50.6011C895.966 52.3412 899.241 50.5488 903.37 45.9417C917.454 27.9969 914.142 10.3238 905.485 3.05418C902.304 0.381664 897.747 -1.55541 892.393 0.00522232C900.563 8.00533 899.463 19.0669 899.463 19.0669Z" fill="url(#paint34_linear_429_4056)"/>
<path d="M971.783 54.2209L970.229 52.917C974.973 46.4751 976.625 40.9854 975.181 36.4481C973.736 31.9133 970.326 27.386 964.95 22.8686L955.999 15.3472L936.284 38.7816L942.276 43.815C945.876 46.839 949.812 47.4124 954.086 45.5352C955.58 44.8571 957.406 43.2366 959.564 40.6738L960.185 39.9333L961.517 41.0527L941.805 64.4871L940.473 63.3678C944.369 58.7357 945.971 54.9289 945.28 51.9497C944.586 48.9705 943.229 46.6321 941.208 44.9344L935.291 39.9633L913.525 65.8359L924.547 75.0949C927.702 77.745 930.594 79.7145 933.221 80.9934C935.845 82.2748 939.125 82.402 943.062 81.3749C946.996 80.3477 951.449 77.3835 956.421 72.4748L957.975 73.7811L941.613 91.5788L898.413 55.2854L899.471 54.0289L906.423 59.87L948.899 9.37892L941.947 3.53772L943.067 2.20898L985.009 37.4478L971.783 54.2184V54.2209Z" fill="url(#paint35_linear_429_4056)"/>
<path d="M946.133 93.8649L953.457 100.018L996.929 48.3423L989.604 42.1895L990.35 41.302L1011.21 58.828L1010.46 59.7155L1003.07 53.5004L983.789 76.4187L989.706 81.3898C990.575 81.1081 991.443 80.8289 992.396 80.7466L1026.74 73.3897L1019.57 67.3616L1020.31 66.474L1036.88 80.3951L1036.14 81.2826L1027.78 74.2598L997.335 80.7317C999.92 81.2627 1002.29 82.4967 1004.51 84.3615C1013.61 92.0051 1017.65 110.164 1002.54 128.884C997.163 134.97 992.9 136.436 988.759 132.956C982.322 127.548 984.889 117.594 987.928 107.527L988.467 105.836C989.258 103.094 990.061 100.489 990.704 97.6219C992.311 90.0107 992.688 85.6604 989.482 82.7161C987.362 83.5862 985.438 85.1219 983.572 87.3407C978.97 92.8104 975.524 102.912 974.838 117.982L974.093 118.87L945.389 94.7549L946.135 93.8674L946.133 93.8649ZM959.596 105.176L973.576 116.923C974.494 102.174 978.017 92.1348 982.679 86.5928C984.483 84.4488 986.468 82.8383 988.517 81.9059L983.043 77.3063L959.596 105.178V105.176ZM997.737 101.259C997.822 107.763 995.951 113.891 993.132 121.742C992.306 124.075 989.726 130.742 992.169 132.793C994.239 134.534 997.515 132.741 1001.64 128.134C1015.73 110.189 1012.42 92.5162 1003.76 85.2465C1000.58 82.574 996.02 80.6369 990.667 82.1976C998.837 90.1977 997.737 101.259 997.737 101.259Z" fill="url(#paint36_linear_429_4056)"/>
<path d="M776.492 -9.72517L774.937 -11.029C779.682 -17.471 781.334 -22.9606 779.889 -27.4979C778.445 -32.0327 775.035 -36.5601 769.659 -41.0774L760.708 -48.5988L740.993 -25.1644L746.985 -20.131C750.585 -17.107 754.521 -16.5336 758.795 -18.4109C760.289 -19.089 762.115 -20.7094 764.273 -23.2723L764.894 -24.0127L766.226 -22.8933L746.513 0.541077L745.181 -0.578285C749.078 -5.21032 750.68 -9.01718 749.988 -11.9963C749.295 -14.9755 747.938 -17.3139 745.917 -19.0117L740 -23.9827L718.234 1.88984L729.255 11.1489C732.411 13.799 735.302 15.7684 737.929 17.0474C740.554 18.3288 743.834 18.4559 747.771 17.4288C751.705 16.4017 756.158 13.4375 761.13 8.52873L762.684 9.83507L746.321 27.6328L703.122 -8.66064L704.179 -9.91714L711.132 -4.076L753.608 -54.5671L746.656 -60.4083L747.776 -61.7371L789.718 -26.4982L776.492 -9.72766V-9.72517Z" fill="url(#paint37_linear_429_4056)"/>
<path d="M750.842 29.9213L758.166 36.0741L801.638 -15.6013L794.313 -21.7541L795.059 -22.6416L815.919 -5.11564L815.173 -4.22811L807.777 -10.4432L788.498 12.4751L794.416 17.4462C795.284 17.1645 796.152 16.8853 797.105 16.803L831.451 9.44608L824.276 3.41797L825.022 2.53044L841.592 16.4515L840.846 17.339L832.486 10.3161L802.044 16.7881C804.629 17.3191 806.998 18.5531 809.219 20.4179C818.317 28.0615 822.358 46.2207 807.245 64.9408C801.872 71.0263 797.609 72.4922 793.468 69.0119C787.031 63.6045 789.598 53.6499 792.637 43.5831L793.176 41.8928C793.966 39.1505 794.77 36.5453 795.413 33.6783C797.02 26.0671 797.397 21.7168 794.191 18.7725C792.071 19.6426 790.147 21.1783 788.281 23.3971C783.679 28.8668 780.233 38.9685 779.547 54.0388L778.802 54.9263L750.098 30.8113L750.844 29.9238L750.842 29.9213ZM764.305 41.2321L778.285 52.9793C779.203 38.2305 782.726 28.1912 787.388 22.6492C789.192 20.5052 791.177 18.8947 793.226 17.9623L787.752 13.3627L764.305 41.2346V41.2321ZM802.446 37.3156C802.531 43.8199 800.66 49.9478 797.841 57.7983C797.015 60.1318 794.435 66.7981 796.878 68.8498C798.948 70.59 802.224 68.7975 806.352 64.1904C820.437 46.2456 817.124 28.5726 808.468 21.3029C805.287 18.6304 800.729 16.6933 795.376 18.2539C803.546 26.2541 802.446 37.3156 802.446 37.3156Z" fill="url(#paint38_linear_429_4056)"/>
<path d="M874.766 72.4694L873.212 71.1656C877.957 64.7236 879.608 59.2339 878.164 54.6966C876.719 50.1618 873.309 45.6345 867.933 41.1172L858.982 33.5957L839.267 57.0301L845.259 62.0635C848.859 65.0876 852.796 65.661 857.069 63.7838C858.563 63.1057 860.389 61.4852 862.547 58.9224L863.168 58.1819L864.501 59.3013L844.788 82.7357L843.456 81.6163C847.352 76.9843 848.954 73.1775 848.263 70.1983C847.569 67.2191 846.212 64.8806 844.192 63.1829L838.274 58.2118L816.509 84.0844L827.53 93.3435C830.686 95.9936 833.577 97.9631 836.204 99.242C838.828 100.523 842.109 100.651 846.045 99.6235C849.979 98.5963 854.432 95.6321 859.404 90.7233L860.958 92.0296L844.596 109.827L801.396 73.5339L802.454 72.2774L809.406 78.1186L851.883 27.6275L844.93 21.7863L846.05 20.4575L887.993 55.6964L874.766 72.4669V72.4694Z" fill="url(#paint39_linear_429_4056)"/>
<path d="M849.116 112.114L856.44 118.267L899.912 66.5916L892.588 60.4387L893.334 59.5513L914.194 77.0772L913.448 77.9647L906.051 71.7496L886.773 94.6679L892.69 99.639C893.558 99.3573 894.426 99.0781 895.379 98.9959L929.725 91.639L922.551 85.6108L923.297 84.7233L939.866 98.6443L939.12 99.5318L930.761 92.509L900.319 98.9809C902.903 99.5119 905.273 100.746 907.493 102.611C916.591 110.254 920.632 128.414 905.52 147.134C900.146 153.219 895.883 154.685 891.742 151.205C885.306 145.797 887.873 135.843 890.911 125.776L891.45 124.086C892.241 121.343 893.044 118.738 893.688 115.871C895.294 108.26 895.671 103.91 892.465 100.965C890.345 101.835 888.422 103.371 886.556 105.59C881.953 111.06 878.508 121.161 877.822 136.232L877.076 137.119L848.373 113.004L849.118 112.117L849.116 112.114ZM862.58 123.427L876.56 135.175C877.478 120.426 881 110.386 885.663 104.844C887.466 102.7 889.452 101.09 891.5 100.158L886.027 95.558L862.58 123.43V123.427ZM900.72 119.511C900.805 126.015 898.934 132.143 896.115 139.994C895.289 142.327 892.71 148.993 895.152 151.045C897.223 152.785 900.498 150.993 904.627 146.386C918.712 128.441 915.399 110.768 906.742 103.498C903.562 100.826 899.004 98.8886 893.65 100.449C901.82 108.449 900.72 119.511 900.72 119.511Z" fill="url(#paint40_linear_429_4056)"/>
<path d="M971.626 154.265L970.071 152.962C974.816 146.52 976.468 141.03 975.023 136.493C973.579 131.958 970.169 127.43 964.793 122.913L955.842 115.392L936.127 138.826L942.119 143.859C945.719 146.883 949.655 147.457 953.929 145.58C955.423 144.902 957.249 143.281 959.407 140.718L960.028 139.978L961.36 141.097L941.647 164.532L940.315 163.412C944.212 158.78 945.814 154.973 945.123 151.994C944.429 149.015 943.072 146.677 941.051 144.979L935.134 140.008L913.368 165.88L924.39 175.139C927.545 177.79 930.436 179.759 933.063 181.038C935.688 182.319 938.968 182.446 942.905 181.419C946.839 180.392 951.292 177.428 956.264 172.519L957.818 173.826L941.455 191.623L898.256 155.33L899.313 154.073L906.266 159.915L948.742 109.423L941.79 103.582L942.91 102.253L984.852 137.492L971.626 154.263V154.265Z" fill="url(#paint41_linear_429_4056)"/>
<path d="M774.287 88.1806L772.733 86.8767C777.477 80.4348 779.129 74.9451 777.684 70.4078C776.24 65.873 772.83 61.3457 767.454 56.8283L758.503 49.3069L738.788 72.7413L744.78 77.7747C748.38 80.7988 752.316 81.3722 756.59 79.4949C758.084 78.8168 759.91 77.1964 762.068 74.6335L762.689 73.8931L764.021 75.0124L744.309 98.4468L742.976 97.3275C746.873 92.6954 748.475 88.8886 747.784 85.9095C747.09 82.9303 745.733 80.5918 743.712 78.8941L737.795 73.923L716.029 99.7956L727.051 109.055C730.206 111.705 733.098 113.674 735.725 114.953C738.349 116.235 741.629 116.362 745.566 115.335C749.5 114.307 753.953 111.343 758.925 106.434L760.479 107.741L744.116 125.539L700.917 89.2451L701.974 87.9886L708.927 93.8298L751.403 43.3386L744.451 37.4974L745.571 36.1687L787.513 71.4075L774.287 88.1781V88.1806Z" fill="url(#paint42_linear_429_4056)"/>
<path d="M748.636 127.825L755.961 133.978L799.432 82.3023L792.108 76.1495L792.854 75.262L813.714 92.7879L812.968 93.6755L805.572 87.4604L786.293 110.379L792.21 115.35C793.079 115.068 793.947 114.789 794.9 114.707L829.246 107.35L822.071 101.322L822.817 100.434L839.387 114.355L838.641 115.243L830.281 108.22L799.839 114.692C802.423 115.223 804.793 116.457 807.014 118.321C816.112 125.965 820.153 144.124 805.04 162.844C799.667 168.93 795.404 170.396 791.262 166.915C784.826 161.508 787.393 151.553 790.432 141.487L790.971 139.796C791.761 137.054 792.565 134.449 793.208 131.582C794.815 123.971 795.192 119.62 791.986 116.676C789.865 117.546 787.942 119.082 786.076 121.301C781.473 126.77 778.028 136.872 777.342 151.942L776.596 152.83L747.893 128.715L748.639 127.827L748.636 127.825ZM762.1 139.136L776.08 150.883C776.998 136.134 780.521 126.095 785.183 120.553C786.987 118.409 788.972 116.798 791.02 115.866L785.547 111.266L762.1 139.138V139.136ZM800.241 135.219C800.325 141.724 798.454 147.851 795.636 155.702C794.81 158.035 792.23 164.702 794.673 166.753C796.743 168.494 800.019 166.701 804.147 162.094C818.232 144.149 814.919 126.476 806.263 119.207C803.082 116.534 798.524 114.597 793.171 116.158C801.341 124.158 800.241 135.219 800.241 135.219Z" fill="url(#paint43_linear_429_4056)"/>
<path d="M678.559 5.15789L677.005 3.85404C681.75 -2.58793 683.402 -8.07758 681.957 -12.6149C680.513 -17.1497 677.103 -21.677 671.727 -26.1944L662.776 -33.7158L643.061 -10.2814L649.053 -5.24799C652.653 -2.22395 656.589 -1.65052 660.862 -3.52776C662.357 -4.20586 664.183 -5.82633 666.341 -8.38916L666.962 -9.12964L668.294 -8.01021L648.581 15.4242L647.249 14.3048C651.146 9.67273 652.747 5.86594 652.056 2.88678C651.363 -0.0923843 650.006 -2.43087 647.985 -4.12862L642.068 -9.09969L620.302 16.7729L631.323 26.032C634.479 28.682 637.37 30.6516 639.997 31.9305C642.622 33.2119 645.902 33.3391 649.839 32.3119C653.773 31.2848 658.226 28.3205 663.197 23.4118L664.752 24.7181L648.389 42.5158L605.189 6.22241L606.247 4.96592L613.2 10.8071L655.676 -39.6841L648.723 -45.5253L649.844 -46.854L691.786 -11.6152L678.559 5.15539V5.15789Z" fill="url(#paint44_linear_429_4056)"/>
<path d="M652.909 44.8023L660.234 50.9551L703.705 -0.720206L696.381 -6.87303L697.127 -7.7605L717.987 9.7654L717.241 10.6529L709.845 4.43784L690.566 27.3562L696.483 32.3272C697.352 32.0455 698.22 31.7664 699.173 31.6841L733.519 24.3272L726.344 18.299L727.09 17.4115L743.66 31.3325L742.914 32.2201L734.554 25.1972L704.112 31.6691C706.696 32.2001 709.066 33.4342 711.287 35.299C720.385 42.9426 724.426 61.1017 709.313 79.8218C703.94 85.9073 699.677 87.3732 695.535 83.8929C689.099 78.4856 691.666 68.5309 694.705 58.4641L695.244 56.7738C696.034 54.0315 696.838 51.4263 697.481 48.5593C699.088 40.9481 699.464 36.5978 696.259 33.6536C694.138 34.5236 692.215 36.0593 690.349 38.2781C685.746 43.7478 682.301 53.8495 681.615 68.9198L680.869 69.8074L652.166 45.6924L652.912 44.8048L652.909 44.8023ZM666.373 56.1132L680.353 67.8603C681.271 53.1116 684.794 43.0722 689.456 37.5302C691.26 35.3862 693.245 33.7757 695.293 32.8433L689.82 28.2437L666.373 56.1157V56.1132ZM704.514 52.1967C704.598 58.701 702.727 64.8288 699.909 72.6793C699.083 75.0128 696.503 81.6792 698.946 83.7309C701.016 85.471 704.292 83.6785 708.42 79.0714C722.505 61.1266 719.192 43.4536 710.536 36.1839C707.355 33.5114 702.797 31.5744 697.444 33.135C705.614 41.1351 704.514 52.1967 704.514 52.1967Z" fill="url(#paint45_linear_429_4056)"/>
<path d="M476.553 135.259L474.999 133.955C479.744 127.513 481.395 122.024 479.951 117.486C478.507 112.951 475.096 108.424 469.72 103.907L460.77 96.3853L441.055 119.82L447.047 124.853C450.646 127.877 454.583 128.451 458.856 126.573C460.351 125.895 462.177 124.275 464.335 121.712L464.956 120.972L466.288 122.091L446.575 145.525L445.243 144.406C449.14 139.774 450.741 135.967 450.05 132.988C449.357 130.009 448 127.67 445.979 125.972L440.062 121.001L418.296 146.874L429.317 156.133C432.473 158.783 435.364 160.753 437.991 162.032C440.615 163.313 443.896 163.44 447.832 162.413C451.767 161.386 456.219 158.422 461.191 153.513L462.745 154.819L446.383 172.617L403.183 136.323L404.241 135.067L411.194 140.908L453.67 90.417L446.717 84.5759L447.837 83.2471L489.78 118.486L476.553 135.257V135.259Z" fill="url(#paint46_linear_429_4056)"/>
<path d="M281.836 -27.7249L280.282 -29.0287C285.027 -35.4707 286.678 -40.9603 285.234 -45.4976C283.79 -50.0324 280.379 -54.5598 275.003 -59.0771L266.053 -66.5985L246.337 -43.1641L252.33 -38.1307C255.929 -35.1067 259.866 -34.5333 264.139 -36.4106C265.634 -37.0887 267.46 -38.7091 269.618 -41.272L270.239 -42.0124L271.571 -40.893L251.858 -17.4586L250.526 -18.578C254.423 -23.21 256.024 -27.0169 255.333 -29.996C254.64 -32.9752 253.283 -35.3136 251.262 -37.0114L245.345 -41.9824L223.579 -16.1099L234.6 -6.8508C237.756 -4.20071 240.647 -2.23125 243.274 -0.952324C245.898 0.329086 249.179 0.456238 253.115 -0.570885C257.049 -1.59801 261.502 -4.5622 266.474 -9.47096L268.028 -8.16463L251.666 9.63303L208.466 -26.6603L209.524 -27.9168L216.477 -22.0757L258.953 -72.5669L252 -78.408L253.12 -79.7368L295.063 -44.4979L281.836 -27.7274V-27.7249Z" fill="url(#paint47_linear_429_4056)"/>
<path d="M256.187 11.9193L263.511 18.0721L306.982 -33.6033L299.658 -39.756L300.404 -40.6436L321.264 -23.1176L320.518 -22.2301L313.122 -28.4452L293.843 -5.52681L299.76 -0.555744C300.629 -0.837456 301.497 -1.11669 302.45 -1.19896L336.796 -8.55587L329.621 -14.584L330.367 -15.4715L346.937 -1.55046L346.191 -0.662926L337.831 -7.68581L307.389 -1.21394C309.974 -0.682922 312.343 0.55114 314.564 2.41592C323.662 10.0595 327.703 28.2187 312.59 46.9388C307.217 53.0243 302.954 54.4902 298.813 51.01C292.376 45.6026 294.943 35.6479 297.982 25.5811L298.521 23.8908C299.311 21.1485 300.115 18.5433 300.758 15.6763C302.365 8.06509 302.742 3.71482 299.536 0.770561C297.416 1.64063 295.492 3.17628 293.626 5.39507C289.024 10.8648 285.578 20.9665 284.892 36.0368L284.147 36.9244L255.443 12.8093L256.189 11.9218L256.187 11.9193ZM269.65 23.2302L283.63 34.9773C284.548 20.2286 288.071 10.1892 292.733 4.64716C294.537 2.50316 296.522 0.892719 298.571 -0.039669L293.097 -4.63934L269.65 23.2327V23.2302ZM307.791 19.3136C307.876 25.8179 306.005 31.9458 303.186 39.7963C302.36 42.1298 299.78 48.7961 302.223 50.8479C304.293 52.588 307.569 50.7955 311.697 46.1884C325.782 28.2437 322.469 10.5706 313.813 3.30096C310.632 0.628437 306.074 -1.30864 300.721 0.251995C308.891 8.2521 307.791 19.3136 307.791 19.3136Z" fill="url(#paint48_linear_429_4056)"/>
<path d="M379.993 54.4001L378.439 53.0962C383.184 46.6543 384.835 41.1646 383.391 36.6273C381.946 32.0925 378.536 27.5652 373.16 23.0478L364.209 15.5264L344.494 38.9608L350.486 43.9942C354.086 47.0182 358.023 47.5917 362.296 45.7144C363.79 45.0363 365.616 43.4159 367.774 40.853L368.395 40.1125L369.728 41.2319L350.015 64.6663L348.683 63.547C352.579 58.9149 354.181 55.1081 353.49 52.129C352.796 49.1498 351.439 46.8113 349.419 45.1136L343.501 40.1425L321.736 66.0151L332.757 75.2741C335.913 77.9242 338.804 79.8938 341.431 81.1727C344.055 82.4541 347.336 82.5812 351.272 81.5541C355.206 80.5269 359.659 77.5627 364.631 72.654L366.185 73.9603L349.823 91.758L306.623 55.4646L307.681 54.2081L314.633 60.0493L357.11 9.55812L350.157 3.71692L351.277 2.38818L393.22 37.627L379.993 54.3976V54.4001Z" fill="url(#paint49_linear_429_4056)"/>
<path d="M354.343 94.0443L361.667 100.197L405.139 48.5217L397.815 42.369L398.561 41.4814L419.421 59.0074L418.675 59.8949L411.278 53.6798L392 76.5982L397.917 81.5693C398.785 81.2875 399.653 81.0084 400.606 80.9261L434.952 73.5692L427.778 67.541L428.524 66.6535L445.093 80.5745L444.347 81.4621L435.988 74.4393L405.546 80.9111C408.13 81.4421 410.5 82.6762 412.72 84.541C421.818 92.1846 425.859 110.344 410.747 129.064C405.373 135.149 401.11 136.615 396.969 133.135C390.533 127.728 393.1 117.773 396.138 107.706L396.677 106.016C397.468 103.274 398.271 100.668 398.915 97.8014C400.521 90.1902 400.898 85.8398 397.692 82.8956C395.572 83.7656 393.649 85.3013 391.783 87.5201C387.18 92.9898 383.735 103.092 383.049 118.162L382.303 119.049L353.6 94.9344L354.346 94.0468L354.343 94.0443ZM367.807 105.355L381.787 117.102C382.705 102.354 386.227 92.3142 390.89 86.7722C392.693 84.6282 394.679 83.0177 396.727 82.0853L391.254 77.4857L367.807 105.358V105.355ZM405.95 101.439C406.035 107.943 404.164 114.071 401.345 121.921C400.519 124.255 397.939 130.921 400.382 132.973C402.452 134.713 405.728 132.921 409.856 128.313C423.941 110.369 420.628 92.6956 411.972 85.426C408.791 82.7534 404.233 80.8164 398.88 82.377C407.05 90.3771 405.95 101.439 405.95 101.439Z" fill="url(#paint50_linear_429_4056)"/>
<path d="M375.099 150.167L373.545 148.863C378.289 142.421 379.941 136.932 378.496 132.394C377.052 127.859 373.642 123.332 368.266 118.815L359.315 111.293L339.6 134.728L345.592 139.761C349.192 142.785 353.128 143.358 357.402 141.481C358.896 140.803 360.722 139.183 362.88 136.62L363.501 135.879L364.833 136.999L345.121 160.433L343.788 159.314C347.685 154.682 349.287 150.875 348.596 147.896C347.902 144.917 346.545 142.578 344.524 140.88L338.607 135.909L316.841 161.782L327.863 171.041C331.018 173.691 333.91 175.661 336.537 176.94C339.161 178.221 342.441 178.348 346.378 177.321C350.312 176.294 354.765 173.33 359.737 168.421L361.291 169.727L344.929 187.525L301.729 151.232L302.786 149.975L309.739 155.816L352.215 105.325L345.263 99.4838L346.383 98.155L388.325 133.394L375.099 150.164V150.167Z" fill="url(#paint51_linear_429_4056)"/>
<path d="M180.382 -12.8145L178.828 -14.1183C183.573 -20.5603 185.224 -26.0499 183.78 -30.5872C182.335 -35.122 178.925 -39.6494 173.549 -44.1667L164.598 -51.6882L144.883 -28.2538L150.875 -23.2203C154.475 -20.1963 158.412 -19.6229 162.685 -21.5002C164.179 -22.1783 166.005 -23.7987 168.163 -26.3616L168.784 -27.102L170.116 -25.9826L150.404 -2.54822L149.072 -3.66758C152.968 -8.29962 154.57 -12.1065 153.879 -15.0856C153.185 -18.0648 151.828 -20.4032 149.808 -22.101L143.89 -27.0721L122.125 -1.19951L133.146 8.0596C136.302 10.7097 139.193 12.6792 141.82 13.9581C144.444 15.2395 147.725 15.3666 151.661 14.3395C155.595 13.3124 160.048 10.3482 165.02 5.43944L166.574 6.74577L150.212 24.5434L107.012 -11.7499L108.07 -13.0064L115.022 -7.1653L157.499 -57.6565L150.546 -63.4976L151.666 -64.8264L193.609 -29.5875L180.382 -12.817V-12.8145Z" fill="url(#paint52_linear_429_4056)"/>
<path d="M154.732 26.8302L162.056 32.983L205.528 -18.6924L198.204 -24.8451L198.949 -25.7327L219.81 -8.20671L219.064 -7.31924L211.667 -13.5343L192.389 9.38401L198.306 14.3551C199.174 14.0734 200.042 13.7942 200.995 13.7119L235.341 6.35501L228.167 0.326902L228.913 -0.560627L245.482 13.3604L244.736 14.2479L236.377 7.22507L205.934 13.697C208.519 14.228 210.889 15.462 213.109 17.3268C222.207 24.9704 226.248 43.1296 211.136 61.8497C205.762 67.9352 201.499 69.401 197.358 65.9208C190.922 60.5134 193.489 50.5588 196.527 40.492L197.066 38.8017C197.857 36.0593 198.66 33.4542 199.304 30.5872C200.91 22.976 201.287 18.6256 198.081 15.6814C195.961 16.5515 194.038 18.0872 192.172 20.306C187.569 25.7756 184.124 35.8774 183.438 50.9477L182.692 51.8352L153.989 27.7202L154.734 26.8327L154.732 26.8302ZM168.196 38.141L182.176 49.8882C183.094 35.1395 186.616 25.1 191.278 19.558C193.082 17.4141 195.068 15.8035 197.116 14.8712L191.643 10.2715L168.196 38.1435V38.141ZM206.336 34.2245C206.421 40.7288 204.55 46.8566 201.731 54.7072C200.905 57.0406 198.326 63.707 200.768 65.7588C202.839 67.4989 206.114 65.7064 210.243 61.0993C224.328 43.1545 221.015 25.4815 212.358 18.2118C209.178 15.5393 204.62 13.6022 199.266 15.1629C207.436 23.163 206.336 34.2245 206.336 34.2245Z" fill="url(#paint53_linear_429_4056)"/>
<path d="M278.538 69.3083L276.984 68.0045C281.729 61.5625 283.381 56.0729 281.936 51.5356C280.492 47.0008 277.082 42.4734 271.706 37.9561L262.755 30.4347L243.04 53.8691L249.032 58.9025C252.632 61.9265 256.568 62.4999 260.841 60.6226C262.336 59.9445 264.162 58.3241 266.32 55.7612L266.941 55.0208L268.273 56.1402L248.56 79.5746L247.228 78.4552C251.125 73.8232 252.726 70.0163 252.035 67.0372C251.342 64.058 249.985 61.7196 247.964 60.0218L242.047 55.0508L220.281 80.9234L231.302 90.1824C234.458 92.8325 237.349 94.802 239.976 96.0809C242.601 97.3623 245.881 97.4894 249.818 96.4623C253.752 95.4352 258.205 92.471 263.176 87.5622L264.731 88.8686L248.368 106.666L205.168 70.3729L206.226 69.1164L213.179 74.9575L255.655 24.4663L248.702 18.6252L249.823 17.2964L291.765 52.5353L278.538 69.3058V69.3083Z" fill="url(#paint54_linear_429_4056)"/>
<path d="M252.891 108.955L260.215 115.108L303.687 63.4326L296.363 57.2799L297.109 56.3923L317.969 73.9183L317.223 74.8058L309.826 68.5907L290.548 91.5091L296.465 96.4801C297.333 96.1984 298.201 95.9192 299.154 95.8369L333.501 88.48L326.326 82.4519L327.072 81.5644L343.641 95.4854L342.895 96.373L334.536 89.3501L304.094 95.822C306.678 96.353 309.048 97.587 311.268 99.4518C320.366 107.095 324.408 125.255 309.295 143.975C303.922 150.06 299.658 151.526 295.517 148.046C289.081 142.638 291.648 132.684 294.686 122.617L295.225 120.927C296.016 118.184 296.819 115.579 297.463 112.712C299.069 105.101 299.446 100.751 296.241 97.8064C294.12 98.6765 292.197 100.212 290.331 102.431C285.728 107.901 282.283 118.002 281.597 133.073L280.851 133.96L252.148 109.845L252.894 108.958L252.891 108.955ZM266.355 120.266L280.335 132.013C281.253 117.264 284.775 107.225 289.438 101.683C291.241 99.5391 293.227 97.9286 295.275 96.9962L289.802 92.3966L266.355 120.269V120.266ZM304.495 116.35C304.58 122.854 302.709 128.982 299.89 136.832C299.064 139.166 296.485 145.832 298.927 147.884C300.998 149.624 304.273 147.831 308.402 143.224C322.487 125.28 319.174 107.606 310.517 100.337C307.337 97.6643 302.779 95.7272 297.425 97.2879C305.595 105.288 304.495 116.35 304.495 116.35Z" fill="url(#paint55_linear_429_4056)"/>
<path d="M186.349 91.5539L184.795 90.25C189.54 83.8081 191.191 78.3184 189.747 73.7811C188.302 69.2463 184.892 64.719 179.516 60.2016L170.565 52.6802L150.85 76.1146L156.842 81.148C160.442 84.1721 164.379 84.7454 168.652 82.8682C170.146 82.1901 171.972 80.5696 174.13 78.0068L174.751 77.2664L176.084 78.3857L156.371 101.82L155.039 100.701C158.935 96.0687 160.537 92.2619 159.846 89.2827C159.152 86.3036 157.795 83.9651 155.775 82.2674L149.857 77.2963L128.092 103.169L139.113 112.428C142.269 115.078 145.16 117.048 147.787 118.326C150.411 119.608 153.692 119.735 157.628 118.708C161.562 117.681 166.015 114.717 170.987 109.808L172.541 111.114L156.179 128.912L112.979 92.6184L114.037 91.3619L120.989 97.2031L163.466 46.7119L156.513 40.8707L157.633 39.542L199.576 74.7808L186.349 91.5514V91.5539Z" fill="url(#paint56_linear_429_4056)"/>
<path d="M160.702 131.2L168.026 137.353L211.498 85.6777L204.173 79.525L204.919 78.6375L225.779 96.1634L225.034 97.0509L217.637 90.8359L198.358 113.754L204.276 118.725C205.144 118.444 206.012 118.164 206.965 118.082L241.311 110.725L234.137 104.697L234.882 103.809L251.452 117.731L250.706 118.618L242.346 111.595L211.904 118.067C214.489 118.598 216.859 119.832 219.079 121.697C228.177 129.341 232.218 147.5 217.106 166.22C211.732 172.305 207.469 173.771 203.328 170.291C196.891 164.884 199.458 154.929 202.497 144.862L203.036 143.172C203.827 140.43 204.63 137.824 205.273 134.957C206.88 127.346 207.257 122.996 204.051 120.052C201.931 120.922 200.007 122.457 198.141 124.676C193.539 130.146 190.094 140.247 189.408 155.318L188.662 156.205L159.958 132.09L160.704 131.203L160.702 131.2ZM174.163 142.511L188.143 154.258C189.061 139.51 192.583 129.47 197.246 123.928C199.049 121.784 201.035 120.174 203.083 119.241L197.61 114.642L174.163 142.514V142.511ZM212.306 138.595C212.391 145.099 210.52 151.227 207.701 159.077C206.875 161.411 204.296 168.077 206.738 170.129C208.808 171.869 212.084 170.077 216.212 165.469C230.297 147.525 226.984 129.852 218.328 122.582C215.147 119.91 210.59 117.972 205.236 119.533C213.406 127.533 212.306 138.595 212.306 138.595Z" fill="url(#paint57_linear_429_4056)"/>
<path d="M581.663 123.053L580.109 121.749C584.853 115.307 586.505 109.818 585.06 105.28C583.616 100.745 580.206 96.2181 574.83 91.7007L565.879 84.1792L546.164 107.614L552.156 112.647C555.756 115.671 559.692 116.245 563.966 114.367C565.46 113.689 567.286 112.069 569.444 109.506L570.065 108.765L571.397 109.885L551.685 133.319L550.352 132.2C554.249 127.568 555.851 123.761 555.16 120.782C554.466 117.803 553.109 115.464 551.088 113.766L545.171 108.795L523.405 134.668L534.427 143.927C537.582 146.577 540.474 148.547 543.1 149.826C545.725 151.107 549.005 151.234 552.942 150.207C556.876 149.18 561.329 146.216 566.301 141.307L567.855 142.613L551.493 160.411L508.293 124.117L509.35 122.861L516.303 128.702L558.779 78.2109L551.827 72.3698L552.947 71.041L594.889 106.28L581.663 123.05V123.053Z" fill="url(#paint58_linear_429_4056)"/>
<path d="M681.685 106.464L680.131 105.16C684.876 98.7185 686.528 93.2289 685.083 88.6916C683.639 84.1568 680.229 79.6295 674.853 75.1121L665.902 67.5907L646.187 91.0251L652.179 96.0585C655.778 99.0825 659.715 99.6559 663.988 97.7786C665.483 97.1005 667.309 95.4801 669.467 92.9172L670.088 92.1768L671.42 93.2962L651.707 116.731L650.375 115.611C654.272 110.979 655.873 107.172 655.182 104.193C654.489 101.214 653.132 98.8756 651.111 97.1778L645.194 92.2068L623.428 118.079L634.449 127.338C637.605 129.988 640.496 131.958 643.123 133.237C645.748 134.518 649.028 134.646 652.965 133.618C656.899 132.591 661.352 129.627 666.323 124.718L667.878 126.025L651.515 143.822L608.315 107.529L609.373 106.272L616.326 112.114L658.802 61.6223L651.849 55.7812L652.97 54.4524L694.912 89.6913L681.685 106.462V106.464Z" fill="url(#paint59_linear_429_4056)"/>
<path d="M656.035 146.108L663.36 152.261L706.831 100.586L699.507 94.4329L700.253 93.5454L721.113 111.071L720.367 111.959L712.971 105.744L693.692 128.662L699.609 133.633C700.478 133.351 701.346 133.072 702.299 132.99L736.645 125.633L729.47 119.605L730.216 118.718L746.786 132.639L746.04 133.526L737.68 126.503L707.238 132.975C709.822 133.506 712.192 134.74 714.413 136.605C723.511 144.249 727.552 162.408 712.439 181.128C707.066 187.213 702.803 188.679 698.661 185.199C692.225 179.792 694.792 169.837 697.831 159.77L698.37 158.08C699.16 155.337 699.964 152.732 700.607 149.865C702.214 142.254 702.59 137.904 699.385 134.96C697.264 135.83 695.341 137.365 693.475 139.584C688.872 145.054 685.427 155.155 684.741 170.226L683.995 171.113L655.292 146.998L656.038 146.111L656.035 146.108ZM669.499 157.422L683.479 169.169C684.397 154.42 687.919 144.381 692.582 138.839C694.386 136.695 696.371 135.084 698.419 134.152L692.946 129.552L669.499 157.424V157.422ZM707.64 153.505C707.724 160.009 705.853 166.137 703.035 173.988C702.209 176.321 699.629 182.988 702.072 185.039C704.142 186.779 707.418 184.987 711.546 180.38C725.631 162.435 722.318 144.762 713.662 137.492C710.481 134.82 705.923 132.883 700.57 134.443C708.74 142.444 707.64 153.505 707.64 153.505Z" fill="url(#paint60_linear_429_4056)"/>
</g>
</g>
<defs>
<linearGradient id="paint0_linear_429_4056" x1="10.7833" y1="98.4318" x2="97.3773" y2="98.4318" gradientUnits="userSpaceOnUse">
<stop offset="0.05" stop-color="#CF9F66"/>
<stop offset="0.31" stop-color="#7C4A1A"/>
<stop offset="0.51" stop-color="#FFDC9C"/>
<stop offset="0.69" stop-color="#946331"/>
<stop offset="0.92" stop-color="#916230"/>
</linearGradient>
<linearGradient id="paint1_linear_429_4056" x1="57.7548" y1="139.589" x2="149.251" y2="139.589" gradientUnits="userSpaceOnUse">
<stop offset="0.05" stop-color="#CF9F66"/>
<stop offset="0.31" stop-color="#7C4A1A"/>
<stop offset="0.51" stop-color="#FFDC9C"/>
<stop offset="0.69" stop-color="#946331"/>
<stop offset="0.92" stop-color="#916230"/>
</linearGradient>
<linearGradient id="paint2_linear_429_4056" x1="-86.2333" y1="116.683" x2="0.360745" y2="116.683" gradientUnits="userSpaceOnUse">
<stop offset="0.05" stop-color="#CF9F66"/>
<stop offset="0.31" stop-color="#7C4A1A"/>
<stop offset="0.51" stop-color="#FFDC9C"/>
<stop offset="0.69" stop-color="#946331"/>
<stop offset="0.92" stop-color="#916230"/>
</linearGradient>
<linearGradient id="paint3_linear_429_4056" x1="-36.4803" y1="-39.1029" x2="55.0133" y2="-39.1029" gradientUnits="userSpaceOnUse">
<stop offset="0.05" stop-color="#CF9F66"/>
<stop offset="0.31" stop-color="#7C4A1A"/>
<stop offset="0.51" stop-color="#FFDC9C"/>
<stop offset="0.69" stop-color="#946331"/>
<stop offset="0.92" stop-color="#916230"/>
</linearGradient>
<linearGradient id="paint4_linear_429_4056" x1="13.4075" y1="1.53605" x2="99.9991" y2="1.53605" gradientUnits="userSpaceOnUse">
<stop offset="0.05" stop-color="#CF9F66"/>
<stop offset="0.31" stop-color="#7C4A1A"/>
<stop offset="0.51" stop-color="#FFDC9C"/>
<stop offset="0.69" stop-color="#946331"/>
<stop offset="0.92" stop-color="#916230"/>
</linearGradient>
<linearGradient id="paint5_linear_429_4056" x1="60.3793" y1="42.6931" x2="151.873" y2="42.6931" gradientUnits="userSpaceOnUse">
<stop offset="0.05" stop-color="#CF9F66"/>
<stop offset="0.31" stop-color="#7C4A1A"/>
<stop offset="0.51" stop-color="#FFDC9C"/>
<stop offset="0.69" stop-color="#946331"/>
<stop offset="0.92" stop-color="#916230"/>
</linearGradient>
<linearGradient id="paint6_linear_429_4056" x1="-85.7769" y1="17.5759" x2="0.817235" y2="17.5759" gradientUnits="userSpaceOnUse">
<stop offset="0.05" stop-color="#CF9F66"/>
<stop offset="0.31" stop-color="#7C4A1A"/>
<stop offset="0.51" stop-color="#FFDC9C"/>
<stop offset="0.69" stop-color="#946331"/>
<stop offset="0.92" stop-color="#916230"/>
</linearGradient>
<linearGradient id="paint7_linear_429_4056" x1="-38.8025" y1="58.7306" x2="52.691" y2="58.7306" gradientUnits="userSpaceOnUse">
<stop offset="0.05" stop-color="#CF9F66"/>
<stop offset="0.31" stop-color="#7C4A1A"/>
<stop offset="0.51" stop-color="#FFDC9C"/>
<stop offset="0.69" stop-color="#946331"/>
<stop offset="0.92" stop-color="#916230"/>
</linearGradient>
<linearGradient id="paint8_linear_429_4056" x1="555.566" y1="-43.0367" x2="647.062" y2="-43.0367" gradientUnits="userSpaceOnUse">
<stop offset="0.05" stop-color="#CF9F66"/>
<stop offset="0.31" stop-color="#7C4A1A"/>
<stop offset="0.51" stop-color="#FFDC9C"/>
<stop offset="0.69" stop-color="#946331"/>
<stop offset="0.92" stop-color="#916230"/>
</linearGradient>
<linearGradient id="paint9_linear_429_4056" x1="458.549" y1="-24.7879" x2="550.045" y2="-24.7879" gradientUnits="userSpaceOnUse">
<stop offset="0.05" stop-color="#CF9F66"/>
<stop offset="0.31" stop-color="#7C4A1A"/>
<stop offset="0.51" stop-color="#FFDC9C"/>
<stop offset="0.69" stop-color="#946331"/>
<stop offset="0.92" stop-color="#916230"/>
</linearGradient>
<linearGradient id="paint10_linear_429_4056" x1="508.438" y1="15.8505" x2="595.032" y2="15.8505" gradientUnits="userSpaceOnUse">
<stop offset="0.05" stop-color="#CF9F66"/>
<stop offset="0.31" stop-color="#7C4A1A"/>
<stop offset="0.51" stop-color="#FFDC9C"/>
<stop offset="0.69" stop-color="#946331"/>
<stop offset="0.92" stop-color="#916230"/>
</linearGradient>
<linearGradient id="paint11_linear_429_4056" x1="555.409" y1="57.008" x2="646.905" y2="57.008" gradientUnits="userSpaceOnUse">
<stop offset="0.05" stop-color="#CF9F66"/>
<stop offset="0.31" stop-color="#7C4A1A"/>
<stop offset="0.51" stop-color="#FFDC9C"/>
<stop offset="0.69" stop-color="#946331"/>
<stop offset="0.92" stop-color="#916230"/>
</linearGradient>
<linearGradient id="paint12_linear_429_4056" x1="358.07" y1="-9.07966" x2="449.564" y2="-9.07966" gradientUnits="userSpaceOnUse">
<stop offset="0.05" stop-color="#CF9F66"/>
<stop offset="0.31" stop-color="#7C4A1A"/>
<stop offset="0.51" stop-color="#FFDC9C"/>
<stop offset="0.69" stop-color="#946331"/>
<stop offset="0.92" stop-color="#916230"/>
</linearGradient>
<linearGradient id="paint13_linear_429_4056" x1="409.255" y1="31.8906" x2="495.85" y2="31.8906" gradientUnits="userSpaceOnUse">
<stop offset="0.05" stop-color="#CF9F66"/>
<stop offset="0.31" stop-color="#7C4A1A"/>
<stop offset="0.51" stop-color="#FFDC9C"/>
<stop offset="0.69" stop-color="#946331"/>
<stop offset="0.92" stop-color="#916230"/>
</linearGradient>
<linearGradient id="paint14_linear_429_4056" x1="456.227" y1="73.0454" x2="547.723" y2="73.0454" gradientUnits="userSpaceOnUse">
<stop offset="0.05" stop-color="#CF9F66"/>
<stop offset="0.31" stop-color="#7C4A1A"/>
<stop offset="0.51" stop-color="#FFDC9C"/>
<stop offset="0.69" stop-color="#946331"/>
<stop offset="0.92" stop-color="#916230"/>
</linearGradient>
<linearGradient id="paint15_linear_429_4056" x1="1095.17" y1="112.231" x2="1181.77" y2="112.231" gradientUnits="userSpaceOnUse">
<stop offset="0.05" stop-color="#CF9F66"/>
<stop offset="0.31" stop-color="#7C4A1A"/>
<stop offset="0.51" stop-color="#FFDC9C"/>
<stop offset="0.69" stop-color="#946331"/>
<stop offset="0.92" stop-color="#916230"/>
</linearGradient>
<linearGradient id="paint16_linear_429_4056" x1="998.156" y1="130.482" x2="1084.75" y2="130.482" gradientUnits="userSpaceOnUse">
<stop offset="0.05" stop-color="#CF9F66"/>
<stop offset="0.31" stop-color="#7C4A1A"/>
<stop offset="0.51" stop-color="#FFDC9C"/>
<stop offset="0.69" stop-color="#946331"/>
<stop offset="0.92" stop-color="#916230"/>
</linearGradient>
<linearGradient id="paint17_linear_429_4056" x1="1296.08" y1="-20.4278" x2="1382.68" y2="-20.4278" gradientUnits="userSpaceOnUse">
<stop offset="0.05" stop-color="#CF9F66"/>
<stop offset="0.31" stop-color="#7C4A1A"/>
<stop offset="0.51" stop-color="#FFDC9C"/>
<stop offset="0.69" stop-color="#946331"/>
<stop offset="0.92" stop-color="#916230"/>
</linearGradient>
<linearGradient id="paint18_linear_429_4056" x1="1343.06" y1="20.7297" x2="1434.55" y2="20.7297" gradientUnits="userSpaceOnUse">
<stop offset="0.05" stop-color="#CF9F66"/>
<stop offset="0.31" stop-color="#7C4A1A"/>
<stop offset="0.51" stop-color="#FFDC9C"/>
<stop offset="0.69" stop-color="#946331"/>
<stop offset="0.92" stop-color="#916230"/>
</linearGradient>
<linearGradient id="paint19_linear_429_4056" x1="1394.36" y1="61.7671" x2="1480.95" y2="61.7671" gradientUnits="userSpaceOnUse">
<stop offset="0.05" stop-color="#CF9F66"/>
<stop offset="0.31" stop-color="#7C4A1A"/>
<stop offset="0.51" stop-color="#FFDC9C"/>
<stop offset="0.69" stop-color="#946331"/>
<stop offset="0.92" stop-color="#916230"/>
</linearGradient>
<linearGradient id="paint20_linear_429_4056" x1="1199.07" y1="-2.17879" x2="1285.66" y2="-2.17879" gradientUnits="userSpaceOnUse">
<stop offset="0.05" stop-color="#CF9F66"/>
<stop offset="0.31" stop-color="#7C4A1A"/>
<stop offset="0.51" stop-color="#FFDC9C"/>
<stop offset="0.69" stop-color="#946331"/>
<stop offset="0.92" stop-color="#916230"/>
</linearGradient>
<linearGradient id="paint21_linear_429_4056" x1="1246.04" y1="38.9784" x2="1337.53" y2="38.9784" gradientUnits="userSpaceOnUse">
<stop offset="0.05" stop-color="#CF9F66"/>
<stop offset="0.31" stop-color="#7C4A1A"/>
<stop offset="0.51" stop-color="#FFDC9C"/>
<stop offset="0.69" stop-color="#946331"/>
<stop offset="0.92" stop-color="#916230"/>
</linearGradient>
<linearGradient id="paint22_linear_429_4056" x1="1297.34" y1="80.016" x2="1383.94" y2="80.016" gradientUnits="userSpaceOnUse">
<stop offset="0.05" stop-color="#CF9F66"/>
<stop offset="0.31" stop-color="#7C4A1A"/>
<stop offset="0.51" stop-color="#FFDC9C"/>
<stop offset="0.69" stop-color="#946331"/>
<stop offset="0.92" stop-color="#916230"/>
</linearGradient>
<linearGradient id="paint23_linear_429_4056" x1="1344.31" y1="121.173" x2="1435.81" y2="121.173" gradientUnits="userSpaceOnUse">
<stop offset="0.05" stop-color="#CF9F66"/>
<stop offset="0.31" stop-color="#7C4A1A"/>
<stop offset="0.51" stop-color="#FFDC9C"/>
<stop offset="0.69" stop-color="#946331"/>
<stop offset="0.92" stop-color="#916230"/>
</linearGradient>
<linearGradient id="paint24_linear_429_4056" x1="1196.86" y1="95.7273" x2="1283.45" y2="95.7273" gradientUnits="userSpaceOnUse">
<stop offset="0.05" stop-color="#CF9F66"/>
<stop offset="0.31" stop-color="#7C4A1A"/>
<stop offset="0.51" stop-color="#FFDC9C"/>
<stop offset="0.69" stop-color="#946331"/>
<stop offset="0.92" stop-color="#916230"/>
</linearGradient>
<linearGradient id="paint25_linear_429_4056" x1="1243.83" y1="136.882" x2="1335.33" y2="136.882" gradientUnits="userSpaceOnUse">
<stop offset="0.05" stop-color="#CF9F66"/>
<stop offset="0.31" stop-color="#7C4A1A"/>
<stop offset="0.51" stop-color="#FFDC9C"/>
<stop offset="0.69" stop-color="#946331"/>
<stop offset="0.92" stop-color="#916230"/>
</linearGradient>
<linearGradient id="paint26_linear_429_4056" x1="1149.7" y1="-44.3682" x2="1241.2" y2="-44.3682" gradientUnits="userSpaceOnUse">
<stop offset="0.05" stop-color="#CF9F66"/>
<stop offset="0.31" stop-color="#7C4A1A"/>
<stop offset="0.51" stop-color="#FFDC9C"/>
<stop offset="0.69" stop-color="#946331"/>
<stop offset="0.92" stop-color="#916230"/>
</linearGradient>
<linearGradient id="paint27_linear_429_4056" x1="1052.69" y1="-26.117" x2="1144.18" y2="-26.117" gradientUnits="userSpaceOnUse">
<stop offset="0.05" stop-color="#CF9F66"/>
<stop offset="0.31" stop-color="#7C4A1A"/>
<stop offset="0.51" stop-color="#FFDC9C"/>
<stop offset="0.69" stop-color="#946331"/>
<stop offset="0.92" stop-color="#916230"/>
</linearGradient>
<linearGradient id="paint28_linear_429_4056" x1="1102.57" y1="14.5219" x2="1189.17" y2="14.5219" gradientUnits="userSpaceOnUse">
<stop offset="0.05" stop-color="#CF9F66"/>
<stop offset="0.31" stop-color="#7C4A1A"/>
<stop offset="0.51" stop-color="#FFDC9C"/>
<stop offset="0.69" stop-color="#946331"/>
<stop offset="0.92" stop-color="#916230"/>
</linearGradient>
<linearGradient id="paint29_linear_429_4056" x1="1149.55" y1="55.6794" x2="1241.04" y2="55.6794" gradientUnits="userSpaceOnUse">
<stop offset="0.05" stop-color="#CF9F66"/>
<stop offset="0.31" stop-color="#7C4A1A"/>
<stop offset="0.51" stop-color="#FFDC9C"/>
<stop offset="0.69" stop-color="#946331"/>
<stop offset="0.92" stop-color="#916230"/>
</linearGradient>
<linearGradient id="paint30_linear_429_4056" x1="952.204" y1="-10.408" x2="1043.7" y2="-10.408" gradientUnits="userSpaceOnUse">
<stop offset="0.05" stop-color="#CF9F66"/>
<stop offset="0.31" stop-color="#7C4A1A"/>
<stop offset="0.51" stop-color="#FFDC9C"/>
<stop offset="0.69" stop-color="#946331"/>
<stop offset="0.92" stop-color="#916230"/>
</linearGradient>
<linearGradient id="paint31_linear_429_4056" x1="1003.39" y1="30.5597" x2="1089.99" y2="30.5597" gradientUnits="userSpaceOnUse">
<stop offset="0.05" stop-color="#CF9F66"/>
<stop offset="0.31" stop-color="#7C4A1A"/>
<stop offset="0.51" stop-color="#FFDC9C"/>
<stop offset="0.69" stop-color="#946331"/>
<stop offset="0.92" stop-color="#916230"/>
</linearGradient>
<linearGradient id="paint32_linear_429_4056" x1="1050.36" y1="71.7165" x2="1141.86" y2="71.7165" gradientUnits="userSpaceOnUse">
<stop offset="0.05" stop-color="#CF9F66"/>
<stop offset="0.31" stop-color="#7C4A1A"/>
<stop offset="0.51" stop-color="#FFDC9C"/>
<stop offset="0.69" stop-color="#946331"/>
<stop offset="0.92" stop-color="#916230"/>
</linearGradient>
<linearGradient id="paint33_linear_429_4056" x1="800.139" y1="-35.2987" x2="886.733" y2="-35.2987" gradientUnits="userSpaceOnUse">
<stop offset="0.05" stop-color="#CF9F66"/>
<stop offset="0.31" stop-color="#7C4A1A"/>
<stop offset="0.51" stop-color="#FFDC9C"/>
<stop offset="0.69" stop-color="#946331"/>
<stop offset="0.92" stop-color="#916230"/>
</linearGradient>
<linearGradient id="paint34_linear_429_4056" x1="847.113" y1="5.85884" x2="938.606" y2="5.85884" gradientUnits="userSpaceOnUse">
<stop offset="0.05" stop-color="#CF9F66"/>
<stop offset="0.31" stop-color="#7C4A1A"/>
<stop offset="0.51" stop-color="#FFDC9C"/>
<stop offset="0.69" stop-color="#946331"/>
<stop offset="0.92" stop-color="#916230"/>
</linearGradient>
<linearGradient id="paint35_linear_429_4056" x1="898.415" y1="46.8964" x2="985.009" y2="46.8964" gradientUnits="userSpaceOnUse">
<stop offset="0.05" stop-color="#CF9F66"/>
<stop offset="0.31" stop-color="#7C4A1A"/>
<stop offset="0.51" stop-color="#FFDC9C"/>
<stop offset="0.69" stop-color="#946331"/>
<stop offset="0.92" stop-color="#916230"/>
</linearGradient>
<linearGradient id="paint36_linear_429_4056" x1="945.387" y1="88.0537" x2="1036.88" y2="88.0537" gradientUnits="userSpaceOnUse">
<stop offset="0.05" stop-color="#CF9F66"/>
<stop offset="0.31" stop-color="#7C4A1A"/>
<stop offset="0.51" stop-color="#FFDC9C"/>
<stop offset="0.69" stop-color="#946331"/>
<stop offset="0.92" stop-color="#916230"/>
</linearGradient>
<linearGradient id="paint37_linear_429_4056" x1="703.124" y1="-17.0472" x2="789.716" y2="-17.0472" gradientUnits="userSpaceOnUse">
<stop offset="0.05" stop-color="#CF9F66"/>
<stop offset="0.31" stop-color="#7C4A1A"/>
<stop offset="0.51" stop-color="#FFDC9C"/>
<stop offset="0.69" stop-color="#946331"/>
<stop offset="0.92" stop-color="#916230"/>
</linearGradient>
<linearGradient id="paint38_linear_429_4056" x1="750.096" y1="24.1076" x2="841.589" y2="24.1076" gradientUnits="userSpaceOnUse">
<stop offset="0.05" stop-color="#CF9F66"/>
<stop offset="0.31" stop-color="#7C4A1A"/>
<stop offset="0.51" stop-color="#FFDC9C"/>
<stop offset="0.69" stop-color="#946331"/>
<stop offset="0.92" stop-color="#916230"/>
</linearGradient>
<linearGradient id="paint39_linear_429_4056" x1="801.398" y1="65.1474" x2="887.993" y2="65.1474" gradientUnits="userSpaceOnUse">
<stop offset="0.05" stop-color="#CF9F66"/>
<stop offset="0.31" stop-color="#7C4A1A"/>
<stop offset="0.51" stop-color="#FFDC9C"/>
<stop offset="0.69" stop-color="#946331"/>
<stop offset="0.92" stop-color="#916230"/>
</linearGradient>
<linearGradient id="paint40_linear_429_4056" x1="848.37" y1="106.303" x2="939.866" y2="106.303" gradientUnits="userSpaceOnUse">
<stop offset="0.05" stop-color="#CF9F66"/>
<stop offset="0.31" stop-color="#7C4A1A"/>
<stop offset="0.51" stop-color="#FFDC9C"/>
<stop offset="0.69" stop-color="#946331"/>
<stop offset="0.92" stop-color="#916230"/>
</linearGradient>
<linearGradient id="paint41_linear_429_4056" x1="898.258" y1="146.943" x2="984.852" y2="146.943" gradientUnits="userSpaceOnUse">
<stop offset="0.05" stop-color="#CF9F66"/>
<stop offset="0.31" stop-color="#7C4A1A"/>
<stop offset="0.51" stop-color="#FFDC9C"/>
<stop offset="0.69" stop-color="#946331"/>
<stop offset="0.92" stop-color="#916230"/>
</linearGradient>
<linearGradient id="paint42_linear_429_4056" x1="700.917" y1="80.8561" x2="787.511" y2="80.8561" gradientUnits="userSpaceOnUse">
<stop offset="0.05" stop-color="#CF9F66"/>
<stop offset="0.31" stop-color="#7C4A1A"/>
<stop offset="0.51" stop-color="#FFDC9C"/>
<stop offset="0.69" stop-color="#946331"/>
<stop offset="0.92" stop-color="#916230"/>
</linearGradient>
<linearGradient id="paint43_linear_429_4056" x1="747.888" y1="122.014" x2="839.384" y2="122.014" gradientUnits="userSpaceOnUse">
<stop offset="0.05" stop-color="#CF9F66"/>
<stop offset="0.31" stop-color="#7C4A1A"/>
<stop offset="0.51" stop-color="#FFDC9C"/>
<stop offset="0.69" stop-color="#946331"/>
<stop offset="0.92" stop-color="#916230"/>
</linearGradient>
<linearGradient id="paint44_linear_429_4056" x1="605.192" y1="-2.16658" x2="691.786" y2="-2.16658" gradientUnits="userSpaceOnUse">
<stop offset="0.05" stop-color="#CF9F66"/>
<stop offset="0.31" stop-color="#7C4A1A"/>
<stop offset="0.51" stop-color="#FFDC9C"/>
<stop offset="0.69" stop-color="#946331"/>
<stop offset="0.92" stop-color="#916230"/>
</linearGradient>
<linearGradient id="paint45_linear_429_4056" x1="652.164" y1="38.9911" x2="743.657" y2="38.9911" gradientUnits="userSpaceOnUse">
<stop offset="0.05" stop-color="#CF9F66"/>
<stop offset="0.31" stop-color="#7C4A1A"/>
<stop offset="0.51" stop-color="#FFDC9C"/>
<stop offset="0.69" stop-color="#946331"/>
<stop offset="0.92" stop-color="#916230"/>
</linearGradient>
<linearGradient id="paint46_linear_429_4056" x1="403.183" y1="127.934" x2="489.777" y2="127.934" gradientUnits="userSpaceOnUse">
<stop offset="0.05" stop-color="#CF9F66"/>
<stop offset="0.31" stop-color="#7C4A1A"/>
<stop offset="0.51" stop-color="#FFDC9C"/>
<stop offset="0.69" stop-color="#946331"/>
<stop offset="0.92" stop-color="#916230"/>
</linearGradient>
<linearGradient id="paint47_linear_429_4056" x1="208.469" y1="-35.0494" x2="295.06" y2="-35.0494" gradientUnits="userSpaceOnUse">
<stop offset="0.05" stop-color="#CF9F66"/>
<stop offset="0.31" stop-color="#7C4A1A"/>
<stop offset="0.51" stop-color="#FFDC9C"/>
<stop offset="0.69" stop-color="#946331"/>
<stop offset="0.92" stop-color="#916230"/>
</linearGradient>
<linearGradient id="paint48_linear_429_4056" x1="255.441" y1="6.10811" x2="346.934" y2="6.10811" gradientUnits="userSpaceOnUse">
<stop offset="0.05" stop-color="#CF9F66"/>
<stop offset="0.31" stop-color="#7C4A1A"/>
<stop offset="0.51" stop-color="#FFDC9C"/>
<stop offset="0.69" stop-color="#946331"/>
<stop offset="0.92" stop-color="#916230"/>
</linearGradient>
<linearGradient id="paint49_linear_429_4056" x1="306.626" y1="47.0756" x2="393.22" y2="47.0756" gradientUnits="userSpaceOnUse">
<stop offset="0.05" stop-color="#CF9F66"/>
<stop offset="0.31" stop-color="#7C4A1A"/>
<stop offset="0.51" stop-color="#FFDC9C"/>
<stop offset="0.69" stop-color="#946331"/>
<stop offset="0.92" stop-color="#916230"/>
</linearGradient>
<linearGradient id="paint50_linear_429_4056" x1="353.597" y1="88.2331" x2="445.093" y2="88.2331" gradientUnits="userSpaceOnUse">
<stop offset="0.05" stop-color="#CF9F66"/>
<stop offset="0.31" stop-color="#7C4A1A"/>
<stop offset="0.51" stop-color="#FFDC9C"/>
<stop offset="0.69" stop-color="#946331"/>
<stop offset="0.92" stop-color="#916230"/>
</linearGradient>
<linearGradient id="paint51_linear_429_4056" x1="301.729" y1="142.845" x2="388.323" y2="142.845" gradientUnits="userSpaceOnUse">
<stop offset="0.05" stop-color="#CF9F66"/>
<stop offset="0.31" stop-color="#7C4A1A"/>
<stop offset="0.51" stop-color="#FFDC9C"/>
<stop offset="0.69" stop-color="#946331"/>
<stop offset="0.92" stop-color="#916230"/>
</linearGradient>
<linearGradient id="paint52_linear_429_4056" x1="107.014" y1="-20.139" x2="193.609" y2="-20.139" gradientUnits="userSpaceOnUse">
<stop offset="0.05" stop-color="#CF9F66"/>
<stop offset="0.31" stop-color="#7C4A1A"/>
<stop offset="0.51" stop-color="#FFDC9C"/>
<stop offset="0.69" stop-color="#946331"/>
<stop offset="0.92" stop-color="#916230"/>
</linearGradient>
<linearGradient id="paint53_linear_429_4056" x1="153.986" y1="21.019" x2="245.482" y2="21.019" gradientUnits="userSpaceOnUse">
<stop offset="0.05" stop-color="#CF9F66"/>
<stop offset="0.31" stop-color="#7C4A1A"/>
<stop offset="0.51" stop-color="#FFDC9C"/>
<stop offset="0.69" stop-color="#946331"/>
<stop offset="0.92" stop-color="#916230"/>
</linearGradient>
<linearGradient id="paint54_linear_429_4056" x1="205.171" y1="61.9863" x2="291.765" y2="61.9863" gradientUnits="userSpaceOnUse">
<stop offset="0.05" stop-color="#CF9F66"/>
<stop offset="0.31" stop-color="#7C4A1A"/>
<stop offset="0.51" stop-color="#FFDC9C"/>
<stop offset="0.69" stop-color="#946331"/>
<stop offset="0.92" stop-color="#916230"/>
</linearGradient>
<linearGradient id="paint55_linear_429_4056" x1="252.143" y1="103.144" x2="343.639" y2="103.144" gradientUnits="userSpaceOnUse">
<stop offset="0.05" stop-color="#CF9F66"/>
<stop offset="0.31" stop-color="#7C4A1A"/>
<stop offset="0.51" stop-color="#FFDC9C"/>
<stop offset="0.69" stop-color="#946331"/>
<stop offset="0.92" stop-color="#916230"/>
</linearGradient>
<linearGradient id="paint56_linear_429_4056" x1="112.981" y1="84.2319" x2="199.576" y2="84.2319" gradientUnits="userSpaceOnUse">
<stop offset="0.05" stop-color="#CF9F66"/>
<stop offset="0.31" stop-color="#7C4A1A"/>
<stop offset="0.51" stop-color="#FFDC9C"/>
<stop offset="0.69" stop-color="#946331"/>
<stop offset="0.92" stop-color="#916230"/>
</linearGradient>
<linearGradient id="paint57_linear_429_4056" x1="159.953" y1="125.389" x2="251.449" y2="125.389" gradientUnits="userSpaceOnUse">
<stop offset="0.05" stop-color="#CF9F66"/>
<stop offset="0.31" stop-color="#7C4A1A"/>
<stop offset="0.51" stop-color="#FFDC9C"/>
<stop offset="0.69" stop-color="#946331"/>
<stop offset="0.92" stop-color="#916230"/>
</linearGradient>
<linearGradient id="paint58_linear_429_4056" x1="508.293" y1="115.728" x2="594.887" y2="115.728" gradientUnits="userSpaceOnUse">
<stop offset="0.05" stop-color="#CF9F66"/>
<stop offset="0.31" stop-color="#7C4A1A"/>
<stop offset="0.51" stop-color="#FFDC9C"/>
<stop offset="0.69" stop-color="#946331"/>
<stop offset="0.92" stop-color="#916230"/>
</linearGradient>
<linearGradient id="paint59_linear_429_4056" x1="608.315" y1="99.1423" x2="694.909" y2="99.1423" gradientUnits="userSpaceOnUse">
<stop offset="0.05" stop-color="#CF9F66"/>
<stop offset="0.31" stop-color="#7C4A1A"/>
<stop offset="0.51" stop-color="#FFDC9C"/>
<stop offset="0.69" stop-color="#946331"/>
<stop offset="0.92" stop-color="#916230"/>
</linearGradient>
<linearGradient id="paint60_linear_429_4056" x1="655.289" y1="140.297" x2="746.783" y2="140.297" gradientUnits="userSpaceOnUse">
<stop offset="0.05" stop-color="#CF9F66"/>
<stop offset="0.31" stop-color="#7C4A1A"/>
<stop offset="0.51" stop-color="#FFDC9C"/>
<stop offset="0.69" stop-color="#946331"/>
<stop offset="0.92" stop-color="#916230"/>
</linearGradient>
<clipPath id="clip0_429_4056">
<rect width="4440" height="104" fill="white"/>
</clipPath>
</defs>
</svg>
