<svg width="32" height="32" viewBox="0 0 32 32" fill="none" xmlns="http://www.w3.org/2000/svg">
<path d="M1.33325 26.6667V25.3333C1.33325 22.858 2.31658 20.484 4.06692 18.7337C5.81726 16.9833 8.19123 16 10.6666 16C13.1419 16 15.5159 16.9833 17.2662 18.7337C19.0166 20.484 19.9999 22.858 19.9999 25.3333V26.6667" stroke="url(#paint0_linear_410_1813)" stroke-width="1.5" stroke-linecap="round"/>
<path d="M17.3333 18.6667C17.3333 16.8986 18.0356 15.2029 19.2859 13.9526C20.5361 12.7024 22.2318 12 23.9999 12C24.8754 12 25.7423 12.1724 26.5511 12.5075C27.36 12.8425 28.0949 13.3336 28.714 13.9526C29.333 14.5717 29.8241 15.3066 30.1591 16.1154C30.4941 16.9243 30.6666 17.7912 30.6666 18.6667V19.3333" stroke="url(#paint1_linear_410_1813)" stroke-width="1.5" stroke-linecap="round"/>
<path d="M10.6666 16C12.0811 16 13.4376 15.4381 14.4378 14.4379C15.438 13.4377 15.9999 12.0812 15.9999 10.6667C15.9999 9.25218 15.438 7.89562 14.4378 6.89543C13.4376 5.89524 12.0811 5.33333 10.6666 5.33333C9.2521 5.33333 7.89554 5.89524 6.89535 6.89543C5.89515 7.89562 5.33325 9.25218 5.33325 10.6667C5.33325 12.0812 5.89515 13.4377 6.89535 14.4379C7.89554 15.4381 9.2521 16 10.6666 16ZM23.9999 12C25.0608 12 26.0782 11.5786 26.8283 10.8284C27.5785 10.0783 27.9999 9.06087 27.9999 8C27.9999 6.93913 27.5785 5.92172 26.8283 5.17157C26.0782 4.42143 25.0608 4 23.9999 4C22.9391 4 21.9216 4.42143 21.1715 5.17157C20.4213 5.92172 19.9999 6.93913 19.9999 8C19.9999 9.06087 20.4213 10.0783 21.1715 10.8284C21.9216 11.5786 22.9391 12 23.9999 12Z" stroke="url(#paint2_linear_410_1813)" stroke-width="1.5" stroke-linecap="round" stroke-linejoin="round"/>
<defs>
<linearGradient id="paint0_linear_410_1813" x1="1.33325" y1="20.3886" x2="19.9985" y2="20.2093" gradientUnits="userSpaceOnUse">
<stop offset="0.05" stop-color="#CF9F66"/>
<stop offset="0.466346" stop-color="#FFDC9C"/>
<stop offset="0.985577" stop-color="#946331"/>
</linearGradient>
<linearGradient id="paint1_linear_410_1813" x1="17.3333" y1="15.0171" x2="30.6655" y2="14.8841" gradientUnits="userSpaceOnUse">
<stop offset="0.05" stop-color="#CF9F66"/>
<stop offset="0.466346" stop-color="#FFDC9C"/>
<stop offset="0.985577" stop-color="#946331"/>
</linearGradient>
<linearGradient id="paint2_linear_410_1813" x1="5.33325" y1="8.93714" x2="27.9978" y2="8.70213" gradientUnits="userSpaceOnUse">
<stop offset="0.05" stop-color="#CF9F66"/>
<stop offset="0.466346" stop-color="#FFDC9C"/>
<stop offset="0.985577" stop-color="#946331"/>
</linearGradient>
</defs>
</svg>
