<svg width="40" height="40" viewBox="0 0 40 40" fill="none" xmlns="http://www.w3.org/2000/svg">
<rect width="40" height="40" rx="4" fill="url(#paint0_linear_910_1649)"/>
<path fill-rule="evenodd" clip-rule="evenodd" d="M27.7771 12.43C28.0243 12.326 28.2947 12.2901 28.5604 12.3261C28.8261 12.3621 29.0773 12.4687 29.2878 12.6347C29.4984 12.8007 29.6606 13.0201 29.7575 13.2701C29.8545 13.52 29.8827 13.7914 29.8391 14.056L27.5711 27.813C27.3511 29.14 25.8951 29.901 24.6781 29.24C23.6601 28.687 22.1481 27.835 20.7881 26.946C20.1081 26.501 18.0251 25.076 18.2811 24.062C18.5011 23.195 22.0011 19.937 24.0011 18C24.7861 17.239 24.4281 16.8 23.5011 17.5C21.1991 19.238 17.5031 21.881 16.2811 22.625C15.2031 23.281 14.6411 23.393 13.9691 23.281C12.7431 23.077 11.6061 22.761 10.6781 22.376C9.42414 21.856 9.48514 20.132 10.6771 19.63L27.7771 12.43Z" fill="#191919"/>
<defs>
<linearGradient id="paint0_linear_910_1649" x1="9.3322e-09" y1="16.4571" x2="39.9994" y2="16.2376" gradientUnits="userSpaceOnUse">
<stop offset="0.05" stop-color="#CF9F66"/>
<stop offset="0.466346" stop-color="#FFDC9C"/>
<stop offset="0.985577" stop-color="#946331"/>
</linearGradient>
</defs>
</svg>
