<svg width="40" height="40" viewBox="0 0 40 40" fill="none" xmlns="http://www.w3.org/2000/svg">
<rect width="40" height="40" rx="4" fill="url(#paint0_linear_372_2496)"/>
<path fill-rule="evenodd" clip-rule="evenodd" d="M27.7769 12.43C28.024 12.326 28.2945 12.2901 28.5602 12.3261C28.8259 12.3621 29.0771 12.4686 29.2876 12.6347C29.4981 12.8007 29.6603 13.0201 29.7573 13.27C29.8542 13.52 29.8824 13.7914 29.8389 14.056L27.5709 27.813C27.3509 29.14 25.8949 29.901 24.6779 29.24C23.6599 28.687 22.1479 27.835 20.7879 26.946C20.1079 26.501 18.0249 25.076 18.2809 24.062C18.5009 23.195 22.0009 19.937 24.0009 18C24.7859 17.239 24.4279 16.8 23.5009 17.5C21.1989 19.238 17.5029 21.881 16.2809 22.625C15.2029 23.281 14.6409 23.393 13.9689 23.281C12.7429 23.077 11.6059 22.761 10.6779 22.376C9.4239 21.856 9.4849 20.132 10.6769 19.63L27.7769 12.43Z" fill="#191919"/>
<defs>
<linearGradient id="paint0_linear_372_2496" x1="9.3322e-09" y1="16.4571" x2="39.9994" y2="16.2376" gradientUnits="userSpaceOnUse">
<stop offset="0.05" stop-color="#CF9F66"/>
<stop offset="0.466346" stop-color="#FFDC9C"/>
<stop offset="0.985577" stop-color="#946331"/>
</linearGradient>
</defs>
</svg>
