<svg width="40" height="40" viewBox="0 0 40 40" fill="none" xmlns="http://www.w3.org/2000/svg">
<rect width="40" height="40" rx="4" fill="url(#paint0_linear_910_813)"/>
<path d="M24.6002 13.82C23.9167 13.0395 23.5401 12.0374 23.5402 11H20.4502V23.4C20.4268 24.0712 20.1437 24.7071 19.6605 25.1735C19.1773 25.6399 18.5318 25.9004 17.8602 25.9C16.4402 25.9 15.2602 24.74 15.2602 23.3C15.2602 21.58 16.9202 20.29 18.6302 20.82V17.66C15.1802 17.2 12.1602 19.88 12.1602 23.3C12.1602 26.63 14.9202 29 17.8502 29C20.9902 29 23.5402 26.45 23.5402 23.3V17.01C24.7932 17.9099 26.2975 18.3926 27.8402 18.39V15.3C27.8402 15.3 25.9602 15.39 24.6002 13.82Z" fill="#191919"/>
<defs>
<linearGradient id="paint0_linear_910_813" x1="9.3322e-09" y1="16.4571" x2="39.9994" y2="16.2376" gradientUnits="userSpaceOnUse">
<stop offset="0.05" stop-color="#CF9F66"/>
<stop offset="0.466346" stop-color="#FFDC9C"/>
<stop offset="0.985577" stop-color="#946331"/>
</linearGradient>
</defs>
</svg>
