<svg width="32" height="32" viewBox="0 0 32 32" fill="none" xmlns="http://www.w3.org/2000/svg">
<path d="M15.9999 28C15.606 28 15.2159 27.9224 14.8519 27.7716C14.4879 27.6209 14.1572 27.3999 13.8786 27.1213C13.6 26.8428 13.3791 26.512 13.2283 26.1481C13.0775 25.7841 12.9999 25.394 12.9999 25C12.9999 24.606 13.0775 24.2159 13.2283 23.852C13.3791 23.488 13.6 23.1573 13.8786 22.8787C14.1572 22.6001 14.4879 22.3791 14.8519 22.2284C15.2159 22.0776 15.606 22 15.9999 22C16.7956 22 17.5586 22.3161 18.1213 22.8787C18.6839 23.4413 18.9999 24.2044 18.9999 25C18.9999 25.7957 18.6839 26.5587 18.1213 27.1213C17.5586 27.6839 16.7956 28 15.9999 28ZM15.9999 26C16.2651 26 16.5195 25.8947 16.707 25.7071C16.8946 25.5196 16.9999 25.2652 16.9999 25C16.9999 24.7348 16.8946 24.4804 16.707 24.2929C16.5195 24.1054 16.2651 24 15.9999 24C15.7347 24 15.4804 24.1054 15.2928 24.2929C15.1053 24.4804 14.9999 24.7348 14.9999 25C14.9999 25.2652 15.1053 25.5196 15.2928 25.7071C15.4804 25.8947 15.7347 26 15.9999 26ZM22.3779 18.72C22.5504 18.9132 22.6412 19.1658 22.6313 19.4246C22.6213 19.6833 22.5113 19.9282 22.3245 20.1075C22.1376 20.2868 21.8885 20.3867 21.6295 20.386C21.3705 20.3854 21.1219 20.2843 20.9359 20.104C20.2989 19.4368 19.5328 18.9063 18.6842 18.5446C17.8357 18.1829 16.9224 17.9976 15.9999 18C14.1259 18 12.3739 18.756 11.0939 20.074C10.9084 20.2611 10.6565 20.3673 10.3931 20.3697C10.1296 20.3721 9.87585 20.2704 9.68693 20.0868C9.49802 19.9032 9.38921 19.6524 9.38415 19.389C9.3791 19.1255 9.4782 18.8708 9.65993 18.68C10.4824 17.8302 11.4677 17.1549 12.557 16.6944C13.6463 16.234 14.8173 15.9978 15.9999 16C18.4399 16 20.7219 16.994 22.3779 18.72ZM26.4179 14.44C26.5089 14.5347 26.5804 14.6464 26.6282 14.7687C26.6761 14.891 26.6994 15.0215 26.6968 15.1528C26.6942 15.2841 26.6657 15.4136 26.6131 15.5339C26.5604 15.6542 26.4846 15.763 26.3899 15.854C26.2952 15.945 26.1836 16.0165 26.0613 16.0643C25.939 16.1122 25.8084 16.1355 25.6771 16.1329C25.5458 16.1303 25.4163 16.1018 25.296 16.0492C25.1757 15.9965 25.0669 15.9207 24.9759 15.826C23.8163 14.6144 22.4229 13.6506 20.8801 12.993C19.3372 12.3354 17.6771 11.9976 15.9999 12C14.3362 11.9979 12.6891 12.3306 11.1567 12.9782C9.62424 13.6259 8.23781 14.5754 7.07993 15.77C6.89507 15.9604 6.64214 16.0696 6.37678 16.0736C6.11142 16.0775 5.85536 15.9759 5.66493 15.791C5.4745 15.6062 5.36531 15.3532 5.36137 15.0879C5.35744 14.8225 5.45907 14.5664 5.64393 14.376C6.98842 12.9894 8.59811 11.8874 10.3772 11.1356C12.1563 10.3838 14.0685 9.99763 15.9999 10C17.9467 9.9973 19.8738 10.3894 21.6648 11.1525C23.4558 11.9156 25.0734 13.034 26.4199 14.44M30.4599 10.164C30.6324 10.3572 30.7232 10.6098 30.7133 10.8686C30.7033 11.1273 30.5933 11.3722 30.4065 11.5515C30.2196 11.7308 29.9705 11.8307 29.7115 11.83C29.4525 11.8294 29.2039 11.7283 29.0179 11.548C27.3354 9.79172 25.3144 8.39463 23.077 7.44108C20.8396 6.48753 18.4321 5.99731 15.9999 6.00001C13.587 5.99771 11.1982 6.48059 8.97556 7.41994C6.75295 8.35928 4.74189 9.73592 3.06193 11.468C2.97076 11.5637 2.86153 11.6404 2.74055 11.6936C2.61956 11.7468 2.48923 11.7755 2.35708 11.7781C2.22494 11.7806 2.0936 11.7569 1.97066 11.7084C1.84772 11.6598 1.73563 11.5874 1.64086 11.4953C1.54608 11.4032 1.47051 11.2932 1.41852 11.1716C1.36652 11.0501 1.33913 10.9195 1.33793 10.7873C1.33673 10.6552 1.36174 10.5241 1.41152 10.4016C1.46129 10.2792 1.53485 10.1678 1.62793 10.074C3.49426 8.15018 5.72826 6.62112 8.19718 5.57769C10.6661 4.53425 13.3196 3.99773 15.9999 4.00001C18.7015 3.99755 21.3757 4.54246 23.8609 5.60187C26.3461 6.66127 28.591 8.2132 30.4599 10.164Z" fill="url(#paint0_linear_410_1793)"/>
<defs>
<linearGradient id="paint0_linear_410_1793" x1="1.33789" y1="13.8743" x2="30.7131" y2="13.6769" gradientUnits="userSpaceOnUse">
<stop offset="0.05" stop-color="#CF9F66"/>
<stop offset="0.466346" stop-color="#FFDC9C"/>
<stop offset="0.985577" stop-color="#946331"/>
</linearGradient>
</defs>
</svg>
